<svg
  width="512" height="512" viewBox="0 0 512 512"
  xmlns="http://www.w3.org/2000/svg">
  <g
    class=""
    transform="translate(0,0)"
    style="">
    <path
      d="m256 25.61 -97.8 36.67 L256 86.72 l97.8-24.44 L256 25.61 z
         M136.1 75.3 105.9 407 h300.2 L375.9 75.3 l-119.9 30 -119.9-30 z
         M256 128 l30 72.7 78.3 6 -59.8 51 L323 334 l-67-41.2 -66.9 41.3 18.4-76.5 -59.8-50.9 78.4-6 L256 128 z
         M70.09 425 l-24.8 62 H237.3 l-49.6-62 H70.09 z m140.61 0 45.3 56.6 45.3-56.6 h-90.6 z
         m113.6 0 -49.6 62 h192 l-24.8-62 H324.3 z"
      fill="#fff"
      fill-opacity="1">
    </path>
  </g>
</svg>