<svg
  width="512" height="512" viewBox="0 0 512 512"
  xmlns="http://www.w3.org/2000/svg">
  <g
    class=""
    transform="translate(0,0)"
    style="">
    <path
      d="M179.813 20.72 v81.25 L135.78 75.624 l17.564 46.938 -115.656-20.938 84.718 49.906 H20 v27.345
         l110.47 14.875 96.593-29.188
         c-11.303-11.87-18.594-30.743-18.594-52 0-35.926 20.87-65.062 46.624-65.062 25.753 0 46.625 29.136 46.625 65.063 0 20.847-7.038 39.375-17.97 51.28
         l99.03 29.907 112.5-15.156 V151.53 H394.19 l84.718-49.905 -120.437 21.78 17.874-47.718 -48.656 29.126
         V20.72 H179.813 z M495.28 223.343 l-112.5 22.437 -55.405-13.124 -28.03 118.313 16.592 145 h51.688
         L329.25 351.22 l46.53 27.842 -21.31-56.937 124.436 22.5 -91.125-53.688 h107.5 v-67.593 z
         M20 223.75 v67.188 h108.813 l-91.125 53.687 L157.31 322.97 136.345 379 l38.47-23 -28.595 139.97 h48.155
         l12.905-144.41 -21.685-118.84 -55.125 13.06 L20 223.75 z"
      fill="#fff"
      fill-opacity="1">
    </path>
  </g>
</svg>