<svg
  width="512" height="512" viewBox="0 0 512 512"
  xmlns="http://www.w3.org/2000/svg">
  <g
    class=""
    transform="translate(0,0)"
    style="">
    <path
      d="M58.553 89 42.27 211.8 H79 V89 H58.553 z M97 89 v122.8 h38 V89 H97 z
         m56 0 v122.8 h56.666 v-17.6 h92.668 v17.6 H359 V89 H153 z
         m224 0 v122.8 h38 V89 h-38 z m56 0 v122.8 h36.73 L453.446 89 H433 z
         M227.666 212.2 v105.2 h56.668 V212.2 h-56.668 z M256 223.794
         a18.667 16.103 0 0 1 18.666 16.1 18.667 16.103 0 0 1-9.666 14.09 v37.214 h-18 V254
         a18.667 16.103 0 0 1-9.666-14.106 18.667 16.103 0 0 1 18.666-16.1 z
         M41 229.8 v127.915 l19.334 18.23 V229.8 H41 z m37.334 0 v158 h355.332 v-158 H302.334 v105.6 h-92.668 V229.8
         H78.334 z m373.332 0 v146.145 L471 357.715 V229.8 h-19.334 z
         M41 382.456 V423 h43.002 L41 382.455 z m430 0 L427.998 423 H471 v-40.545 z
         M92 405.8 l18.24 17.2 h291.52 L420 405.8 H92 z"
      fill="#fff"
      fill-opacity="1">
    </path>
  </g>
</svg>