<svg
  width="512" height="512" viewBox="0 0 512 512"
  xmlns="http://www.w3.org/2000/svg">
  <g
    class=""
    transform="translate(0,0)"
    style="">
    <path
      d="m186.438 20.56 -13.184 26.365 c6.8-.26 13.626-.488 20.47-.686 l3.84-7.68 h116.874 l3.77 7.54
         c6.838.187 13.658.408 20.456.66 l-13.102-26.2 H186.437 z
         m69.56 42.742
         c-45.757.056-91.452 1.566-135.38 4.363-3.24 50.58-8.4 100.987-.786 145.824 89.297 12.395 180.102 12.985 272.764-.054 7.055-30.988 5.117-84.68-1.04-145.89-43.974-2.893-89.73-4.3-135.558-4.244
         z m153.783 5.54 c6.42 64.12 9.113 119.825-1.135 155.22 l-1.61 5.56 -5.726.842
         c-98.8 14.528-195.613 13.81-290.605.002 l-6.285-.914 -1.246-6.23
         c-9.89-49.49-4.085-102.785-.664-154.42-4.89.354-9.765.72-14.602 1.107-8.596 58.568-9.39 116.957-.05 175.292 110.24 12.088 222.275 12.205 336.203-.01 8.502-57.83 8.29-116.25-.017-175.313-4.725-.4-9.485-.776-14.262-1.14
         z M255.966 92.3 c32.526-.025 65.067 2.746 97.574 8.39 l7.46 1.295 v7.572
         c0 15.554 1.683 35.105-12.69 50.25-9.912 10.444-25.655 17.337-51.31 20.585 v18.164 h-82 v-18.452
         c-23.992-3.37-39.352-10.175-49.363-20.185 C150.807 145.093 151 125.56 151 109.56 v-7.594 l7.484-1.278
         c32.444-5.54 64.955-8.362 97.48-8.386 z m.012 17.994
         c-28.96.022-57.913 2.444-86.858 6.996.265 12.28 1.635 22.296 9.243 29.904 5.914 5.914 16.952 11.416 36.637 14.582
         v-29.22 h82 v29.51
         c21.367-3.115 32.66-8.755 38.254-14.65 7.033-7.41 7.696-17.502 7.73-30.124-29-4.63-58.006-7.02-87.007-6.998
         z M233 150.56 v30 h46 v-30 h-46 z m209.674 92.42 a618.941 618.941 0 0 1-1.61 10.87
         c.214 2.352.42 4.706.63 7.06 L471 290.213 v-22.24 l-28.326-24.995 z
         m-373.485.12 L41 267.973 v22.24 l29.318-29.318 c.205-2.327.406-4.655.616-6.982
         a542.428 542.428 0 0 1-1.745-10.813 z m354.634 20.397 a1637.453 1637.453 0 0 1-30.824 2.967 v74.095 h16 v66
         h-16 v80.615 c10.318-.633 20.63-1.313 30.928-2.082 9.445-74.01 6.478-147.698-.104-221.596 z
         m-335.576.03 C81.725 338.09 78.58 412.1 88.06 485.1 c10.324.79 20.638 1.504 30.94 2.145 V406.56 h-16 v-66
         h16 v-74.024 a1537.138 1537.138 0 0 1-30.752-3.01 z m286.752 4.4 c-10.014.76-20.014 1.424-30 1.992 v70.64
         h30 v-72.632 z m-238 .085 v72.547 h30 v-70.55 a1557.276 1557.276 0 0 1-30-1.997 z
         m190 2.825 c-47.65 2.173-94.984 2.19-142 .078 v19.314
         c23.95-5.165 47.8-7.652 71.516-7.59 23.638.06 47.145 2.654 70.484 7.626 v-19.43 z
         M68.05 288.62 41 315.67 v56.89 h23.06 c.376-27.987 1.88-55.975 3.99-83.94 z
         m375.948.047 c2.12 27.872 3.61 55.83 3.957 83.892 H471 v-56.89 l-27.002-27.003 z
         m-187.52 11.95 c-23.68-.063-47.487 2.577-71.478 8.052 v31.89 h16 v18.443 c17.033 5.346 31.73 8.493 46 9.426
         v-2.87 h18 v2.868 c14.27-.932 28.967-4.08 46-9.425 V340.56 h16 v-31.866
         c-23.42-5.267-46.907-8.016-70.523-8.078 z M121 358.558 v30 h22 v-23 h18 v23 h22 v-30 h-62 z
         m208 0 v30 h22 v-23 h18 v23 h22 v-30 h-62 z M201 377.8 v28.76 h-16 v15.857
         c48.528 10.865 95.713 10.664 142 .045 V406.56 h-16 V377.8 c-16.332 4.747-31.283 7.52-46 8.326 v11.433 h-18
         v-11.434 c-14.717-.806-29.668-3.58-46-8.326 z M41 390.56 v14 h23.14 c-.09-4.667-.143-9.334-.163-14 H41 z
         m407.012 0 a934.78 934.78 0 0 1-.18 14 H471 v-14 h-22.988 z
         M137 406.56 v19.798 c6.137 7.214 11.222 9.77 14.934 9.844 3.734.075 8.697-2.122 15.066-9.79 V406.56 h-6 v7
         h-18 v-7 h-6 z m208 0 v19.798 c6.137 7.214 11.222 9.77 14.934 9.844 3.734.075 8.697-2.122 15.066-9.79
         V406.56 h-6 v7 h-18 v-7 h-6 z m-304 16 v35.154
         c5.596 5.51 8.677 8.25 11.846 9.306 2.454.818 7.713 1.15 15.045 1.317-1.544-15.25-2.586-30.51-3.204-45.778
         H41 z m406.27 0
         c-.628 15.224-1.674 30.483-3.21 45.78 7.358-.168 12.635-.5 15.094-1.32 3.17-1.056 6.25-3.795 11.846-9.306
         V422.56 h-23.73 z M185 440.842 v49.498 c47.55 1.51 94.877 1.446 142-.074 V440.9
         c-46.316 10.03-93.74 10.185-142-.057 z m-48 9.123 v38.318 c10.01.54 20.01 1.008 30 1.408 v-39.678
         c-4.86 2.786-10.01 4.293-15.43 4.184-5.192-.104-10.036-1.624-14.57-4.232 z
         m208 0 v39.654 c10.01-.403 20.01-.878 30-1.412 v-38.194
         c-4.86 2.786-10.01 4.293-15.43 4.184-5.192-.104-10.036-1.624-14.57-4.232 z"
      fill="#fff"
      fill-opacity="1">
    </path>
  </g>
</svg>