<svg
  width="512" height="512" viewBox="0 0 512 512"
  xmlns="http://www.w3.org/2000/svg">
  <g
    class=""
    transform="translate(0,0)"
    style="">
    <path
      d="M222.776 64.76 a16.1 16.1 0 0 1 4.22.56 c8.45 2.29 13.88 11.15 14.57 22 l-25.78 6 21.89 13.86
         c-4.93 10.47-13.67 17.3-22.34 17.3 a16.1 16.1 0 0 1-4.22-.56
         c-11.68-3.16-17.59-18.85-13.2-35 3.87-14.26 14.43-24.16 24.86-24.16 z
         m-20.29-9.44 a38.78 38.78 0 0 1 9.18-4.65
         c-5.47-4.23-12.06-8.82-15.9-9.73-27.8-6.55-28.34 34.41-49.08 15.35 16.77 30.56 35.36-12.18 55.8-.96 z
         m54 115.56 c-6.437-14.24-23.208-20.557-37.44-14.1 l23.34 51.55 c14.246-6.438 20.57-23.21 14.12-37.45 z
         m-69.52 35 -21.72-6.66 -60.94 31 7.16 14.07 z m29.88-65.41 h-1.53 c-2.836.002-5.66-.37-8.4-1.11
         a32.64 32.64 0 0 1-14.27-8.23 l-19.49 53.78 47.69 14.63 -10.68-23.59 -14-2.64 9.69-7 -8.01-17.51
         s17.52-7.83 19-8.33 z m-132.65 143
         c-64.72-46.18 42-97.32-47.05-105.87 59.27 26.57-49.43 44.81-10.25 97.71 7.49 10.11 34.76 24.95 49.64 32.56
         a78.51 78.51 0 0 1 7.7-24.38 z m132.79-63.26 2.31-4.42 -10.29-3.15 -49.91 25.39 68.65 26.47 -48.34 40.09
         40.63 26.55 -6.5-23.93 45.41-49 z m13.73-82 c4.898.003 9.76.82 14.39 2.42 l41.79-21.22
         a184.67 184.67 0 0 0-35.66-3.51 c-5.68 11-14.35 19-24.17 22.51 1.21-.09 2.43-.16 3.65-.16 z
         m182 124.37 h-4.15 c-5.37 0-11.36-.21-17.77-.63 l12.66 18 25-7.33 s-1.13-4.55-2.74-11.23
         a82.78 82.78 0 0 1-13.04 1.23 z m-138.97-46.37 c13.84-22.89 46.76-66.73 96-66.73 16.79 0 35.49 5.1 56 17.86
         l-11 19.83 .21 21.93 c-.43 3.25 3.4 21 7.08 36.9-6.65 1.15-23 1-43.18-1 l-5.68-8.1
         c-16.16-9.55-28.75-15.76-28.75-15.76 s.91 7.77 1.22 19.23 c-23.06-4.18-46.85-10.67-64.84-20.13
         a81.992 81.992 0 0 1-7.06-4.03 z m120.1-18.38
         c0 4.678 5.655 7.02 8.963 3.712 3.306-3.307.964-8.962-3.714-8.962 a5.25 5.25 0 0 0-5.25 5.25 z
         m-132.64-47.42 a44.15 44.15 0 0 1 9.43 12.91 l223.21-123.4 v-9.4 z
         m76.17 154.12 c5.64-14.72 7.68-32.58 8.2-48 a325.89 325.89 0 0 1-49-12.25 151.31 151.31 0 0 1-30.12-13.81
         l13.78 96.66 -129 17.14 -10.39-87.05 c-4.26 1.77-8.45 3.64-12.54 5.64-58.81 28.68-29.46 96.18-29.46 96.18
         l-25 49.21 30.11 54.35 v18.81 h33.9 l-15.74-22.83 -14.48-52.57 48.87-46.4
         c27.89 1.26 102.44-11.49 134.52-17 l83 4.55 22.88 29.29 -16.85 12.55 29.55 13.9 9.37-18.45 -19.23-49.28 z
         m-51.22-131.12 -11.31 5.72 a44.08 44.08 0 0 1-.07 7.38 c3.46-4.32 7.23-8.75 11.38-13.1 z
         m31.69 231.92 -5-45.44 -20.89-1.14 c-6.2 1.06-13.11 2.22-20.44 3.43 l21.46 47.74 17.68 54.56 -.63 17 h31.67
         l-9.65-17.83 z m-140.38 19.45 36.79-53.82 c-21.33 2.95-51.31 5.07-51.47 5.07 l2.93 7.61 -19.1 41.87
         47 44.07 v11.75 h28.65 l-11.35-12.92 z"
      fill="#fff"
      fill-opacity="1">
    </path>
  </g>
</svg>