<svg
  width="512" height="512" viewBox="0 0 512 512"
  xmlns="http://www.w3.org/2000/svg">
  <g
    class=""
    transform="translate(0,0)"
    style="">
    <path
      d="M256.883 29.7 241.11 51.554 l-23-14.06 -6.202 26.224 -26.63-4.193 4.308 26.604 -26.21 6.317 14.165 22.93
         -21.794 15.86 L177.61 147 l-14.065 22.992 26.234 6.2 -4.194 26.624 26.613-4.308 6.316 26.2 22.937-14.16
         15.865 21.788 15.772-21.856 23 14.06 4.283-18.11 1.92-8.116 26.633 4.194 -4.31-26.606 26.21-6.314
         -14.166-22.928 21.797-15.86 -21.863-15.767 14.064-22.992 -26.234-6.2 4.19-26.624 -26.61 4.307 -6.318-26.2
         -22.936 14.16 -15.867-21.788 z m-.252 51.68
         a49.657 49.64 0 0 1 49.657 49.64 49.657 49.64 0 0 1-49.656 49.638 49.657 49.64 0 0 1-49.655-49.638 49.657 49.64 0 0 1 49.656-49.64
         z m59.345 137.308 -8.082 34.164 -29.96-18.315 -9.747 13.504 c11.734 82.04 18.1 163.835 54.654 247
         l16.553-66.185 c10.51 13.815 27.52 26.056 49.656 33.092-31.075-77.557-42.77-158.987-54.714-240.37
         l-18.36-2.89 z m-117.37.253 -19.76 3.2
         c-11.916 81.194-23.63 162.428-54.632 239.807 22.136-7.036 39.147-19.277 49.658-33.092 l16.552 66.186
         c36.794-83.71 43.005-166.034 54.89-248.614 l-8.595-11.8 -29.88 18.442 -8.232-34.127 z"
      fill="#fff"
      fill-opacity="1">
    </path>
  </g>
</svg>