<svg
  width="512" height="512" viewBox="0 0 512 512"
  xmlns="http://www.w3.org/2000/svg">
  <g
    class=""
    transform="translate(0,0)"
    style="">
    <path
      d="m172.7 19.27 -25.4 25.46 L256 153.5 364.7 44.73 l-25.4-25.46 L256 102.5 l-83.3-83.23 z
         M44.73 147.3 l-25.46 25.4 L102.5 256 l-83.23 83.3 25.46 25.4 L153.5 256 44.73 147.3 z
         m422.47 0 L358.6 256 l108.6 108.7 25.4-25.4 -83.2-83.3 83.2-83.3 -25.4-25.4 z
         M256 358.5 147.3 467.3 l25.4 25.4 83.3-83.2 83.3 83.2 25.4-25.4 L256 358.5 z"
      fill="#fff"
      fill-opacity="1">
    </path>
  </g>
</svg>
