<svg
  width="512" height="512" viewBox="0 0 512 512"
  xmlns="http://www.w3.org/2000/svg">
  <g
    class=""
    transform="translate(0,0)"
    style="">
    <path
      d="M103.432 17.844 a86.782 86.782 0 0 0-3.348.08
         c-2.547.11-5.083.334-7.604.678-20.167 2.747-39.158 13.667-52.324 33.67-24.613 37.4 2.194 98.025 56.625 98.025.536 0 1.058-.012 1.583-.022
         v.704 h60.565 c-10.758 31.994-30.298 66.596-52.448 101.43 a283.192 283.192 0 0 0-6.29 10.406 l34.878 35.733
         -56.263 9.423 c-32.728 85.966-27.42 182.074 48.277 182.074 v-.002 l9.31.066
         c23.83-.57 46.732-4.298 61.325-12.887 4.174-2.458 7.63-5.237 10.467-8.42 h-32.446
         c-20.33 5.95-40.8-6.94-47.396-25.922-8.956-25.77 7.52-52.36 31.867-60.452 a55.552 55.552 0 0 1 17.565-2.834
         v-.406 h178.33 c-.57-44.403 16.35-90.125 49.184-126 23.955-26.176 42.03-60.624 51.3-94.846 l-41.225-24.932
         38.272-6.906 -43.37-25.807 h-.005 l.002-.002 .002.002 52.127-8.85 c-5.232-39.134-28.84-68.113-77.37-68.113
         C341.14 32.26 222.11 35.29 149.34 28.496 c-14.888-6.763-30.547-10.723-45.908-10.652 z
         m.464 18.703 c13.137.043 27.407 3.804 41.247 10.63 l.033-.07 c4.667 4.735 8.542 9.737 11.68 14.985 H82.92
         l10.574 14.78
         c10.608 14.83 19.803 31.99 21.09 42.024.643 5.017-.11 7.167-1.814 8.836-1.705 1.67-6.228 3.875-15.99 3.875-40.587 0-56.878-44.952-41.012-69.06
         C66.238 46.64 79.582 39.22 95.002 37.12 a64.146 64.146 0 0 1 8.894-.573 z
         M118.5 80.78 h46.28 c4.275 15.734 3.656 33.07-.544 51.51 H131.52
         c1.9-5.027 2.268-10.574 1.6-15.77-1.527-11.913-7.405-24.065-14.62-35.74 z
         m101.553 317.095
         c6.44 6.84 11.192 15.31 13.37 24.914 3.797 16.736 3.092 31.208-1.767 43.204-4.526 11.175-12.576 19.79-22.29 26
         h237.19 c14.448 0 24.887-5.678 32.2-14.318 7.312-8.64 11.2-20.514 10.705-32.352
         a47.733 47.733 0 0 0-2.407-13.18 l-69.91-8.205 42.017-20.528 c-8.32-3.442-18.64-5.537-31.375-5.537 H220.053 z
         m-42.668.506 a36.999 36.999 0 0 0-3.457.153 34.825 34.825 0 0 0-7.824 1.63
         c-15.11 5.02-25.338 21.54-20.11 36.583 3.673 10.57 15.347 17.71 25.654 13.938 l1.555-.57 h43.354
         c.946-6.36.754-13.882-1.358-23.192-3.71-16.358-20.543-28.483-37.815-28.54 z"
      fill="#fff"
      fill-opacity="1">
    </path>
  </g>
</svg>