<svg
  width="512" height="512" viewBox="0 0 512 512"
  xmlns="http://www.w3.org/2000/svg">
  <g
    class=""
    transform="translate(0,0)"
    style="">
    <path
      d="M121.844 18.22
         c-10.248 46.5-5.753 86.598 7.562 121 31.722 35.503 74.78 60.367 119.5 84.405-15.144-14.727-29.5-29.294-41.97-44.188
         h72.94 c5.318-6.197 10.267-12.425 14.812-18.687 H192.5 c-4.946-7.035-9.397-14.18-13.25-21.5
         a176.98 176.98 0 0 1-5.656-11.75 h140.594 c2.73-6.087 5.032-12.27 6.875-18.688 h-154.22
         c-3.453-12.16-5.326-25.127-5.218-39.437 h164.25 c-.176-5.948-.708-12.168-1.656-18.72 H162.843
         c1.202-10.093 3.29-20.866 6.437-32.436 h-47.436 z m216.03 0 c10.033 36.836 9.616 65.44 2.47 90.593 h-.156
         c-3.215 13.34-8.158 25.723-14.375 37.53-15.708 29.833-40.195 56.197-67.094 82.532 12.75 6.806 25.567 13.607 38.25 20.625 26.73-26.167 52.8-54.185 71.03-88.813 20.463-38.87 29.83-85.945 17.375-142.468
         h-47.5 z m-129 253.81 c-20.338 21.212-39.452 44.344-53.936 71.69-21.326 40.26-31.11 89.958-19.438 149.467
         h45.625 c-5.036-22.15-6.48-42.845-5.03-62 .458-7.468 1.38-14.606 2.75-21.468 H179
         a172.432 172.432 0 0 1 4.813-18.69 c.024-.07.038-.145.062-.217 a170.48 170.48 0 0 1 11.188-26.875
         c14.96-28.73 35.86-51.34 56.5-71.813-14.107-6.74-28.446-13.326-42.688-20.094 z
         m47.595 22.47 c14.437 14.55 27.88 29.196 39.186 44.563 h-61.812 c-4.798 5.982-9.337 12.195-13.53 18.687
         h87.75 c1.445 2.45 2.832 4.94 4.155 7.438 4.388 8.287 8.147 16.85 11.155 25.843 H203.5
         c-2.184 5.98-4.007 12.218-5.47 18.69 h130.314 c2.428 12.173 3.525 25.21 2.937 39.436 H194.19
         c.137 6.05.58 12.28 1.375 18.688 h134.062 c-1.072 8.062-2.65 16.496-4.75 25.344 h46.813
         c9.533-48.618 4.736-90.682-8.97-126.407-28.443-31.848-66.276-52.97-106.25-72.28 z"
      fill="#fff"
      fill-opacity="1">
    </path>
  </g>
</svg>
