<svg
  width="512" height="512" viewBox="0 0 512 512"
  xmlns="http://www.w3.org/2000/svg">
  <g
    class=""
    transform="translate(0,0)"
    style="">
    <path
      d="M90.53 23
         c-18.345 0-36.688 7.002-50.686 21-27.996 27.996-27.994 73.38 0 101.375 21.776 21.776 54.08 26.603 80.53 14.5
         l53.69 53.688 c-21.425 19.696-44 38.257-67.44 55.937 l30.126 30.125 c18.734-22.545 37.953-44.474 57.844-65.53
         l169.594 169.593 c-51.845 40.444-120.866 53.838-192.813 42.562 L173 424.906 72.47 404.47 l95.405 88.405 1.97-26
         c86.593 36.97 177.603 34.61 241.343-11.75 l63.062 21.313 -21.47-63.594
         c44.61-63.62 46.408-153.412 9.908-238.875 l26.03-1.97 -88.406-95.375 20.438 100.53 21.344-1.624
         c11.278 71.983-2.168 141.017-42.656 192.876 l-169.782-169.75 c21.075-20.34 42.93-39.665 65.78-57.72
         l-30.123-30.124 c-17.015 24.154-35.673 46.66-55.688 67.813 l-53.97-53.97
         C167.834 98.183 163.032 65.814 141.22 44 c-14-13.998-32.343-21-50.69-21 z
         m0 27.03
         c11.434.002 22.872 4.34 31.595 13.064 17.447 17.447 17.446 45.742 0 63.187-17.446 17.447-45.71 17.447-63.156 0-17.447-17.444-17.448-45.74 0-63.186
         C67.69 54.37 79.097 50.03 90.53 50.03 z"
      fill="#ffffff"
      fill-opacity="1">
    </path>
  </g>
</svg>