<svg
  width="512" height="512" viewBox="0 0 512 512"
  xmlns="http://www.w3.org/2000/svg">
  <g
    class=""
    transform="translate(0,0)"
    style="">
    <path
      d="m203.97 23 -18.032 4.844 11.656 43.468 c-25.837 8.076-50.32 21.653-71.594 40.75 L94.53 80.594 l-13.218 13.22
         31.376 31.374 c-19.467 21.125-33.414 45.53-41.813 71.343 l-42.313-11.343 -4.843 18.063 42.25 11.313
         c-6.057 27.3-6.157 55.656-.345 83 L23.72 308.78 l4.843 18.064 41.812-11.22 a193.261 193.261 0 0 0 31.25 59.876
         l-29.97 52.688 -16.81 29.593 29.56-16.842 52.657-29.97 a193.306 193.306 0 0 0 60.094 31.407 l-11.22 41.844
         18.033 4.81 11.218-41.905 a195.701 195.701 0 0 0 83-.375 l11.312 42.28 18.063-4.81 -11.344-42.376
         c25.812-8.4 50.217-22.315 71.342-41.78 l31.375 31.373 13.22-13.218 -31.47-31.47
         a193.26 193.26 0 0 0 40.72-71.563 l43.53 11.657 4.813-18.063 -43.625-11.686 a195.693 195.693 0 0 0-.344-82.063
         l43.97-11.78 -4.813-18.063 L440.908 197 c-6.73-20.866-17.08-40.79-31.032-58.844 l29.97-52.656 16.842-29.563
         -29.593 16.844 -52.656 29.97 c-17.998-13.875-37.874-24.198-58.657-30.906 l11.783-44 L309.5 23 l-11.78 43.97
         c-27-5.925-55.02-6.05-82.064-.376 L203.97 23 z m201.56 85 L297.25 298.313 l-.75.437 -40.844-40.875
         -148.72 148.72 -2.186 1.25 109.125-191.75 41.78 41.78 L405.532 108 z
         m-149.686 10.594 c21.858 0 43.717 5.166 63.594 15.47 l-116.625 66.342 -2.22 1.28 -1.28 2.22 -66.25 116.406
         c-26.942-52.04-18.616-117.603 25.03-161.25 26.99-26.988 62.38-40.468 97.75-40.468 z
         m122.72 74.594 c26.994 52.054 18.67 117.672-25.002 161.343-43.66 43.662-109.263 52.005-161.312 25.033
         l116.438-66.282 2.25-1.25 1.25-2.25 66.375-116.592 z"
      fill="#ffffff"
      fill-opacity="1">
    </path>
  </g>
</svg>