<svg
  width="512" height="512" viewBox="0 0 512 512"
  xmlns="http://www.w3.org/2000/svg">
  <g
    class=""
    transform="translate(0,0)"
    style="">
    <path
      d="M256 68.8 c-65.9 0-125.2 18.6-167.65 47.9-42.5 29.3-67.7 68.9-67.7 111.9 s25.2 82.5 67.7 111.9
         C130.7 369.8 190.1 388.4 256 388.4 c65.8 0 125.3-18.6 167.8-47.9 42.3-29.4 67.6-68.9 67.6-111.9
         s-25.3-82.6-67.6-111.9 C381.3 87.39 321.9 68.8 256 68.8 z
         m3 21.2 -.2 18.7 c-6-.1-12 .2-18 .5 l-1.2-18.7 c6.5-.35 12.9-.5 19.4-.5 z
         m19 .6 c6.4.37 12.9.93 19.3 1.79 L295 110.9 c-5.9-1-11.3-1.1-17.9-1.7 z
         m-57.6 1.6 2.3 18.6 c-6 .6-12 1.7-18 2.7 l-3.3-18.4 c6.6-1.21 13.5-2.13 19-2.9 z
         m96.1 3.19 c6.3 1.28 12.6 2.57 18.8 4.41 l-4.8 18 c-5.8-1.5-11.8-2.8-17.7-3.9 z
         M187 117.3 c-5.9 1.6-12 3.4-17.3 5.1 l-6.3-17.7 c6-1.9 13.3-4.2 19.3-5.83 1.6 6.03 2.9 12.53 4.3 18.43 z
         m166.7-11.9 c6.1 2.1 12.3 4.3 18.2 6.9 l-7.4 17.2 c-5.5-2.5-11.2-4.4-16.8-6.5 z
         m-208 6.1 7.3 17.1 c-6.1 2.8-10.8 4.8-16.2 7.7 l-8.7-16.6 c6.4-3.5 11.2-5.5 17.6-8.2 z
         m243.6 9.2 .1.1 c5.9 3.3 12 6.7 16.8 10 l-10.3 15.6 c-4.9-3.3-10-6.3-15.2-9.1 l-.1-.1 c3.1-5.4 5.8-11 8.7-16.5
         z m-278 8.8 c3.3 5.3 6.6 10.5 10.1 15.7-5 3.2-9.7 6.7-14.3 10.4 l-11.75-14.5 c6.55-7 12.85-10.3 15.95-11.6 z
         M422 142.6 c5 4.4 10.1 8.6 14.5 13.7 l-13.8 12.6 c-4.3-4.3-8.6-8.7-12.7-12 z
         M94.25 167.5 c-4.09 4.4-8.02 9.2-11 13.4 L68.05 170 c4.8-6.1 8.08-10.7 12.9-15.5 3.62 3.9 9.01 8.9 13.3 13 z
         m172.25-8.7 c13.4 23.7 25.1 48.6 37.3 73 l-37.3-44.1 -27.4 32.3 -15.7-10.2 c14.4-17 28.7-34 43.1-51 z
         m-141.7 11.8 c33.8 17 66 40.5 98 61.1 l-68.3-28.4 26.4 85.4 85.6 6.3 85.9-6.3 -9.4 19.4 -76.5 5.6 -99.6-7.3 z
         m284.2.1 c-17.8 38.5-36.6 76.7-55.1 114.9 l25.5-82.4 -57.2 23.6 -8.5-16.8 z
         m39.9 1.3 c3.7 5.7 7.1 12 9.9 17.6 l-17 7.8 c-2.3-5.3-5.4-10.1-8.3-15 z
         M57.75 187.7 l17 7.8 c-2.49 5.1-4.18 10.5-5.6 16 l-17.97-4.8 c1.75-7.9 3.56-12.8 6.57-19 z
         m407.35 21.6 c1.1 7.2 2.1 14 2.1 20.7 l-18.7-.3 c-.4-5.7-.6-11.6-1.7-16.4 6.1-1.3 12.2-2.7 18.3-4 z
         M67.05 227.9 c.1 5.8.69 11.5 1.6 16.4 l-18.3 3.9 c-.89-7-1.66-14.3-1.7-20.7 4.5.1 12.75.3 18.4.4 z
         m379.55 18.5 18.2 3.9 c-1.5 6.9-4.1 14.1-6.6 19.6 l-17-7.8 c2.3-5.5 4.1-10.9 5.4-15.7 z
         M73.55 260.5 c2.48 5.2 5.2 10.3 8 14.8 l-15.5 10.4 c-4.19-6.4-7.08-12-10.1-18 5.4-2.5 11.63-5 17.6-7.2 z
         M432.7 277 l15.5 10.5 c-3.9 5.7-8.6 11.4-12.5 15.8-4.8-4.6-9-8.6-13.7-12.9 v-.1 c4.1-4.5 7.8-9.2 10.7-13.3 z
         m-328 24 -11.95 14.3 c-5.21-4.3-10.4-9.4-14.5-13.8 l13.8-12.6 c4.35 4.1 8.65 8.8 12.65 12.1 z
         m-83.15-3.5 c1.7 12.9 5.6 25.3 11.5 37.1 v-20.3 c-4.2-5.4-8-11-11.5-16.8 z
         m468.85 0 c-4.4 7.5-9.6 14.7-15.3 21.5 v22.7 c8.1-14 13.3-28.8 15.3-44.2 z
         m-81.1 4.8 11.7 14.5 c-6.1 4.9-9.9 7.7-15.8 11.6 l-10.3-15.6 c5-3.2 9.7-6.8 14.4-10.5 z
         m-290.5 9.3 c4.9 3.4 10.1 6.4 15.3 9.3 l-9 16.4 c-5.8-3-11.2-6.7-16.7-10.1 z
         m260.8 10.2 8.7 16.6 c-5.7 3.1-11.5 5.7-17.5 8.3 l-7.4-17.2 c5.7-2.3 11.5-5.2 16.2-7.7 z
         M150 328.7 c5.4 2.5 11.2 4.3 16.8 6.5 l-6 17.7 c-6.1-2-12.1-4.6-18.1-7 z
         m-98.25 6.2 v27.8 c5.1 5.9 10.7 11.7 16.8 17.1 v-30.6 c-5.9-4.6-11.5-9.3-16.8-14.3 z
         m294.85 1 6.1 17.7 c-6.3 2.1-13.1 3.9-18.6 5.5 l-4.8-18.1 c6.2-1.4 11.9-3.6 17.3-5.1 z
         m109.8 2.5 c-5.3 4.7-10.8 9.3-16.7 13.6 v31.1 c6-5.1 11.6-10.5 16.7-16.1 z
         M184 340.5 c5.8 1.5 11.7 2.8 17.6 4 l-3.5 18.4 c-6.4-1.2-12.6-2.8-18.8-4.4 z
         m127.7 4.4 3.6 18.4 c-6.6 1.1-13.4 2.3-19.1 2.9 l-2.3-18.5 c6.4-1.1 12-2 17.8-2.8 z
         m-92.2 2.5 c6 .8 12 1.4 18.1 1.8 l-1.3 18.6 c-6.4-.4-12.8-1-19.2-1.8 z
         m56.4 1.9 1 18.7 c-6.8.5-14.3.8-21.4.5 l.1-18.6 c6.8 0 13.5-.2 20.3-.6 z
         M87.25 362.1 v32.5 c6.4 4.5 13.55 8.9 19.45 12.2 v-33.7 c-6.75-3.4-13.25-7.1-19.45-11 z
         M421 364.4 c-6.3 3.8-12.8 7.3-19.6 10.6 v33.9 c6.9-3.7 13.4-7.6 19.6-11.7 z
         m-295.6 17.4 v34.5 c6.7 3 13.7 5.9 20.9 8.5 v-35.1 c-7.1-2.4-14.1-5-20.9-7.9 z
         m257.3 1.6 c-6.8 2.7-13.8 5.2-20.9 7.5 v35.2 c7.2-2.5 14.2-5.2 20.9-8.1 z
         M165 395.3 v35.5 c6.6 1.9 13.4 3.6 20.3 5.1 v-35.8 c-6.9-1.4-13.7-3-20.3-4.8 z
         m178.1 1 c-6.6 1.7-13.4 3.2-20.3 4.5 v35.8 c6.9-1.4 13.7-2.9 20.3-4.7 z
         m-139.1 7 v36 c6.8 1.1 13.8 1.9 20.9 2.6 v-36.2 c-7.1-.6-14.1-1.4-20.9-2.4 z
         m100.3.5 c-7.4 1-14.8 1.8-22.4 2.3 v36.2 c7.6-.6 15-1.4 22.4-2.4 v-36.1 z
         m-60.7 3 V443 c7 .3 12.5.2 19.5.2 V407 c-6.5 0-13.8.1-19.5-.2 z"
      fill="#ffffff"
      fill-opacity="1">
    </path>
  </g>
</svg>