<svg
  width="512" height="512" viewBox="0 0 512 512"
  xmlns="http://www.w3.org/2000/svg">
  <g
    class=""
    transform="translate(0,0)"
    style="">
    <path
      d="M256 15.99 c-8.8 0-16 14.33-16 32 0 8.47 1.7 16.59 4.7 22.57-4.7.21-9 1.16-13.7 2.43 v15.85
         c17.1-2.42 34.1-2.31 50 0 V72.99 c-4.5-1.35-9.4-2.11-13.7-2.43 3-5.98 4.7-14.1 4.7-22.57 0-17.67-7.2-32-16-32 z
         M86.23 86.28 c-6.25 6.25-1.19 21.42 11.3 33.92 6.07 6 12.97 10.6 19.37 12.7-3.2 3.5-5.6 7.2-8 11.4 l11.3 11.2
         c9.9-13.4 21.9-25.4 35.3-35.3 l-11.2-11.3
         c-4.2 2.2-8 5.2-11.4 8-2.1-6.4-6.7-13.3-12.7-19.3-8-6.21-24.55-20.4-33.97-11.32 z
         m305.57 11.3 c-6 6.02-10.6 12.92-12.7 19.32-3.5-3.2-7.2-5.6-11.4-8 l-11.2 11.3 c13.4 9.9 25.4 21.9 35.3 35.3
         l11.3-11.2
         c-2.2-4.2-5.2-8-8-11.4 6.3-2.2 13.2-6.7 19.2-12.7 12.5-12.5 17.6-27.69 11.3-33.93-9.9-7.87-28 5.62-33.8 11.31 z
         m-142.3 7.52
         c-36.8 1.6-70.2 16.3-95.6 39.6-3.3 3.1-6.6 6.3-9.2 9.2-23.3 25.4-38 58.8-39.6 95.7 0 4.5-.2 9.1.1 13 1.5 36.8 16.2 70.2 39.5 95.6 3.1 3.2 6.4 6.5 9.2 9.2 25.4 23.2 58.8 37.9 95.6 39.5
         h.2 c4.1.2 8.7 0 12.8 0 36.8-1.6 70.2-16.3 95.6-39.6 3.3-3.1 6.6-6.3 9.2-9.2 23.3-25.4 38-58.8 39.6-95.6 v-.2
         c.2-4.2 0-8.7 0-12.8-1.6-36.8-16.3-70.2-39.6-95.6-3.1-3.3-6.3-6.6-9.2-9.2-25.4-23.3-58.8-38-95.6-39.6-4.5-.2-9.1 0-13 0
         z m6.5 10.7 c4.4 0 8 3.6 8 8 s-3.6 8-8 8-8-3.6-8-8 3.6-8 8-8 z
         m6.9 28.4
         c25.7 1.6 49.1 11.8 67.3 27.9 3.4 3.1 6.7 6.3 9.7 9.7 16.1 18.2 26.3 41.6 27.9 67.4.4 4.6 0 9.2 0 13.7-1.6 25.7-11.8 49.1-27.9 67.3-3.1 3.4-6.3 6.7-9.7 9.7-18.2 16.1-41.6 26.3-67.4 27.9-4.6.1-9.2.4-13.7 0-25.7-1.6-49.1-11.8-67.2-27.9
         h-.1
         c-3.4-3-6.6-6.3-9.6-9.7-16.1-18.1-26.4-41.5-28-67.3-.1-4.6-.4-9.1 0-13.6.5-25.8 13.3-50.5 27.9-67.5 3.1-3.4 6.3-6.7 9.7-9.7 18.2-16.1 41.6-26.3 67.4-27.9 4.6-.4 9.2 0 13.7 0
         z m-94.8 12.6 c3.1 3.1 3.1 8.2 0 11.3-3.1 3.1-8.2 3.1-11.3 0-3.1-3.1-3.1-8.2 0-11.3 3.5-2.9 8.2-2.9 11.3 0 z
         m187.1 0 c3.1 3.1 3.1 8.2 0 11.3-3.1 3.1-8.2 3.1-11.3 0-3.1-3.1-3.1-8.2 0-11.3 3.5-2.9 8.2-2.9 11.3 0 z
         M240 163.3 v8.7
         c2.5 3.2 4.4 5.5 7.8 6.8-.7 12.4-1.6 25.1-2.8 37.7 7.4-1.9 15.2-2 22.1.1-1.2-12.7-2.2-25.4-2.9-37.9 7.9-2.1 7.8-8.6 7.8-15.4-11-1.7-21.8-1.6-32 0
         z m-38.3 15.8 c-8.7 6.2-16.4 13.9-22.6 22.6 l6.2 6.2
         c4 .5 7 .8 10.3-.7 8.3 9.3 16.6 18.9 24.7 28.7 3.7-6.5 9.1-11.9 15.7-15.6-9.9-8.1-19.5-16.4-28.8-24.7 1.8-3.1 1.3-6.7.7-10.3
         z m108.6 0 -6.2 6.2
         c-.7 4-.8 6.9.6 10.3-9.2 8.3-18.9 16.6-28.7 24.7 6.5 3.7 11.9 9.1 15.6 15.7 8.1-9.9 16.5-19.5 24.7-28.8 3.2 1.7 6.7 1.3 10.3.7
         l6.2-6.2 c-6.2-8.7-13.8-16.4-22.5-22.6 z M423.1 231 c2.5 17.1 2.3 34.1 0 50 H439
         c1.5-4.5 2-9.4 2.3-13.7 6 3 14.2 4.7 22.7 4.7 17.7 0 32-7.2 32-16 s-14.3-16-32-16
         c-8.5 0-16.7 1.7-22.7 4.7-.1-4.7-1-9-2.3-13.7 z m-350.07.1
         c-1.35 4.5-2.11 9.2-2.4 13.6-6.02-3-14.15-4.6-22.6-4.6-17.67 0-32 7.2-32 16 s14.33 16 32 16
         c8.48 0 16.61-1.7 22.6-4.7.15 4.7 1.12 9 2.4 13.7 h15.8 c-2.38-17.1-2.5-34.1 0-50 z
         M256 233 c-12.9 0-23 10.2-23 23 s10.1 23 23 23 c12.8 0 23-10.2 23-23 s-10.2-23-23-23 z
         m84 7
         c-3.2 2.5-5.5 4.4-6.8 7.8-12.4-.7-25.1-1.6-37.7-2.8 1.9 7.5 1.9 15.2 0 22.1 12.6-1.2 25.2-2.2 37.7-2.9 1 3.5 3.8 5.7 6.8 7.8
         h8.7 c1.7-11 1.6-21.8 0-32 z m-176.7.1 c-1.7 10.9-1.5 21.8 0 32 h8.7
         c3.1-2.5 5.6-4.3 6.7-7.8 12.5.6 25.1 1.6 37.8 2.8-2-7.5-2-15.2-.1-22.1-12.6 1.2-25.3 2.1-37.7 2.8-.9-3.5-3.8-5.7-6.7-7.7
         z m224.9 7.9 c4.4 0 8 3.6 8 8 s-3.6 8-8 8-8-3.6-8-8 3.6-8 8-8 z
         m-264.4.1 c4.4 0 8 3.6 8 8 s-3.6 8-8 8-8-3.6-8-8 3.6-8 8-8 z
         m167.9 28 c-3.7 6.5-9.1 11.9-15.7 15.6 9.9 8.1 19.5 16.4 28.8 24.7-1.8 3.1-1.3 6.7-.7 10.3 l6.2 6.2
         c8.7-6.2 16.4-13.9 22.6-22.6 l-6.2-6.2 c-4-.5-7-.8-10.3.7-8.3-9.3-16.6-18.9-24.7-28.7 z
         m-71.4 0 c-8.1 9.8-16.4 19.4-24.7 28.7-3.1-1.8-6.7-1.3-10.2-.7 l-6.3 6.2 c6.2 8.8 13.9 16.5 22.7 22.6 l6.2-6.2
         c.5-4 .8-7-.7-10.3 9.3-8.3 18.9-16.6 28.7-24.7-6.5-3.7-12-9.1-15.7-15.6 z
         m24.6 19.3 c1.2 12.7 2.2 25.4 2.9 37.9-3.5.8-5.8 3.8-7.8 6.7 v8.7 c11 1.7 21.8 1.6 32 0 V340
         c-2.5-3.2-4.4-5.5-7.8-6.8.7-12.4 1.6-25.1 2.8-37.7-7.7 1.3-15.8 1.7-22.1-.1 z
         m-76.7 48.5 c3.1 3.1 3.1 8.2 0 11.3-3.1 3.1-8.2 3.1-11.3 0-3.1-3.1-3.1-8.2 0-11.3 3.5-3 8.2-3 11.3 0 z
         m187 0 c3.1 3.1 3.1 8.2 0 11.3-3.1 3.1-8.2 3.1-11.3 0-3.1-3.1-3.1-8.2 0-11.3 3.5-3 8.3-3 11.3 0 z
         m36.6 12.6 c-9.9 13.4-21.9 25.4-35.3 35.3 l11.2 11.3
         c4.2-2.2 8-5.2 11.4-8 2.1 6.4 6.7 13.3 12.7 19.3 12.5 12.5 27.6 17.5 33.9 11.3 6.2-6.3 1.2-21.4-11.3-33.9-6-6-12.9-10.6-19.3-12.7 3.2-3.5 5.6-7.2 8-11.4
         z m-271.6 0 L109 367.7
         c2.3 4.1 5.1 8.2 8 11.4-6.4 2.1-13.3 6.7-19.37 12.7-12.47 12.5-17.52 27.6-11.3 33.9 6.24 6.3 21.47 1.2 33.97-11.3 6-6 10.6-12.9 12.7-19.3 3.5 3.2 7.2 5.6 11.4 8
         l11.2-11.2 c-13.5-10-25.4-21.9-35.4-35.4 z M256 380.2 c4.4 0 8 3.6 8 8 s-3.6 8-8 8-8-3.6-8-8 3.6-8 8-8 z
         m-25 43 V439 c4.5 1.4 9.4 2.1 13.7 2.4-3 6-4.7 14.1-4.7 22.6 0 17.7 7.2 32 16 32 s16-14.3 16-32
         c0-8.5-1.7-16.6-4.7-22.6 4.7-.2 9-1.1 13.7-2.4 v-15.9 c-17.1 2.5-34.1 2.4-50 .1 z"
      fill="#ffffff"
      fill-opacity="1">
    </path>
  </g>
</svg>