<svg
  width="512" height="512" viewBox="0 0 512 512"
  xmlns="http://www.w3.org/2000/svg">
  <g
    class=""
    transform="translate(0,0)"
    style="">
    <path
      d="M126.7 81.85 57.46 159 l84.64 63.6 c-4.8-46.9-9.8-93.8-15.4-140.75 z
         m160.4 9.2 -30.2 2 h-.1 l1.4 23.45 c12.2-.4 24.8 1.6 37.6 6.1 l5.7-.4 z
         m-42.5 2.6 -29.9 1.9 -9.6 33.15 6.1-.5 c11.3-6 22.9-9.6 34.8-11.1 l-1.2-23.45 z
         m60.3 40.05 -45.6 3.1 h-.1 l4 68.2 c26.1-1.3 52.4 2.3 79 10.2 z
         m-58.3 3.6 -43.9 3 -14.6 46.9 36.9 22.6 c8.4-1.9 16.8-3.3 25.2-4.1 l-3.5-68.4 z
         M53.53 173.5 19.99 366.3 l131.91 4 c-4-42.7-4.2-85.4-8.5-128-30.1-22.4-60.01-45.8-89.87-68.8 z
         m114.77 17 2.1 178.7 88.3 1.1 -10.1-128.6 z m144.4 33.4 17.9 29.6 82.8 80.7 71-3.8 z
         m-24 9.8 5.7 25.2 52.3 97 70.1 2.6 z m-23.4 3.4 L278 376.4 l53.1-8.2 z
         m232.2 107.1 -131.1 40.9 -1.3 15.8 L498 358.5 z m-144.3 40.3 -16.2.3 -3.3 9.1 c-100 7.9-190.9 11.1-288.67 9.9
         l13.02 13.4 c6.11 3.7 19.79 4.2 20.93 13 H345.8 c3.7-13.3 5.3-32.4 7.4-45.7 z"
      fill="#ffffff"
      fill-opacity="1">
    </path>
  </g>
</svg>