<?xml version="1.0" encoding="UTF-8" standalone="no"?>
<!-- Created with Inkscape (http://www.inkscape.org/) -->

<svg
   version="1.1"
   id="svg1"
   width="381.54373"
   height="617.62531"
   viewBox="0 0 381.54373 617.62531"
   sodipodi:docname="attack-interaction.svg"
   inkscape:export-filename="attack-interaction.webp"
   inkscape:export-xdpi="300"
   inkscape:export-ydpi="300"
   inkscape:version="1.4.3 (0d15f75042, 2025-12-25)"
   xmlns:inkscape="http://www.inkscape.org/namespaces/inkscape"
   xmlns:sodipodi="http://sodipodi.sourceforge.net/DTD/sodipodi-0.dtd"
   xmlns="http://www.w3.org/2000/svg"
   xmlns:svg="http://www.w3.org/2000/svg">
  <defs
     id="defs1">
    <clipPath
       clipPathUnits="userSpaceOnUse"
       id="clipPath2">
      <path
         d="m 111.75193,-184.16792 8.99999,4.6e-4 -0.001,8.99997 -8.99999,-4.6e-4 z"
         id="path2" />
    </clipPath>
    <clipPath
       clipPathUnits="userSpaceOnUse"
       id="clipPath4">
      <path
         d="m 236,144 h 13.33333 v 13.33333 H 236 Z"
         id="path4" />
    </clipPath>
    <clipPath
       clipPathUnits="userSpaceOnUse"
       id="clipPath7">
      <path
         d="m 195,-210.01601 v -9 h 9.00001 v 9 z"
         id="path7" />
    </clipPath>
    <clipPath
       clipPathUnits="userSpaceOnUse"
       id="clipPath9">
      <path
         d="m 103.887,470.84801 5.422,7.183 -7.184,5.422 -5.421998,-7.183 z"
         id="path9" />
    </clipPath>
    <clipPath
       clipPathUnits="userSpaceOnUse"
       id="clipPath11">
      <path
         d="m 350.02443,160.16339 7.1846,-0.002 0.002,7.18523 -7.18459,0.002 z"
         id="path11" />
    </clipPath>
    <clipPath
       clipPathUnits="userSpaceOnUse"
       id="clipPath13">
      <path
         d="m 128,626.66667 h 14.66667 v 16 H 128 Z"
         id="path13" />
    </clipPath>
    <clipPath
       clipPathUnits="userSpaceOnUse"
       id="clipPath15">
      <path
         d="m 285.9463,-266.32858 9.00001,-4.9e-4 -5.1e-4,8.99999 -9.00001,5e-4 z"
         id="path15" />
    </clipPath>
    <clipPath
       clipPathUnits="userSpaceOnUse"
       id="clipPath17">
      <path
         d="m 348,376 h 13.33333 v 13.33333 H 348 Z"
         id="path17" />
    </clipPath>
    <clipPath
       clipPathUnits="userSpaceOnUse"
       id="clipPath19">
      <path
         d="m 184.586,362.87501 7.219,5.375 -5.375,7.219 -7.219,-5.375 z"
         id="path19" />
    </clipPath>
    <clipPath
       clipPathUnits="userSpaceOnUse"
       id="clipPath21">
      <path
         d="m 292.58632,145.10359 7.21992,0.001 -10e-4,7.21992 -7.21992,-0.001 z"
         id="path21" />
    </clipPath>
    <clipPath
       clipPathUnits="userSpaceOnUse"
       id="clipPath23">
      <path
         d="m 238.66667,482.66667 h 16 v 14.66666 h -16 z"
         id="path23" />
    </clipPath>
    <clipPath
       clipPathUnits="userSpaceOnUse"
       id="clipPath25">
      <path
         d="m 246.31601,365.02301 -6.332,6.399 -6.398,-6.332 6.332,-6.399 z"
         id="path25" />
    </clipPath>
    <clipPath
       clipPathUnits="userSpaceOnUse"
       id="clipPath27">
      <path
         d="m 61.270816,-306.94875 6.39882,-1.8e-4 -3.18e-4,6.39831 -6.398819,1.8e-4 z"
         id="path27" />
    </clipPath>
    <clipPath
       clipPathUnits="userSpaceOnUse"
       id="clipPath29">
      <path
         d="m 314.66667,477.33333 h 14.66666 v 16 h -14.66666 z"
         id="path29" />
    </clipPath>
    <clipPath
       clipPathUnits="userSpaceOnUse"
       id="clipPath31">
      <path
         d="m 136.613,476.26601 -5.422,7.183 -7.183,-5.422 5.422,-7.183 z"
         id="path31" />
    </clipPath>
    <clipPath
       clipPathUnits="userSpaceOnUse"
       id="clipPath33">
      <path
         d="m 237.85127,-316.0423 7.18459,0.002 -0.002,7.1846 -7.18459,-0.002 z"
         id="path33" />
    </clipPath>
    <clipPath
       clipPathUnits="userSpaceOnUse"
       id="clipPath35">
      <path
         d="m 168,626.66667 h 14.66667 v 16 H 168 Z"
         id="path35" />
    </clipPath>
    <clipPath
       clipPathUnits="userSpaceOnUse"
       id="clipPath38">
      <path
         d="m 471.92201,-262.15201 v -9 h 9 v 9 z"
         id="path38" />
    </clipPath>
    <clipPath
       clipPathUnits="userSpaceOnUse"
       id="clipPath40">
      <path
         d="m 184.816,165.152 h 59.39801 V 180 H 184.816 Z"
         id="path40" />
    </clipPath>
    <clipPath
       clipPathUnits="userSpaceOnUse"
       id="clipPath42">
      <path
         d="M 48.000001,295.87501 H 119.586 v 15.125 H 48.000001 Z"
         id="path42" />
    </clipPath>
    <clipPath
       clipPathUnits="userSpaceOnUse"
       id="clipPath44">
      <path
         d="m 256.79301,252.30101 h 17.012 v 14.699 h -17.012 z"
         id="path44" />
    </clipPath>
    <clipPath
       clipPathUnits="userSpaceOnUse"
       id="clipPath46">
      <path
         d="m 138.527,295.87501 h 14.113 v 15.125 h -14.113 z"
         id="path46" />
    </clipPath>
    <clipPath
       clipPathUnits="userSpaceOnUse"
       id="clipPath48">
      <path
         d="M 98.785002,442.07401 H 200.27301 v 14.926 H 98.785002 Z"
         id="path48" />
    </clipPath>
    <clipPath
       clipPathUnits="userSpaceOnUse"
       id="clipPath50">
      <path
         d="m 228.12501,442.07401 h 77.062 v 14.926 h -77.062 z"
         id="path50" />
    </clipPath>
  </defs>
  <sodipodi:namedview
     id="namedview1"
     pagecolor="#ffffff"
     bordercolor="#111111"
     borderopacity="1"
     inkscape:showpageshadow="0"
     inkscape:pageopacity="0"
     inkscape:pagecheckerboard="1"
     inkscape:deskcolor="#d1d1d1"
     inkscape:zoom="0.4625651"
     inkscape:cx="343.7354"
     inkscape:cy="542.62632"
     inkscape:window-width="1268"
     inkscape:window-height="711"
     inkscape:window-x="35"
     inkscape:window-y="32"
     inkscape:window-maximized="0"
     inkscape:current-layer="g1">
    <inkscape:page
       x="0"
       y="0"
       inkscape:label="1"
       id="page1"
       width="381.54373"
       height="617.62531"
       margin="0"
       bleed="0" />
  </sodipodi:namedview>
  <g
     id="g1"
     inkscape:groupmode="layer"
     inkscape:label="1"
     transform="translate(-64,-63.505337)">
    <path
       id="path1"
       d="m 181.645,78.453 v 3.125 c 0,3.125 0,9.375 0.062,15.688 0.063,6.312 0.188,12.687 0.25,15.875 l 0.063,3.187"
       style="fill:none;stroke:#000000;stroke-width:1.49998;stroke-linecap:butt;stroke-linejoin:miter;stroke-miterlimit:4;stroke-dasharray:none;stroke-opacity:1"
       transform="scale(1.3333333)" />
    <g
       id="g3"
       clip-path="url(#clipPath4)">
      <path
         d="m 111.752,-184.168 8.997,4.496 -8.998,4.5 z"
         style="fill:#000000;fill-opacity:1;fill-rule:nonzero;stroke:#000000;stroke-width:0.899818;stroke-linecap:butt;stroke-linejoin:miter;stroke-miterlimit:4;stroke-dasharray:none;stroke-opacity:1"
         transform="matrix(0.02614227,1.3333333,-1.3333333,0.02614227,0,0)"
         clip-path="url(#clipPath2)"
         id="path3" />
    </g>
    <path
       id="path5"
       d="m 193.504,146.777 3.504,4.661 c 3.5,4.664 10.504,13.988 14.008,23.374 3.5,9.387 3.5,18.84 3.5,23.563 v 4.727"
       style="fill:none;stroke:#000000;stroke-width:1.49998;stroke-linecap:butt;stroke-linejoin:miter;stroke-miterlimit:4;stroke-dasharray:none;stroke-opacity:1"
       transform="scale(1.3333333)" />
    <path
       id="path6"
       d="m 195,-219.016 9,4.5 -9,4.5 z"
       style="fill:#000000;fill-opacity:1;fill-rule:nonzero;stroke:#000000;stroke-width:0.899991;stroke-linecap:butt;stroke-linejoin:miter;stroke-miterlimit:4;stroke-dasharray:none;stroke-opacity:1"
       transform="matrix(0,1.3333333,-1.3333333,0,0,0)"
       clip-path="url(#clipPath7)" />
    <path
       id="path8"
       d="m 147.828,146.777 -10.672,4.661 c -10.676,4.664 -32.023,13.988 -42.695,25.914 -10.676,11.925 -10.676,26.449 -10.676,40.972 0,14.528 0,29.051 0,43.574 0,14.528 0,29.051 0,41.977 0,12.926 0,24.25 0,38.465 0,14.215 0,31.316 0,50.019 0,18.707 0,39.012 3.567,53.887 3.562,14.879 10.691,24.328 14.257,29.051 l 3.563,4.726"
       style="fill:none;stroke:#000000;stroke-width:1.49998;stroke-linecap:butt;stroke-linejoin:miter;stroke-miterlimit:4;stroke-dasharray:none;stroke-opacity:1"
       transform="scale(1.3333333)" />
    <g
       id="g10">
      <path
         d="m 103.887,470.848 1.828,9.894 -9.012,-4.476 z"
         style="fill:#000000;fill-opacity:1;fill-rule:nonzero;stroke:none"
         transform="scale(1.3333333)"
         clip-path="url(#clipPath9)"
         id="path10" />
    </g>
    <g
       id="g12"
       clip-path="url(#clipPath13)">
      <path
         d="m 350.024,160.163 7.185,3.592 -7.186,3.591 z"
         style="fill:none;stroke:#000000;stroke-width:0.71848;stroke-linecap:butt;stroke-linejoin:miter;stroke-miterlimit:4;stroke-dasharray:none;stroke-opacity:1"
         transform="matrix(1.005836,1.3333333,-1.3333333,1.005836,0,0)"
         clip-path="url(#clipPath11)"
         id="path12" />
    </g>
    <path
       id="path14"
       d="m 232.258,233.551 5.508,4.726 c 5.504,4.723 16.515,14.172 22.086,23.684 5.566,9.516 5.691,19.09 5.753,23.875 l 0.063,4.789"
       style="fill:none;stroke:#000000;stroke-width:1.49998;stroke-linecap:butt;stroke-linejoin:miter;stroke-miterlimit:4;stroke-dasharray:none;stroke-opacity:1"
       transform="scale(1.3333333)" />
    <g
       id="g16"
       clip-path="url(#clipPath17)">
      <path
         d="m 285.946,-266.329 8.996,4.5 -8.996,4.5 z"
         style="fill:#000000;fill-opacity:1;fill-rule:nonzero;stroke:#000000;stroke-width:0.899914;stroke-linecap:butt;stroke-linejoin:miter;stroke-miterlimit:4;stroke-dasharray:none;stroke-opacity:1"
         transform="matrix(0.01740853,1.3333333,-1.3333333,0.01740853,0,0)"
         clip-path="url(#clipPath15)"
         id="path16" />
    </g>
    <path
       id="path18"
       d="m 190.43,233.551 -7.477,4.726 c -7.473,4.723 -22.426,14.172 -29.902,26.161 -7.473,11.988 -7.473,26.511 -7.473,39.437 0,12.926 0,24.25 7.137,35.223 7.137,10.976 21.406,21.597 28.543,26.91 l 7.137,5.312"
       style="fill:none;stroke:#000000;stroke-width:1.49998;stroke-linecap:butt;stroke-linejoin:miter;stroke-miterlimit:4;stroke-dasharray:none;stroke-opacity:1"
       transform="scale(1.3333333)" />
    <g
       id="g20">
      <path
         d="m 184.586,362.875 4.531,8.98 -9.906,-1.761 z"
         style="fill:#000000;fill-opacity:1;fill-rule:nonzero;stroke:none"
         transform="scale(1.3333333)"
         clip-path="url(#clipPath19)"
         id="path20" />
    </g>
    <g
       id="g22"
       clip-path="url(#clipPath23)">
      <path
         d="m 292.586,145.104 7.217,3.608 -7.218,3.611 z"
         style="fill:none;stroke:#000000;stroke-width:0.721964;stroke-linecap:butt;stroke-linejoin:miter;stroke-miterlimit:4;stroke-dasharray:none;stroke-opacity:1"
         transform="matrix(1.3333333,0.99239733,-0.99239733,1.3333333,0,0)"
         clip-path="url(#clipPath21)"
         id="path22" />
    </g>
    <path
       id="path24"
       d="m 265.668,321.074 -0.063,3.063 c -0.062,3.062 -0.187,9.187 -4.894,16.945 -4.707,7.758 -14,17.145 -18.645,21.84 l -4.644,4.695"
       style="fill:none;stroke:#000000;stroke-width:1.49998;stroke-linecap:butt;stroke-linejoin:miter;stroke-miterlimit:4;stroke-dasharray:none;stroke-opacity:1"
       transform="scale(1.3333333)" />
    <g
       id="g26">
      <path
         d="m 246.316,365.023 -9.527,3.235 3.129,-9.563 z"
         style="fill:#000000;fill-opacity:1;fill-rule:nonzero;stroke:none"
         transform="scale(1.3333333)"
         clip-path="url(#clipPath25)"
         id="path26" />
    </g>
    <g
       id="g28"
       clip-path="url(#clipPath29)">
      <path
         d="m 61.271,-306.949 6.397,3.196 -6.395,3.2 z"
         style="fill:none;stroke:#000000;stroke-width:0.639712;stroke-linecap:butt;stroke-linejoin:miter;stroke-miterlimit:4;stroke-dasharray:none;stroke-opacity:1"
         transform="matrix(-1.319448,1.3333333,-1.3333333,-1.319448,0,0)"
         clip-path="url(#clipPath27)"
         id="path28" />
    </g>
    <path
       id="path30"
       d="m 190.758,413.031 -6.871,6.438 c -6.871,6.441 -20.614,19.324 -31.051,30.488 -10.434,11.168 -17.563,20.617 -21.129,25.34 l -3.562,4.726"
       style="fill:none;stroke:#000000;stroke-width:1.49998;stroke-linecap:butt;stroke-linejoin:miter;stroke-miterlimit:4;stroke-dasharray:none;stroke-opacity:1"
       transform="scale(1.3333333)" />
    <g
       id="g32">
      <path
         d="m 136.613,476.266 -9.011,4.476 1.828,-9.894 z"
         style="fill:#000000;fill-opacity:1;fill-rule:nonzero;stroke:none"
         transform="scale(1.3333333)"
         clip-path="url(#clipPath31)"
         id="path32" />
    </g>
    <g
       id="g34"
       clip-path="url(#clipPath35)">
      <path
         d="m 237.851,-316.042 7.185,3.591 -7.184,3.592 z"
         style="fill:none;stroke:#000000;stroke-width:0.71848;stroke-linecap:butt;stroke-linejoin:miter;stroke-miterlimit:4;stroke-dasharray:none;stroke-opacity:1"
         transform="matrix(-1.0058347,1.3333333,-1.3333333,-1.0058347,0,0)"
         clip-path="url(#clipPath33)"
         id="path34" />
    </g>
    <path
       id="path36"
       d="m 235.691,415.5 5.161,6.027 c 5.16,6.032 15.48,18.09 20.64,28.844 5.16,10.754 5.16,20.203 5.16,24.926 v 4.726"
       style="fill:none;stroke:#000000;stroke-width:1.49998;stroke-linecap:butt;stroke-linejoin:miter;stroke-miterlimit:4;stroke-dasharray:none;stroke-opacity:1"
       transform="scale(1.3333333)" />
    <path
       id="path37"
       d="m 471.922,-271.152 9,4.5 -9,4.5 z"
       style="fill:#000000;fill-opacity:1;fill-rule:nonzero;stroke:#000000;stroke-width:0.899991;stroke-linecap:butt;stroke-linejoin:miter;stroke-miterlimit:4;stroke-dasharray:none;stroke-opacity:1"
       transform="matrix(0,1.3333333,-1.3333333,0,0,0)"
       clip-path="url(#clipPath38)" />
    <path
       id="path39"
       d="m 184.816,165.152 h 59.398 v 14.5 h -59.398 z"
       style="fill:#ffffff;fill-opacity:1;fill-rule:nonzero;stroke:none"
       transform="scale(1.3333333)"
       clip-path="url(#clipPath40)" />
    <text
       id="text40"
       xml:space="preserve"
       transform="matrix(1.3333333,0,0,1.3333333,246.42297,235.53481)"><tspan
         id="tspan40"
         style="font-variant:normal;font-weight:normal;font-size:11.9999px;font-family:'Trebuchet MS';writing-mode:lr-tb;fill:#000000;fill-opacity:1;fill-rule:nonzero;stroke:none"
         x="0"
         y="0">Attack Hits</tspan></text>
    <path
       id="path41"
       d="m 48,295.875 h 71.574 v 14.5 H 48 Z"
       style="fill:#ffffff;fill-opacity:1;fill-rule:nonzero;stroke:none"
       transform="scale(1.3333333)"
       clip-path="url(#clipPath42)" />
    <text
       id="text42"
       xml:space="preserve"
       transform="matrix(1.3333333,0,0,1.3333333,63.999919,409.83297)"><tspan
         id="tspan42"
         style="font-variant:normal;font-weight:normal;font-size:11.9999px;font-family:'Trebuchet MS';writing-mode:lr-tb;fill:#000000;fill-opacity:1;fill-rule:nonzero;stroke:none"
         x="0"
         y="0">Attack Misses</tspan></text>
    <path
       id="path43"
       d="m 256.793,252.301 h 17 v 14.5 h -17 z"
       style="fill:#ffffff;fill-opacity:1;fill-rule:nonzero;stroke:none"
       transform="scale(1.3333333)"
       clip-path="url(#clipPath44)" />
    <text
       id="text44"
       xml:space="preserve"
       transform="matrix(1.3333333,0,0,1.3333333,342.39282,351.73358)"><tspan
         id="tspan44"
         style="font-variant:normal;font-weight:normal;font-size:11.9999px;font-family:'Trebuchet MS';writing-mode:lr-tb;fill:#000000;fill-opacity:1;fill-rule:nonzero;stroke:none"
         x="0"
         dx="0 -1.2599868"
         y="0">Yes</tspan></text>
    <path
       id="path45"
       d="m 138.527,295.875 h 14.102 v 14.5 h -14.102 z"
       style="fill:#ffffff;fill-opacity:1;fill-rule:nonzero;stroke:none"
       transform="scale(1.3333333)"
       clip-path="url(#clipPath46)" />
    <text
       id="text46"
       xml:space="preserve"
       transform="matrix(1.3333333,0,0,1.3333333,184.70282,409.83297)"><tspan
         id="tspan46"
         style="font-variant:normal;font-weight:normal;font-size:11.9999px;font-family:'Trebuchet MS';writing-mode:lr-tb;fill:#000000;fill-opacity:1;fill-rule:nonzero;stroke:none"
         x="0"
         y="0">No</tspan></text>
    <path
       id="path47"
       d="m 98.785,442.074 h 101.488 v 14.5 H 98.785 Z"
       style="fill:#ffffff;fill-opacity:1;fill-rule:nonzero;stroke:none"
       transform="scale(1.3333333)"
       clip-path="url(#clipPath48)" />
    <text
       id="text48"
       xml:space="preserve"
       transform="matrix(1.3333333,0,0,1.3333333,131.71587,604.76424)"><tspan
         id="tspan48"
         style="font-variant:normal;font-weight:normal;font-size:11.9999px;font-family:'Trebuchet MS';writing-mode:lr-tb;fill:#000000;fill-opacity:1;fill-rule:nonzero;stroke:none"
         x="0"
         dx="0 -0.47999495"
         y="0">Responses Succeed</tspan></text>
    <path
       id="path49"
       d="m 228.125,442.074 h 77.051 v 14.5 h -77.051 z"
       style="fill:#ffffff;fill-opacity:1;fill-rule:nonzero;stroke:none"
       transform="scale(1.3333333)"
       clip-path="url(#clipPath50)" />
    <text
       id="text50"
       xml:space="preserve"
       transform="matrix(1.3333333,0,0,1.3333333,304.16825,604.76424)"><tspan
         id="tspan50"
         style="font-variant:normal;font-weight:normal;font-size:11.9999px;font-family:'Trebuchet MS';writing-mode:lr-tb;fill:#000000;fill-opacity:1;fill-rule:nonzero;stroke:none"
         x="0"
         dx="0 -0.47999495"
         y="0">Responses Fail</tspan></text>
    <path
       id="path51"
       d="M 108.207,48.004 H 255.082 V 78.453 H 108.207 Z"
       style="fill:#cde498;fill-opacity:1;fill-rule:nonzero;stroke:#13540c;stroke-width:0.749992;stroke-linecap:butt;stroke-linejoin:miter;stroke-miterlimit:4;stroke-dasharray:none;stroke-opacity:1"
       transform="scale(1.3333333)" />
    <text
       id="text51"
       xml:space="preserve"
       transform="matrix(1.3333333,0,0,1.3333333,151.77817,86.836397)"><tspan
         id="tspan51"
         style="font-variant:normal;font-weight:normal;font-size:11.9999px;font-family:'Trebuchet MS';writing-mode:lr-tb;fill:#000000;fill-opacity:1;fill-rule:nonzero;stroke:none"
         x="0"
         y="0">Attack Interaction Begins</tspan></text>
    <path
       id="path52"
       d="m 146.766,146.402 h 69.761 l 7.614,-15.226 -7.614,-15.223 h -69.761 l -7.614,15.223 z"
       style="fill:#cde498;fill-opacity:1;fill-rule:nonzero;stroke:#13540c;stroke-width:0.749992;stroke-linecap:butt;stroke-linejoin:miter;stroke-miterlimit:4;stroke-dasharray:none;stroke-opacity:1"
       transform="scale(1.3333333)" />
    <text
       id="text52"
       xml:space="preserve"
       transform="matrix(1.3333333,0,0,1.3333333,203.18597,177.43543)"><tspan
         id="tspan52"
         style="font-variant:normal;font-weight:normal;font-size:11.9999px;font-family:'Trebuchet MS';writing-mode:lr-tb;fill:#000000;fill-opacity:1;fill-rule:nonzero;stroke:none"
         x="0"
         dx="0 0 0 0 0 0 0 0 -0.49199483"
         y="0">Attack Roll</tspan></text>
    <path
       id="path53"
       d="m 181,203.102 h 67.035 c 2.07,0 3.75,1.679 3.75,3.75 v 22.949 c 0,2.07 -1.68,3.75 -3.75,3.75 H 181 c -2.07,0 -3.75,-1.68 -3.75,-3.75 v -22.949 c 0,-2.071 1.68,-3.75 3.75,-3.75 z"
       style="fill:#cde498;fill-opacity:1;fill-rule:nonzero;stroke:#13540c;stroke-width:0.749992;stroke-linecap:butt;stroke-linejoin:miter;stroke-miterlimit:4;stroke-dasharray:none;stroke-opacity:1"
       transform="scale(1.3333333)" />
    <text
       id="text53"
       xml:space="preserve"
       transform="matrix(1.3333333,0,0,1.3333333,243.83134,293.63422)"><tspan
         id="tspan53"
         style="font-variant:normal;font-weight:normal;font-size:11.9999px;font-family:'Trebuchet MS';writing-mode:lr-tb;fill:#000000;fill-opacity:1;fill-rule:nonzero;stroke:none"
         x="0"
         y="0">Critical Hit?</tspan></text>
    <path
       id="path54"
       d="M 197.039,320.699 H 318.324 L 333.551,290.25 H 212.266 Z"
       style="fill:#cde498;fill-opacity:1;fill-rule:nonzero;stroke:#13540c;stroke-width:0.749992;stroke-linecap:butt;stroke-linejoin:miter;stroke-miterlimit:4;stroke-dasharray:none;stroke-opacity:1"
       transform="scale(1.3333333)" />
    <text
       id="text54"
       xml:space="preserve"
       transform="matrix(1.3333333,0,0,1.3333333,283.75177,409.83297)"><tspan
         id="tspan54"
         style="font-variant:normal;font-weight:normal;font-size:11.9999px;font-family:'Trebuchet MS';writing-mode:lr-tb;fill:#000000;fill-opacity:1;fill-rule:nonzero;stroke:none"
         x="0"
         y="0">Effect Goes Critical</tspan></text>
    <path
       id="path55"
       d="m 247.078,390.762 c 0,17.984 -14.578,32.562 -32.562,32.562 -17.981,0 -32.563,-14.578 -32.563,-32.562 0,-17.985 14.582,-32.563 32.563,-32.563 17.984,0 32.562,14.578 32.562,32.563 z"
       style="fill:#cde498;fill-opacity:1;fill-rule:nonzero;stroke:none"
       transform="scale(1.3333333)" />
    <path
       id="path56"
       d="m 247.078,390.762 c 0,17.984 -14.578,32.562 -32.562,32.562 -17.981,0 -32.563,-14.578 -32.563,-32.562 0,-17.985 14.582,-32.563 32.563,-32.563 17.984,0 32.562,14.578 32.562,32.563"
       style="fill:none;stroke:#13540c;stroke-width:0.749992;stroke-linecap:butt;stroke-linejoin:miter;stroke-miterlimit:4;stroke-dasharray:none;stroke-opacity:1"
       transform="scale(1.3333333)" />
    <text
       id="text56"
       xml:space="preserve"
       transform="matrix(1.3333333,0,0,1.3333333,250.10628,523.54842)"><tspan
         id="tspan56"
         style="font-variant:normal;font-weight:normal;font-size:11.9999px;font-family:'Trebuchet MS';writing-mode:lr-tb;fill:#000000;fill-opacity:1;fill-rule:nonzero;stroke:none"
         x="0"
         dx="0 -0.47999495"
         y="0">Responses</tspan></text>
    <path
       id="path57"
       d="m 234.949,480.023 h 63.403 c 8.402,0 15.222,6.821 15.222,15.223 0,8.406 -6.82,15.227 -15.222,15.227 h -63.403 c -8.402,0 -15.222,-6.821 -15.222,-15.227 0,-8.402 6.82,-15.223 15.222,-15.223 z"
       style="fill:#cde498;fill-opacity:1;fill-rule:nonzero;stroke:#13540c;stroke-width:0.749992;stroke-linecap:butt;stroke-linejoin:miter;stroke-miterlimit:4;stroke-dasharray:none;stroke-opacity:1"
       transform="scale(1.3333333)" />
    <text
       id="text57"
       xml:space="preserve"
       transform="matrix(1.3333333,0,0,1.3333333,305.54323,662.86361)"><tspan
         id="tspan57"
         style="font-variant:normal;font-weight:normal;font-size:11.9999px;font-family:'Trebuchet MS';writing-mode:lr-tb;fill:#000000;fill-opacity:1;fill-rule:nonzero;stroke:none"
         x="0"
         y="0">Effect Applies</tspan></text>
    <path
       id="path58"
       d="m 86.332,480.023 h 60.652 c 8.403,0 15.223,6.821 15.223,15.223 0,8.406 -6.82,15.227 -15.223,15.227 H 86.332 c -8.402,0 -15.223,-6.821 -15.223,-15.227 0,-8.402 6.821,-15.223 15.223,-15.223 z"
       style="fill:#cde498;fill-opacity:1;fill-rule:nonzero;stroke:#13540c;stroke-width:0.749992;stroke-linecap:butt;stroke-linejoin:miter;stroke-miterlimit:4;stroke-dasharray:none;stroke-opacity:1"
       transform="scale(1.3333333)" />
    <text
       id="text58"
       xml:space="preserve"
       transform="matrix(1.3333333,0,0,1.3333333,107.38694,662.86361)"><tspan
         id="tspan58"
         style="font-variant:normal;font-weight:normal;font-size:11.9999px;font-family:'Trebuchet MS';writing-mode:lr-tb;fill:#000000;fill-opacity:1;fill-rule:nonzero;stroke:none"
         x="0"
         y="0">Effect Fizzles</tspan></text>
  </g>
</svg>
