<svg xmlns="http://www.w3.org/2000/svg" width="381.544" height="617.625">
    <defs>
        <clipPath id="b" clipPathUnits="userSpaceOnUse">
            <path d="M111.752-184.168h9l-.001 9h-9z"/>
        </clipPath>
        <clipPath id="a" clipPathUnits="userSpaceOnUse">
            <path d="M236 144h13.333v13.333H236Z"/>
        </clipPath>
        <clipPath id="c" clipPathUnits="userSpaceOnUse">
            <path d="M195-210.016v-9h9v9z"/>
        </clipPath>
        <clipPath id="d" clipPathUnits="userSpaceOnUse">
            <path d="m103.887 470.848 5.422 7.183-7.184 5.422-5.422-7.183z"/>
        </clipPath>
        <clipPath id="f" clipPathUnits="userSpaceOnUse">
            <path d="m350.024 160.163 7.185-.002.002 7.186-7.185.002z"/>
        </clipPath>
        <clipPath id="e" clipPathUnits="userSpaceOnUse">
            <path d="M128 626.667h14.667v16H128Z"/>
        </clipPath>
        <clipPath id="h" clipPathUnits="userSpaceOnUse">
            <path d="M285.946-266.329h9v9h-9z"/>
        </clipPath>
        <clipPath id="g" clipPathUnits="userSpaceOnUse">
            <path d="M348 376h13.333v13.333H348Z"/>
        </clipPath>
        <clipPath id="i" clipPathUnits="userSpaceOnUse">
            <path d="m184.586 362.875 7.219 5.375-5.375 7.219-7.219-5.375z"/>
        </clipPath>
        <clipPath id="k" clipPathUnits="userSpaceOnUse">
            <path d="M292.586 145.104h7.22v7.22h-7.22z"/>
        </clipPath>
        <clipPath id="j" clipPathUnits="userSpaceOnUse">
            <path d="M238.667 482.667h16v14.666h-16z"/>
        </clipPath>
        <clipPath id="l" clipPathUnits="userSpaceOnUse">
            <path d="m246.316 365.023-6.332 6.399-6.398-6.332 6.332-6.399z"/>
        </clipPath>
        <clipPath id="n" clipPathUnits="userSpaceOnUse">
            <path d="M61.27-306.949h6.4v6.398h-6.4z"/>
        </clipPath>
        <clipPath id="m" clipPathUnits="userSpaceOnUse">
            <path d="M314.667 477.333h14.666v16h-14.666z"/>
        </clipPath>
        <clipPath id="o" clipPathUnits="userSpaceOnUse">
            <path d="m136.613 476.266-5.422 7.183-7.183-5.422 5.422-7.183z"/>
        </clipPath>
        <clipPath id="q" clipPathUnits="userSpaceOnUse">
            <path d="m237.851-316.042 7.185.002-.002 7.184-7.185-.002z"/>
        </clipPath>
        <clipPath id="p" clipPathUnits="userSpaceOnUse">
            <path d="M168 626.667h14.667v16H168Z"/>
        </clipPath>
        <clipPath id="r" clipPathUnits="userSpaceOnUse">
            <path d="M471.922-262.152v-9h9v9z"/>
        </clipPath>
        <clipPath id="s" clipPathUnits="userSpaceOnUse">
            <path d="M184.816 165.152h59.398V180h-59.398Z"/>
        </clipPath>
        <clipPath id="t" clipPathUnits="userSpaceOnUse">
            <path d="M48 295.875h71.586V311H48Z"/>
        </clipPath>
        <clipPath id="u" clipPathUnits="userSpaceOnUse">
            <path d="M256.793 252.301h17.012V267h-17.012z"/>
        </clipPath>
        <clipPath id="v" clipPathUnits="userSpaceOnUse">
            <path d="M138.527 295.875h14.113V311h-14.113z"/>
        </clipPath>
        <clipPath id="w" clipPathUnits="userSpaceOnUse">
            <path d="M98.785 442.074h101.488V457H98.785Z"/>
        </clipPath>
        <clipPath id="x" clipPathUnits="userSpaceOnUse">
            <path d="M228.125 442.074h77.062V457h-77.062z"/>
        </clipPath>
    </defs>
    <path d="M181.645 78.453v3.125c0 3.125 0 9.375.062 15.688.063 6.312.188 12.687.25 15.875l.063 3.187"
          style="fill:none;stroke:#000;stroke-width:1.49998;stroke-linecap:butt;stroke-linejoin:miter;stroke-miterlimit:4;stroke-dasharray:none;stroke-opacity:1"
          transform="translate(-64 -63.505)scale(1.33333)"/>
    <g clip-path="url(#a)" transform="translate(-64 -63.505)">
        <path d="m111.752-184.168 8.997 4.496-8.998 4.5z" clip-path="url(#b)"
              style="fill:#000;fill-opacity:1;fill-rule:nonzero;stroke:#000;stroke-width:.899818;stroke-linecap:butt;stroke-linejoin:miter;stroke-miterlimit:4;stroke-dasharray:none;stroke-opacity:1"
              transform="rotate(88.877)scale(1.33359)"/>
    </g>
    <path d="m193.504 146.777 3.504 4.661c3.5 4.664 10.504 13.988 14.008 23.374 3.5 9.387 3.5 18.84 3.5 23.563v4.727"
          style="fill:none;stroke:#000;stroke-width:1.49998;stroke-linecap:butt;stroke-linejoin:miter;stroke-miterlimit:4;stroke-dasharray:none;stroke-opacity:1"
          transform="translate(-64 -63.505)scale(1.33333)"/>
    <path d="m195-219.016 9 4.5-9 4.5z" clip-path="url(#c)"
          style="fill:#000;fill-opacity:1;fill-rule:nonzero;stroke:#000;stroke-width:.899991;stroke-linecap:butt;stroke-linejoin:miter;stroke-miterlimit:4;stroke-dasharray:none;stroke-opacity:1"
          transform="rotate(90 -.247 -63.752)scale(1.33333)"/>
    <path d="m147.828 146.777-10.672 4.661c-10.676 4.664-32.023 13.988-42.695 25.914-10.676 11.925-10.676 26.449-10.676 40.972v174.035c0 18.707 0 39.012 3.567 53.887 3.562 14.879 10.691 24.328 14.257 29.051l3.563 4.726"
          style="fill:none;stroke:#000;stroke-width:1.49998;stroke-linecap:butt;stroke-linejoin:miter;stroke-miterlimit:4;stroke-dasharray:none;stroke-opacity:1"
          transform="translate(-64 -63.505)scale(1.33333)"/>
    <path d="m103.887 470.848 1.828 9.894-9.012-4.476z" clip-path="url(#d)"
          style="fill:#000;fill-opacity:1;fill-rule:nonzero;stroke:none"
          transform="translate(-64 -63.505)scale(1.33333)"/>
    <g clip-path="url(#e)" transform="translate(-64 -63.505)">
        <path d="m350.024 160.163 7.185 3.592-7.186 3.591z" clip-path="url(#f)"
              style="fill:none;stroke:#000;stroke-width:.71848;stroke-linecap:butt;stroke-linejoin:miter;stroke-miterlimit:4;stroke-dasharray:none;stroke-opacity:1"
              transform="rotate(52.97)scale(1.67017)"/>
    </g>
    <path d="m232.258 233.551 5.508 4.726c5.504 4.723 16.515 14.172 22.086 23.684 5.566 9.516 5.691 19.09 5.753 23.875l.063 4.789"
          style="fill:none;stroke:#000;stroke-width:1.49998;stroke-linecap:butt;stroke-linejoin:miter;stroke-miterlimit:4;stroke-dasharray:none;stroke-opacity:1"
          transform="translate(-64 -63.505)scale(1.33333)"/>
    <g clip-path="url(#g)" transform="translate(-64 -63.505)">
        <path d="m285.946-266.329 8.996 4.5-8.996 4.5z" clip-path="url(#h)"
              style="fill:#000;fill-opacity:1;fill-rule:nonzero;stroke:#000;stroke-width:.899914;stroke-linecap:butt;stroke-linejoin:miter;stroke-miterlimit:4;stroke-dasharray:none;stroke-opacity:1"
              transform="rotate(89.252)scale(1.33345)"/>
    </g>
    <path d="m190.43 233.551-7.477 4.726c-7.473 4.723-22.426 14.172-29.902 26.161-7.473 11.988-7.473 26.511-7.473 39.437s0 24.25 7.137 35.223c7.137 10.976 21.406 21.597 28.543 26.91l7.137 5.312"
          style="fill:none;stroke:#000;stroke-width:1.49998;stroke-linecap:butt;stroke-linejoin:miter;stroke-miterlimit:4;stroke-dasharray:none;stroke-opacity:1"
          transform="translate(-64 -63.505)scale(1.33333)"/>
    <path d="m184.586 362.875 4.531 8.98-9.906-1.761z" clip-path="url(#i)"
          style="fill:#000;fill-opacity:1;fill-rule:nonzero;stroke:none"
          transform="translate(-64 -63.505)scale(1.33333)"/>
    <g clip-path="url(#j)" transform="translate(-64 -63.505)">
        <path d="m292.586 145.104 7.217 3.608-7.218 3.611z" clip-path="url(#k)"
              style="fill:none;stroke:#000;stroke-width:.721964;stroke-linecap:butt;stroke-linejoin:miter;stroke-miterlimit:4;stroke-dasharray:none;stroke-opacity:1"
              transform="rotate(36.66)scale(1.66212)"/>
    </g>
    <path d="m265.668 321.074-.063 3.063c-.062 3.062-.187 9.187-4.894 16.945s-14 17.145-18.645 21.84l-4.644 4.695"
          style="fill:none;stroke:#000;stroke-width:1.49998;stroke-linecap:butt;stroke-linejoin:miter;stroke-miterlimit:4;stroke-dasharray:none;stroke-opacity:1"
          transform="translate(-64 -63.505)scale(1.33333)"/>
    <path d="m246.316 365.023-9.527 3.235 3.129-9.563z" clip-path="url(#l)"
          style="fill:#000;fill-opacity:1;fill-rule:nonzero;stroke:none"
          transform="translate(-64 -63.505)scale(1.33333)"/>
    <g clip-path="url(#m)" transform="translate(-64 -63.505)">
        <path d="m61.271-306.949 6.397 3.196-6.395 3.2z" clip-path="url(#n)"
              style="fill:none;stroke:#000;stroke-width:.639712;stroke-linecap:butt;stroke-linejoin:miter;stroke-miterlimit:4;stroke-dasharray:none;stroke-opacity:1"
              transform="rotate(134.7)scale(1.87583)"/>
    </g>
    <path d="m190.758 413.031-6.871 6.438c-6.871 6.441-20.614 19.324-31.051 30.488-10.434 11.168-17.563 20.617-21.129 25.34l-3.562 4.726"
          style="fill:none;stroke:#000;stroke-width:1.49998;stroke-linecap:butt;stroke-linejoin:miter;stroke-miterlimit:4;stroke-dasharray:none;stroke-opacity:1"
          transform="translate(-64 -63.505)scale(1.33333)"/>
    <path d="m136.613 476.266-9.011 4.476 1.828-9.894z" clip-path="url(#o)"
          style="fill:#000;fill-opacity:1;fill-rule:nonzero;stroke:none"
          transform="translate(-64 -63.505)scale(1.33333)"/>
    <g clip-path="url(#p)" transform="translate(-64 -63.505)">
        <path d="m237.851-316.042 7.185 3.591-7.184 3.592z" clip-path="url(#q)"
              style="fill:none;stroke:#000;stroke-width:.71848;stroke-linecap:butt;stroke-linejoin:miter;stroke-miterlimit:4;stroke-dasharray:none;stroke-opacity:1"
              transform="rotate(127.03)scale(1.67017)"/>
    </g>
    <path d="m235.691 415.5 5.161 6.027c5.16 6.032 15.48 18.09 20.64 28.844s5.16 20.203 5.16 24.926v4.726"
          style="fill:none;stroke:#000;stroke-width:1.49998;stroke-linecap:butt;stroke-linejoin:miter;stroke-miterlimit:4;stroke-dasharray:none;stroke-opacity:1"
          transform="translate(-64 -63.505)scale(1.33333)"/>
    <path d="m471.922-271.152 9 4.5-9 4.5z" clip-path="url(#r)"
          style="fill:#000;fill-opacity:1;fill-rule:nonzero;stroke:#000;stroke-width:.899991;stroke-linecap:butt;stroke-linejoin:miter;stroke-miterlimit:4;stroke-dasharray:none;stroke-opacity:1"
          transform="rotate(90 -.247 -63.752)scale(1.33333)"/>
    <path d="M184.816 165.152h59.398v14.5h-59.398z" clip-path="url(#s)"
          style="fill:#fff;fill-opacity:1;fill-rule:nonzero;stroke:none"
          transform="translate(-64 -63.505)scale(1.33333)"/>
    <text xml:space="preserve" transform="translate(182.423 172.03)scale(1.33333)"><tspan x="0" y="0" style="font-variant:normal;font-weight:400;font-size:11.9999px;font-family:&quot;Trebuchet MS&quot;;writing-mode:lr-tb;fill:#000;fill-opacity:1;fill-rule:nonzero;stroke:none">Attack Hits</tspan></text>
    <path d="M48 295.875h71.574v14.5H48Z" clip-path="url(#t)"
          style="fill:#fff;fill-opacity:1;fill-rule:nonzero;stroke:none"
          transform="translate(-64 -63.505)scale(1.33333)"/>
    <text xml:space="preserve" transform="translate(0 346.328)scale(1.33333)"><tspan x="0" y="0" style="font-variant:normal;font-weight:400;font-size:11.9999px;font-family:&quot;Trebuchet MS&quot;;writing-mode:lr-tb;fill:#000;fill-opacity:1;fill-rule:nonzero;stroke:none">Attack Misses</tspan></text>
    <path d="M256.793 252.301h17v14.5h-17z" clip-path="url(#u)"
          style="fill:#fff;fill-opacity:1;fill-rule:nonzero;stroke:none"
          transform="translate(-64 -63.505)scale(1.33333)"/>
    <text xml:space="preserve" transform="translate(278.393 288.228)scale(1.33333)"><tspan x="0" y="0" dx="0 -1.2599868" style="font-variant:normal;font-weight:400;font-size:11.9999px;font-family:&quot;Trebuchet MS&quot;;writing-mode:lr-tb;fill:#000;fill-opacity:1;fill-rule:nonzero;stroke:none">Yes</tspan></text>
    <path d="M138.527 295.875h14.102v14.5h-14.102z" clip-path="url(#v)"
          style="fill:#fff;fill-opacity:1;fill-rule:nonzero;stroke:none"
          transform="translate(-64 -63.505)scale(1.33333)"/>
    <text xml:space="preserve" transform="translate(120.703 346.328)scale(1.33333)"><tspan x="0" y="0" style="font-variant:normal;font-weight:400;font-size:11.9999px;font-family:&quot;Trebuchet MS&quot;;writing-mode:lr-tb;fill:#000;fill-opacity:1;fill-rule:nonzero;stroke:none">No</tspan></text>
    <path d="M98.785 442.074h101.488v14.5H98.785Z" clip-path="url(#w)"
          style="fill:#fff;fill-opacity:1;fill-rule:nonzero;stroke:none"
          transform="translate(-64 -63.505)scale(1.33333)"/>
    <text xml:space="preserve" transform="translate(67.716 541.259)scale(1.33333)"><tspan x="0" y="0" dx="0 -0.47999495" style="font-variant:normal;font-weight:400;font-size:11.9999px;font-family:&quot;Trebuchet MS&quot;;writing-mode:lr-tb;fill:#000;fill-opacity:1;fill-rule:nonzero;stroke:none">Responses Succeed</tspan></text>
    <path d="M228.125 442.074h77.051v14.5h-77.051z" clip-path="url(#x)"
          style="fill:#fff;fill-opacity:1;fill-rule:nonzero;stroke:none"
          transform="translate(-64 -63.505)scale(1.33333)"/>
    <text xml:space="preserve" transform="translate(240.168 541.259)scale(1.33333)"><tspan x="0" y="0" dx="0 -0.47999495" style="font-variant:normal;font-weight:400;font-size:11.9999px;font-family:&quot;Trebuchet MS&quot;;writing-mode:lr-tb;fill:#000;fill-opacity:1;fill-rule:nonzero;stroke:none">Responses Fail</tspan></text>
    <path d="M108.207 48.004h146.875v30.449H108.207Z"
          style="fill:#cde498;fill-opacity:1;fill-rule:nonzero;stroke:#13540c;stroke-width:.749992;stroke-linecap:butt;stroke-linejoin:miter;stroke-miterlimit:4;stroke-dasharray:none;stroke-opacity:1"
          transform="translate(-64 -63.505)scale(1.33333)"/>
    <text xml:space="preserve" transform="translate(87.778 23.331)scale(1.33333)"><tspan x="0" y="0" style="font-variant:normal;font-weight:400;font-size:11.9999px;font-family:&quot;Trebuchet MS&quot;;writing-mode:lr-tb;fill:#000;fill-opacity:1;fill-rule:nonzero;stroke:none">Attack Interaction Begins</tspan></text>
    <path d="M146.766 146.402h69.761l7.614-15.226-7.614-15.223h-69.761l-7.614 15.223z"
          style="fill:#cde498;fill-opacity:1;fill-rule:nonzero;stroke:#13540c;stroke-width:.749992;stroke-linecap:butt;stroke-linejoin:miter;stroke-miterlimit:4;stroke-dasharray:none;stroke-opacity:1"
          transform="translate(-64 -63.505)scale(1.33333)"/>
    <text xml:space="preserve" transform="translate(139.186 113.93)scale(1.33333)"><tspan x="0" y="0" dx="0 0 0 0 0 0 0 0 -0.49199483" style="font-variant:normal;font-weight:400;font-size:11.9999px;font-family:&quot;Trebuchet MS&quot;;writing-mode:lr-tb;fill:#000;fill-opacity:1;fill-rule:nonzero;stroke:none">Attack Roll</tspan></text>
    <path d="M181 203.102h67.035a3.75 3.75 0 0 1 3.75 3.75v22.949c0 2.07-1.68 3.75-3.75 3.75H181c-2.07 0-3.75-1.68-3.75-3.75v-22.949a3.75 3.75 0 0 1 3.75-3.75z"
          style="fill:#cde498;fill-opacity:1;fill-rule:nonzero;stroke:#13540c;stroke-width:.749992;stroke-linecap:butt;stroke-linejoin:miter;stroke-miterlimit:4;stroke-dasharray:none;stroke-opacity:1"
          transform="translate(-64 -63.505)scale(1.33333)"/>
    <text xml:space="preserve" transform="translate(179.831 230.129)scale(1.33333)"><tspan x="0" y="0" style="font-variant:normal;font-weight:400;font-size:11.9999px;font-family:&quot;Trebuchet MS&quot;;writing-mode:lr-tb;fill:#000;fill-opacity:1;fill-rule:nonzero;stroke:none">Critical Hit?</tspan></text>
    <path d="M197.039 320.699h121.285l15.227-30.449H212.266Z"
          style="fill:#cde498;fill-opacity:1;fill-rule:nonzero;stroke:#13540c;stroke-width:.749992;stroke-linecap:butt;stroke-linejoin:miter;stroke-miterlimit:4;stroke-dasharray:none;stroke-opacity:1"
          transform="translate(-64 -63.505)scale(1.33333)"/>
    <text xml:space="preserve" transform="translate(219.752 346.328)scale(1.33333)"><tspan x="0" y="0" style="font-variant:normal;font-weight:400;font-size:11.9999px;font-family:&quot;Trebuchet MS&quot;;writing-mode:lr-tb;fill:#000;fill-opacity:1;fill-rule:nonzero;stroke:none">Effect Goes Critical</tspan></text>
    <path d="M247.078 390.762c0 17.984-14.578 32.562-32.562 32.562-17.981 0-32.563-14.578-32.563-32.562 0-17.985 14.582-32.563 32.563-32.563 17.984 0 32.562 14.578 32.562 32.563"
          style="fill:#cde498;fill-opacity:1;fill-rule:nonzero;stroke:none"
          transform="translate(-64 -63.505)scale(1.33333)"/>
    <path d="M247.078 390.762c0 17.984-14.578 32.562-32.562 32.562-17.981 0-32.563-14.578-32.563-32.562 0-17.985 14.582-32.563 32.563-32.563 17.984 0 32.562 14.578 32.562 32.563"
          style="fill:none;stroke:#13540c;stroke-width:.749992;stroke-linecap:butt;stroke-linejoin:miter;stroke-miterlimit:4;stroke-dasharray:none;stroke-opacity:1"
          transform="translate(-64 -63.505)scale(1.33333)"/>
    <text xml:space="preserve" transform="translate(186.106 460.043)scale(1.33333)"><tspan x="0" y="0" dx="0 -0.47999495" style="font-variant:normal;font-weight:400;font-size:11.9999px;font-family:&quot;Trebuchet MS&quot;;writing-mode:lr-tb;fill:#000;fill-opacity:1;fill-rule:nonzero;stroke:none">Responses</tspan></text>
    <path d="M234.949 480.023h63.403c8.402 0 15.222 6.821 15.222 15.223 0 8.406-6.82 15.227-15.222 15.227h-63.403c-8.402 0-15.222-6.821-15.222-15.227 0-8.402 6.82-15.223 15.222-15.223z"
          style="fill:#cde498;fill-opacity:1;fill-rule:nonzero;stroke:#13540c;stroke-width:.749992;stroke-linecap:butt;stroke-linejoin:miter;stroke-miterlimit:4;stroke-dasharray:none;stroke-opacity:1"
          transform="translate(-64 -63.505)scale(1.33333)"/>
    <text xml:space="preserve" transform="translate(241.543 599.358)scale(1.33333)"><tspan x="0" y="0" style="font-variant:normal;font-weight:400;font-size:11.9999px;font-family:&quot;Trebuchet MS&quot;;writing-mode:lr-tb;fill:#000;fill-opacity:1;fill-rule:nonzero;stroke:none">Effect Applies</tspan></text>
    <path d="M86.332 480.023h60.652c8.403 0 15.223 6.821 15.223 15.223 0 8.406-6.82 15.227-15.223 15.227H86.332c-8.402 0-15.223-6.821-15.223-15.227 0-8.402 6.821-15.223 15.223-15.223z"
          style="fill:#cde498;fill-opacity:1;fill-rule:nonzero;stroke:#13540c;stroke-width:.749992;stroke-linecap:butt;stroke-linejoin:miter;stroke-miterlimit:4;stroke-dasharray:none;stroke-opacity:1"
          transform="translate(-64 -63.505)scale(1.33333)"/>
    <text xml:space="preserve" transform="translate(43.387 599.358)scale(1.33333)"><tspan x="0" y="0" style="font-variant:normal;font-weight:400;font-size:11.9999px;font-family:&quot;Trebuchet MS&quot;;writing-mode:lr-tb;fill:#000;fill-opacity:1;fill-rule:nonzero;stroke:none">Effect Fizzles</tspan></text>
</svg>