<svg xmlns="http://www.w3.org/2000/svg" width="434.541" height="410.833">
    <defs>
        <clipPath id="b" clipPathUnits="userSpaceOnUse">
            <path d="M112.094-201.818h9l-.001 9h-9z"/>
        </clipPath>
        <clipPath id="a" clipPathUnits="userSpaceOnUse">
            <path d="M260 144h13.333v13.333H260Z"/>
        </clipPath>
        <clipPath id="c" clipPathUnits="userSpaceOnUse">
            <path d="m113.25 315.953 6.203 6.524-6.523 6.203-6.203-6.524z"/>
        </clipPath>
        <clipPath id="e" clipPathUnits="userSpaceOnUse">
            <path d="M222.492 98.297h6.524v6.523h-6.523z"/>
        </clipPath>
        <clipPath id="d" clipPathUnits="userSpaceOnUse">
            <path d="M141.333 420H156v16h-14.667z"/>
        </clipPath>
        <clipPath id="f" clipPathUnits="userSpaceOnUse">
            <path d="M195-244.512v-9h9v9z"/>
        </clipPath>
        <clipPath id="g" clipPathUnits="userSpaceOnUse">
            <path d="m156.473 322.969-6.77 5.933-5.933-6.769 6.769-5.934z"/>
        </clipPath>
        <clipPath id="i" clipPathUnits="userSpaceOnUse">
            <path d="M71.606-260.204h6.77l-.001 6.77h-6.77z"/>
        </clipPath>
        <clipPath id="h" clipPathUnits="userSpaceOnUse">
            <path d="M193.333 421.333h16V436h-16z"/>
        </clipPath>
        <clipPath id="j" clipPathUnits="userSpaceOnUse">
            <path d="M316.824-313.766v-9h9v9z"/>
        </clipPath>
        <clipPath id="k" clipPathUnits="userSpaceOnUse">
            <path d="M48.004 226.062h81.238V241H48.004Z"/>
        </clipPath>
        <clipPath id="l" clipPathUnits="userSpaceOnUse">
            <path d="M220.617 165.148h56.789V180h-56.789z"/>
        </clipPath>
        <clipPath id="m" clipPathUnits="userSpaceOnUse">
            <path d="M111.898 286.977h135.727V302H111.898Z"/>
        </clipPath>
        <clipPath id="n" clipPathUnits="userSpaceOnUse">
            <path d="M262.621 286.977H373.91V302H262.621z"/>
        </clipPath>
        <clipPath id="o" clipPathUnits="userSpaceOnUse">
            <path d="M.019-9.075h64.629v10H.018Z"/>
        </clipPath>
    </defs>
    <path d="m199.676 78.824-.063 3.063c-.062 3.062-.187 9.187-.187 15.437s.125 12.625.187 15.813l.063 3.187"
          style="fill:none;stroke:#000;stroke-width:1.5;stroke-linecap:butt;stroke-linejoin:miter;stroke-miterlimit:4;stroke-dasharray:none;stroke-opacity:1"
          transform="translate(-64.005 -63.5)scale(1.33333)"/>
    <g clip-path="url(#a)" transform="translate(-64.005 -63.5)">
        <path d="m112.094-201.818 9.001 4.501-8.998 4.499z" clip-path="url(#b)"
              style="fill:#000;fill-opacity:1;fill-rule:nonzero;stroke:#000;stroke-width:.899827;stroke-linecap:butt;stroke-linejoin:miter;stroke-miterlimit:4;stroke-dasharray:none;stroke-opacity:1"
              transform="rotate(88.877)scale(1.33359)"/>
    </g>
    <path d="m161.613 146.535-12.168 4.703c-12.164 4.703-36.496 14.106-48.664 28.961-12.164 14.856-12.164 35.16-12.164 55.465 0 20.301 0 40.606 4.492 55.484 4.493 14.875 13.477 24.329 17.969 29.051l4.492 4.727"
          style="fill:none;stroke:#000;stroke-width:1.5;stroke-linecap:butt;stroke-linejoin:miter;stroke-miterlimit:4;stroke-dasharray:none;stroke-opacity:1"
          transform="translate(-64.005 -63.5)scale(1.33333)"/>
    <path d="m113.25 315.953 2.941 9.625-9.464-3.422z" clip-path="url(#c)"
          style="fill:#000;fill-opacity:1;fill-rule:nonzero;stroke:none"
          transform="translate(-64.005 -63.5)scale(1.33333)"/>
    <g clip-path="url(#d)" transform="translate(-64.005 -63.5)">
        <path d="m222.492 98.297 6.524 3.261-6.523 3.262z" clip-path="url(#e)"
              style="fill:none;stroke:#000;stroke-width:.652237;stroke-linecap:butt;stroke-linejoin:miter;stroke-miterlimit:4;stroke-dasharray:none;stroke-opacity:1"
              transform="rotate(46.445)scale(1.83982)"/>
    </g>
    <path d="m217.043 146.773 5.328 4.665c5.328 4.664 15.984 13.988 21.313 23.374 5.328 9.387 5.328 18.836 5.328 23.563v4.727"
          style="fill:none;stroke:#000;stroke-width:1.5;stroke-linecap:butt;stroke-linejoin:miter;stroke-miterlimit:4;stroke-dasharray:none;stroke-opacity:1"
          transform="translate(-64.005 -63.5)scale(1.33333)"/>
    <path d="m195-253.512 9 4.5-9 4.5z" clip-path="url(#f)"
          style="fill:#000;fill-opacity:1;fill-rule:nonzero;stroke:#000;stroke-width:.9;stroke-linecap:butt;stroke-linejoin:miter;stroke-miterlimit:4;stroke-dasharray:none;stroke-opacity:1"
          transform="rotate(90 -.252 -63.752)scale(1.33333)"/>
    <path d="m224.562 257.168-7.468 6.566a46030 46030 0 0 1-64.285 56.465l-5.391 4.727"
          style="fill:none;stroke:#000;stroke-width:1.5;stroke-linecap:butt;stroke-linejoin:miter;stroke-miterlimit:4;stroke-dasharray:none;stroke-opacity:1"
          transform="translate(-64.005 -63.5)scale(1.33333)"/>
    <path d="m156.473 322.969-9.735 2.551 3.805-9.317z" clip-path="url(#g)"
          style="fill:#000;fill-opacity:1;fill-rule:nonzero;stroke:none"
          transform="translate(-64.005 -63.5)scale(1.33333)"/>
    <g clip-path="url(#h)" transform="translate(-64.005 -63.5)">
        <path d="m71.606-260.204 6.769 3.383-6.77 3.383z" clip-path="url(#i)"
              style="fill:none;stroke:#000;stroke-width:.676803;stroke-linecap:butt;stroke-linejoin:miter;stroke-miterlimit:4;stroke-dasharray:none;stroke-opacity:1"
              transform="rotate(138.764)scale(1.77304)"/>
    </g>
    <path d="m273.465 257.168 7.465 6.566c7.468 6.571 22.402 19.704 29.867 30.996 7.469 11.293 7.469 20.747 7.469 25.469v4.727"
          style="fill:none;stroke:#000;stroke-width:1.5;stroke-linecap:butt;stroke-linejoin:miter;stroke-miterlimit:4;stroke-dasharray:none;stroke-opacity:1"
          transform="translate(-64.005 -63.5)scale(1.33333)"/>
    <path d="m316.824-322.766 9 4.5-9 4.5z" clip-path="url(#j)"
          style="fill:#000;fill-opacity:1;fill-rule:nonzero;stroke:#000;stroke-width:.9;stroke-linecap:butt;stroke-linejoin:miter;stroke-miterlimit:4;stroke-dasharray:none;stroke-opacity:1"
          transform="rotate(90 -.252 -63.752)scale(1.33333)"/>
    <path d="M48.004 226.062h81.227v14.5H48.004Z" clip-path="url(#k)"
          style="fill:#fff;fill-opacity:1;fill-rule:nonzero;stroke:none"
          transform="translate(-64.005 -63.5)scale(1.33333)"/>
    <text xml:space="preserve" transform="translate(-.001 253.25)scale(1.33333)"><tspan x="0" y="0" style="font-variant:normal;font-weight:400;font-size:12px;font-family:&quot;Trebuchet MS&quot;;writing-mode:lr-tb;fill:#000;fill-opacity:1;fill-rule:nonzero;stroke:none">Block Succeeds</tspan></text>
    <path d="M220.617 165.148h56.789v14.5h-56.789z" clip-path="url(#l)"
          style="fill:#fff;fill-opacity:1;fill-rule:nonzero;stroke:none"
          transform="translate(-64.005 -63.5)scale(1.33333)"/>
    <text xml:space="preserve" transform="translate(230.153 172.033)scale(1.33333)"><tspan x="0" y="0" style="font-variant:normal;font-weight:400;font-size:12px;font-family:&quot;Trebuchet MS&quot;;writing-mode:lr-tb;fill:#000;fill-opacity:1;fill-rule:nonzero;stroke:none">Block Fails</tspan></text>
    <path d="M111.898 286.977h135.727v14.5H111.898Z" clip-path="url(#m)"
          style="fill:#fff;fill-opacity:1;fill-rule:nonzero;stroke:none"
          transform="translate(-64.005 -63.5)scale(1.33333)"/>
    <text xml:space="preserve" transform="translate(85.19 334.467)scale(1.33333)"><tspan x="0" y="0" dx="0 0 0 0 0 0 0 -0.46800005" style="font-variant:normal;font-weight:400;font-size:12px;font-family:&quot;Trebuchet MS&quot;;writing-mode:lr-tb;fill:#000;fill-opacity:1;fill-rule:nonzero;stroke:none">Other Responses Succeed</tspan></text>
    <path d="M262.621 286.977H373.91v14.5H262.621Z" clip-path="url(#n)"
          style="fill:#fff;fill-opacity:1;fill-rule:nonzero;stroke:none"
          transform="translate(-64.005 -63.5)scale(1.33333)"/>
    <text xml:space="preserve" transform="translate(286.157 334.467)scale(1.33333)"><tspan x="0" y="0" dx="0 0 0 0 0 0 0 -0.46800005" style="font-variant:normal;font-weight:400;font-size:12px;font-family:&quot;Trebuchet MS&quot;;writing-mode:lr-tb;fill:#000;fill-opacity:1;fill-rule:nonzero;stroke:none">Other Responses Fail</tspan></text>
    <path d="M128.93 78.449h140.738V48H128.93v30.449h-6 152.738V48H122.93v30.449z"
          style="fill:#cde498;fill-opacity:1;fill-rule:nonzero;stroke:#13540c;stroke-width:.75;stroke-linecap:butt;stroke-linejoin:miter;stroke-miterlimit:4;stroke-dasharray:none;stroke-opacity:1"
          transform="translate(-64.005 -63.5)scale(1.33333)"/>
    <text xml:space="preserve" transform="translate(115.403 23.333)scale(1.33333)"><tspan x="0" y="0" style="font-variant:normal;font-weight:400;font-size:12px;font-family:&quot;Trebuchet MS&quot;;writing-mode:lr-tb;fill:#000;fill-opacity:1;fill-rule:nonzero;stroke:none">Block Interaction Begins</tspan></text>
    <path d="M161.355 146.398h75.887l7.613-15.222-7.613-15.227h-75.887l-7.613 15.227z"
          style="fill:#cde498;fill-opacity:1;fill-rule:nonzero;stroke:#13540c;stroke-width:.75;stroke-linecap:butt;stroke-linejoin:miter;stroke-miterlimit:4;stroke-dasharray:none;stroke-opacity:1"
          transform="translate(-64.005 -63.5)scale(1.33333)"/>
    <text xml:space="preserve" clip-path="url(#o)" transform="translate(158.636 113.933)scale(1.33333)"><tspan x="0" y="0" style="font-variant:normal;font-weight:400;font-size:12px;font-family:&quot;Trebuchet MS&quot;;writing-mode:lr-tb;fill:#000;fill-opacity:1;fill-rule:nonzero;stroke:none">Block Check</tspan></text>
    <path d="M281.574 235.664c0 17.981-14.578 32.563-32.562 32.563-17.985 0-32.563-14.582-32.563-32.563 0-17.984 14.578-32.562 32.563-32.562 17.984 0 32.562 14.578 32.562 32.562"
          style="fill:#cde498;fill-opacity:1;fill-rule:nonzero;stroke:none"
          transform="translate(-64.005 -63.5)scale(1.33333)"/>
    <path d="M281.574 235.664c0 17.981-14.578 32.563-32.562 32.563-17.985 0-32.563-14.582-32.563-32.563 0-17.984 14.578-32.562 32.563-32.562 17.984 0 32.562 14.578 32.562 32.562"
          style="fill:none;stroke:#13540c;stroke-width:.75;stroke-linecap:butt;stroke-linejoin:miter;stroke-miterlimit:4;stroke-dasharray:none;stroke-opacity:1"
          transform="translate(-64.005 -63.5)scale(1.33333)"/>
    <text xml:space="preserve" transform="translate(247.595 240.45)scale(1.33333)"><tspan x="0" y="0" style="font-variant:normal;font-weight:400;font-size:12px;font-family:&quot;Trebuchet MS&quot;;writing-mode:lr-tb;fill:#000;fill-opacity:1;fill-rule:nonzero;stroke:none">Other</tspan></text>
    <text xml:space="preserve" transform="translate(232.095 259.783)scale(1.33333)"><tspan x="0" y="0" dx="0 -0.48000005" style="font-variant:normal;font-weight:400;font-size:12px;font-family:&quot;Trebuchet MS&quot;;writing-mode:lr-tb;fill:#000;fill-opacity:1;fill-rule:nonzero;stroke:none">Responses</tspan></text>
    <path d="M99.723 324.926h60.648c8.402 0 15.227 6.82 15.227 15.222 0 8.407-6.825 15.227-15.227 15.227H99.723c-8.403 0-15.227-6.82-15.227-15.227 0-8.402 6.824-15.222 15.227-15.222z"
          style="fill:#cde498;fill-opacity:1;fill-rule:nonzero;stroke:#13540c;stroke-width:.75;stroke-linecap:butt;stroke-linejoin:miter;stroke-miterlimit:4;stroke-dasharray:none;stroke-opacity:1"
          transform="translate(-64.005 -63.5)scale(1.33333)"/>
    <text xml:space="preserve" transform="translate(61.232 392.567)scale(1.33333)"><tspan x="0" y="0" style="font-variant:normal;font-weight:400;font-size:12px;font-family:&quot;Trebuchet MS&quot;;writing-mode:lr-tb;fill:#000;fill-opacity:1;fill-rule:nonzero;stroke:none">Effect Fizzles</tspan></text>
    <path d="M286.566 324.926h63.399c8.402 0 15.226 6.82 15.226 15.222 0 8.407-6.824 15.227-15.226 15.227h-63.399c-8.402 0-15.226-6.82-15.226-15.227 0-8.402 6.824-15.222 15.226-15.222z"
          style="fill:#cde498;fill-opacity:1;fill-rule:nonzero;stroke:#13540c;stroke-width:.75;stroke-linecap:butt;stroke-linejoin:miter;stroke-miterlimit:4;stroke-dasharray:none;stroke-opacity:1"
          transform="translate(-64.005 -63.5)scale(1.33333)"/>
    <text xml:space="preserve" transform="translate(310.357 392.567)scale(1.33333)"><tspan x="0" y="0" style="font-variant:normal;font-weight:400;font-size:12px;font-family:&quot;Trebuchet MS&quot;;writing-mode:lr-tb;fill:#000;fill-opacity:1;fill-rule:nonzero;stroke:none">Effect Applies</tspan></text>
</svg>