<?xml version="1.0" encoding="UTF-8" standalone="no"?>
<!-- Created with Inkscape (http://www.inkscape.org/) -->

<svg
   version="1.1"
   id="svg1"
   width="434.54132"
   height="410.83331"
   viewBox="0 0 434.54132 410.83331"
   sodipodi:docname="block-interaction.svg"
   inkscape:version="1.4.3 (0d15f75042, 2025-12-25)"
   xmlns:inkscape="http://www.inkscape.org/namespaces/inkscape"
   xmlns:sodipodi="http://sodipodi.sourceforge.net/DTD/sodipodi-0.dtd"
   xmlns="http://www.w3.org/2000/svg"
   xmlns:svg="http://www.w3.org/2000/svg">
  <defs
     id="defs1">
    <clipPath
       clipPathUnits="userSpaceOnUse"
       id="clipPath2">
      <path
         d="m 112.09399,-201.81821 8.99997,0.001 -10e-4,8.99997 -8.99997,-0.001 z"
         id="path2" />
    </clipPath>
    <clipPath
       clipPathUnits="userSpaceOnUse"
       id="clipPath4">
      <path
         d="m 260,144 h 13.33333 v 13.33333 H 260 Z"
         id="path4" />
    </clipPath>
    <clipPath
       clipPathUnits="userSpaceOnUse"
       id="clipPath6">
      <path
         d="m 113.25,315.95301 6.203,6.524 -6.523,6.203 -6.203,-6.524 z"
         id="path6" />
    </clipPath>
    <clipPath
       clipPathUnits="userSpaceOnUse"
       id="clipPath8">
      <path
         d="m 222.4921,98.296605 6.52398,2.8e-5 4.7e-4,6.523447 -6.52398,-3e-5 z"
         id="path8" />
    </clipPath>
    <clipPath
       clipPathUnits="userSpaceOnUse"
       id="clipPath10">
      <path
         d="M 141.33333,420 H 156 v 16 h -14.66667 z"
         id="path10" />
    </clipPath>
    <clipPath
       clipPathUnits="userSpaceOnUse"
       id="clipPath13">
      <path
         d="m 195,-244.51201 v -9 h 9.00001 v 9 z"
         id="path13" />
    </clipPath>
    <clipPath
       clipPathUnits="userSpaceOnUse"
       id="clipPath15">
      <path
         d="m 156.473,322.96901 -6.77,5.933 -5.933,-6.769 6.769,-5.934 z"
         id="path15" />
    </clipPath>
    <clipPath
       clipPathUnits="userSpaceOnUse"
       id="clipPath17">
      <path
         d="m 71.605757,-260.20377 6.769421,6.7e-4 -1.66e-4,6.76885 -6.769351,4e-4 z"
         id="path17" />
    </clipPath>
    <clipPath
       clipPathUnits="userSpaceOnUse"
       id="clipPath19">
      <path
         d="m 193.33333,421.33333 h 16 V 436 h -16 z"
         id="path19" />
    </clipPath>
    <clipPath
       clipPathUnits="userSpaceOnUse"
       id="clipPath22">
      <path
         d="m 316.82401,-313.76601 v -9 h 9 v 9 z"
         id="path22" />
    </clipPath>
    <clipPath
       clipPathUnits="userSpaceOnUse"
       id="clipPath24">
      <path
         d="M 48.004001,226.06201 H 129.242 v 14.938 H 48.004001 Z"
         id="path24" />
    </clipPath>
    <clipPath
       clipPathUnits="userSpaceOnUse"
       id="clipPath26">
      <path
         d="m 220.61701,165.148 h 56.789 V 180 h -56.789 z"
         id="path26" />
    </clipPath>
    <clipPath
       clipPathUnits="userSpaceOnUse"
       id="clipPath28">
      <path
         d="m 111.898,286.97701 h 135.72701 v 15.023 H 111.898 Z"
         id="path28" />
    </clipPath>
    <clipPath
       clipPathUnits="userSpaceOnUse"
       id="clipPath30">
      <path
         d="m 262.62101,286.97701 h 111.289 v 15.023 h -111.289 z"
         id="path30" />
    </clipPath>
    <clipPath
       clipPathUnits="userSpaceOnUse"
       id="clipPath33">
      <path
         d="M 0.01877,-9.0749902 H 64.647772 V 0.92501002 H 0.01877 Z"
         id="path33" />
    </clipPath>
  </defs>
  <sodipodi:namedview
     id="namedview1"
     pagecolor="#ffffff"
     bordercolor="#111111"
     borderopacity="1"
     inkscape:showpageshadow="0"
     inkscape:pageopacity="0"
     inkscape:pagecheckerboard="1"
     inkscape:deskcolor="#d1d1d1"
     inkscape:zoom="0.38125483"
     inkscape:cx="175.73548"
     inkscape:cy="419.66681"
     inkscape:window-width="1268"
     inkscape:window-height="711"
     inkscape:window-x="35"
     inkscape:window-y="32"
     inkscape:window-maximized="0"
     inkscape:current-layer="g1">
    <inkscape:page
       x="1.1795029e-07"
       y="4.618804e-07"
       inkscape:label="1"
       id="page1"
       width="434.54132"
       height="410.83331"
       margin="0"
       bleed="0" />
  </sodipodi:namedview>
  <g
     id="g1"
     inkscape:groupmode="layer"
     inkscape:label="1"
     transform="translate(-64.005333,-63.5)">
    <path
       id="path1"
       d="m 199.676,78.824 -0.063,3.063 c -0.062,3.062 -0.187,9.187 -0.187,15.437 0,6.25 0.125,12.625 0.187,15.813 l 0.063,3.187"
       style="fill:none;stroke:#000000;stroke-width:1.5;stroke-linecap:butt;stroke-linejoin:miter;stroke-miterlimit:4;stroke-dasharray:none;stroke-opacity:1"
       transform="scale(1.3333333)" />
    <g
       id="g3"
       clip-path="url(#clipPath4)">
      <path
         d="m 112.094,-201.818 9.001,4.501 -8.998,4.499 z"
         style="fill:#000000;fill-opacity:1;fill-rule:nonzero;stroke:#000000;stroke-width:0.899827;stroke-linecap:butt;stroke-linejoin:miter;stroke-miterlimit:4;stroke-dasharray:none;stroke-opacity:1"
         transform="matrix(0.02614227,1.3333333,-1.3333333,0.02614227,0,0)"
         clip-path="url(#clipPath2)"
         id="path3" />
    </g>
    <path
       id="path5"
       d="m 161.613,146.535 -12.168,4.703 c -12.164,4.703 -36.496,14.106 -48.664,28.961 -12.164,14.856 -12.164,35.16 -12.164,55.465 0,20.301 0,40.606 4.492,55.484 4.493,14.875 13.477,24.329 17.969,29.051 l 4.492,4.727"
       style="fill:none;stroke:#000000;stroke-width:1.5;stroke-linecap:butt;stroke-linejoin:miter;stroke-miterlimit:4;stroke-dasharray:none;stroke-opacity:1"
       transform="scale(1.3333333)" />
    <g
       id="g7">
      <path
         d="m 113.25,315.953 2.941,9.625 -9.464,-3.422 z"
         style="fill:#000000;fill-opacity:1;fill-rule:nonzero;stroke:none"
         transform="scale(1.3333333)"
         clip-path="url(#clipPath6)"
         id="path7" />
    </g>
    <g
       id="g9"
       clip-path="url(#clipPath10)">
      <path
         d="m 222.492,98.297 6.524,3.261 -6.523,3.262 z"
         style="fill:none;stroke:#000000;stroke-width:0.652237;stroke-linecap:butt;stroke-linejoin:miter;stroke-miterlimit:4;stroke-dasharray:none;stroke-opacity:1"
         transform="matrix(1.26774,1.3333333,-1.3333333,1.26774,0,0)"
         clip-path="url(#clipPath8)"
         id="path9" />
    </g>
    <path
       id="path11"
       d="m 217.043,146.773 5.328,4.665 c 5.328,4.664 15.984,13.988 21.313,23.374 5.328,9.387 5.328,18.836 5.328,23.563 v 4.727"
       style="fill:none;stroke:#000000;stroke-width:1.5;stroke-linecap:butt;stroke-linejoin:miter;stroke-miterlimit:4;stroke-dasharray:none;stroke-opacity:1"
       transform="scale(1.3333333)" />
    <path
       id="path12"
       d="m 195,-253.512 9,4.5 -9,4.5 z"
       style="fill:#000000;fill-opacity:1;fill-rule:nonzero;stroke:#000000;stroke-width:0.9;stroke-linecap:butt;stroke-linejoin:miter;stroke-miterlimit:4;stroke-dasharray:none;stroke-opacity:1"
       transform="matrix(0,1.3333333,-1.3333333,0,0,0)"
       clip-path="url(#clipPath13)" />
    <path
       id="path14"
       d="m 224.562,257.168 -7.468,6.566 c -7.465,6.571 -22.399,19.704 -35.258,30.996 -12.859,11.293 -23.637,20.747 -29.027,25.469 l -5.391,4.727"
       style="fill:none;stroke:#000000;stroke-width:1.5;stroke-linecap:butt;stroke-linejoin:miter;stroke-miterlimit:4;stroke-dasharray:none;stroke-opacity:1"
       transform="scale(1.3333333)" />
    <g
       id="g16">
      <path
         d="m 156.473,322.969 -9.735,2.551 3.805,-9.317 z"
         style="fill:#000000;fill-opacity:1;fill-rule:nonzero;stroke:none"
         transform="scale(1.3333333)"
         clip-path="url(#clipPath15)"
         id="path16" />
    </g>
    <g
       id="g18"
       clip-path="url(#clipPath19)">
      <path
         d="m 71.606,-260.204 6.769,3.383 -6.77,3.383 z"
         style="fill:none;stroke:#000000;stroke-width:0.676803;stroke-linecap:butt;stroke-linejoin:miter;stroke-miterlimit:4;stroke-dasharray:none;stroke-opacity:1"
         transform="matrix(-1.3333333,1.1687187,-1.1687187,-1.3333333,0,0)"
         clip-path="url(#clipPath17)"
         id="path18" />
    </g>
    <path
       id="path20"
       d="m 273.465,257.168 7.465,6.566 c 7.468,6.571 22.402,19.704 29.867,30.996 7.469,11.293 7.469,20.747 7.469,25.469 v 4.727"
       style="fill:none;stroke:#000000;stroke-width:1.5;stroke-linecap:butt;stroke-linejoin:miter;stroke-miterlimit:4;stroke-dasharray:none;stroke-opacity:1"
       transform="scale(1.3333333)" />
    <path
       id="path21"
       d="m 316.824,-322.766 9,4.5 -9,4.5 z"
       style="fill:#000000;fill-opacity:1;fill-rule:nonzero;stroke:#000000;stroke-width:0.9;stroke-linecap:butt;stroke-linejoin:miter;stroke-miterlimit:4;stroke-dasharray:none;stroke-opacity:1"
       transform="matrix(0,1.3333333,-1.3333333,0,0,0)"
       clip-path="url(#clipPath22)" />
    <path
       id="path23"
       d="m 48.004,226.062 h 81.227 v 14.5 H 48.004 Z"
       style="fill:#ffffff;fill-opacity:1;fill-rule:nonzero;stroke:none"
       transform="scale(1.3333333)"
       clip-path="url(#clipPath24)" />
    <text
       id="text24"
       xml:space="preserve"
       transform="matrix(1.3333333,0,0,1.3333333,64.004135,316.75002)"><tspan
         id="tspan24"
         style="font-variant:normal;font-weight:normal;font-size:12px;font-family:'Trebuchet MS';writing-mode:lr-tb;fill:#000000;fill-opacity:1;fill-rule:nonzero;stroke:none"
         x="0"
         y="0">Block Succeeds</tspan></text>
    <path
       id="path25"
       d="m 220.617,165.148 h 56.789 v 14.5 h -56.789 z"
       style="fill:#ffffff;fill-opacity:1;fill-rule:nonzero;stroke:none"
       transform="scale(1.3333333)"
       clip-path="url(#clipPath26)" />
    <text
       id="text26"
       xml:space="preserve"
       transform="matrix(1.3333333,0,0,1.3333333,294.15835,235.53333)"><tspan
         id="tspan26"
         style="font-variant:normal;font-weight:normal;font-size:12px;font-family:'Trebuchet MS';writing-mode:lr-tb;fill:#000000;fill-opacity:1;fill-rule:nonzero;stroke:none"
         x="0"
         y="0">Block Fails</tspan></text>
    <path
       id="path27"
       d="m 111.898,286.977 h 135.727 v 14.5 H 111.898 Z"
       style="fill:#ffffff;fill-opacity:1;fill-rule:nonzero;stroke:none"
       transform="scale(1.3333333)"
       clip-path="url(#clipPath28)" />
    <text
       id="text28"
       xml:space="preserve"
       transform="matrix(1.3333333,0,0,1.3333333,149.19582,397.96668)"><tspan
         id="tspan28"
         style="font-variant:normal;font-weight:normal;font-size:12px;font-family:'Trebuchet MS';writing-mode:lr-tb;fill:#000000;fill-opacity:1;fill-rule:nonzero;stroke:none"
         x="0"
         dx="0 0 0 0 0 0 0 -0.46800005"
         y="0">Other Responses Succeed</tspan></text>
    <path
       id="path29"
       d="M 262.621,286.977 H 373.91 v 14.5 H 262.621 Z"
       style="fill:#ffffff;fill-opacity:1;fill-rule:nonzero;stroke:none"
       transform="scale(1.3333333)"
       clip-path="url(#clipPath30)" />
    <text
       id="text30"
       xml:space="preserve"
       transform="matrix(1.3333333,0,0,1.3333333,350.16252,397.96668)"><tspan
         id="tspan30"
         style="font-variant:normal;font-weight:normal;font-size:12px;font-family:'Trebuchet MS';writing-mode:lr-tb;fill:#000000;fill-opacity:1;fill-rule:nonzero;stroke:none"
         x="0"
         dx="0 0 0 0 0 0 0 -0.46800005"
         y="0">Other Responses Fail</tspan></text>
    <path
       id="path31"
       d="M 128.93,78.449 H 269.668 V 48 H 128.93 v 30.449 h -6 152.738 V 48 H 122.93 v 30.449 z"
       style="fill:#cde498;fill-opacity:1;fill-rule:nonzero;stroke:#13540c;stroke-width:0.75;stroke-linecap:butt;stroke-linejoin:miter;stroke-miterlimit:4;stroke-dasharray:none;stroke-opacity:1"
       transform="scale(1.3333333)" />
    <text
       id="text31"
       xml:space="preserve"
       transform="matrix(1.3333333,0,0,1.3333333,179.40833,86.833335)"><tspan
         id="tspan31"
         style="font-variant:normal;font-weight:normal;font-size:12px;font-family:'Trebuchet MS';writing-mode:lr-tb;fill:#000000;fill-opacity:1;fill-rule:nonzero;stroke:none"
         x="0"
         y="0">Block Interaction Begins</tspan></text>
    <path
       id="path32"
       d="m 161.355,146.398 h 75.887 l 7.613,-15.222 -7.613,-15.227 h -75.887 l -7.613,15.227 z"
       style="fill:#cde498;fill-opacity:1;fill-rule:nonzero;stroke:#13540c;stroke-width:0.75;stroke-linecap:butt;stroke-linejoin:miter;stroke-miterlimit:4;stroke-dasharray:none;stroke-opacity:1"
       transform="scale(1.3333333)" />
    <text
       id="text32"
       xml:space="preserve"
       transform="matrix(1.3333333,0,0,1.3333333,222.64164,177.43332)"
       clip-path="url(#clipPath33)"><tspan
         id="tspan32"
         style="font-variant:normal;font-weight:normal;font-size:12px;font-family:'Trebuchet MS';writing-mode:lr-tb;fill:#000000;fill-opacity:1;fill-rule:nonzero;stroke:none"
         x="0"
         y="0">Block Check</tspan></text>
    <path
       id="path34"
       d="m 281.574,235.664 c 0,17.981 -14.578,32.563 -32.562,32.563 -17.985,0 -32.563,-14.582 -32.563,-32.563 0,-17.984 14.578,-32.562 32.563,-32.562 17.984,0 32.562,14.578 32.562,32.562 z"
       style="fill:#cde498;fill-opacity:1;fill-rule:nonzero;stroke:none"
       transform="scale(1.3333333)" />
    <path
       id="path35"
       d="m 281.574,235.664 c 0,17.981 -14.578,32.563 -32.562,32.563 -17.985,0 -32.563,-14.582 -32.563,-32.563 0,-17.984 14.578,-32.562 32.563,-32.562 17.984,0 32.562,14.578 32.562,32.562"
       style="fill:none;stroke:#13540c;stroke-width:0.75;stroke-linecap:butt;stroke-linejoin:miter;stroke-miterlimit:4;stroke-dasharray:none;stroke-opacity:1"
       transform="scale(1.3333333)" />
    <text
       id="text35"
       xml:space="preserve"
       transform="matrix(1.3333333,0,0,1.3333333,311.60002,303.95001)"><tspan
         id="tspan35"
         style="font-variant:normal;font-weight:normal;font-size:12px;font-family:'Trebuchet MS';writing-mode:lr-tb;fill:#000000;fill-opacity:1;fill-rule:nonzero;stroke:none"
         x="0"
         y="0">Other</tspan></text>
    <text
       id="text36"
       xml:space="preserve"
       transform="matrix(1.3333333,0,0,1.3333333,296.10002,323.28335)"><tspan
         id="tspan36"
         style="font-variant:normal;font-weight:normal;font-size:12px;font-family:'Trebuchet MS';writing-mode:lr-tb;fill:#000000;fill-opacity:1;fill-rule:nonzero;stroke:none"
         x="0"
         dx="0 -0.48000005"
         y="0">Responses</tspan></text>
    <path
       id="path36"
       d="m 99.723,324.926 h 60.648 c 8.402,0 15.227,6.82 15.227,15.222 0,8.407 -6.825,15.227 -15.227,15.227 H 99.723 c -8.403,0 -15.227,-6.82 -15.227,-15.227 0,-8.402 6.824,-15.222 15.227,-15.222 z"
       style="fill:#cde498;fill-opacity:1;fill-rule:nonzero;stroke:#13540c;stroke-width:0.75;stroke-linecap:butt;stroke-linejoin:miter;stroke-miterlimit:4;stroke-dasharray:none;stroke-opacity:1"
       transform="scale(1.3333333)" />
    <text
       id="text37"
       xml:space="preserve"
       transform="matrix(1.3333333,0,0,1.3333333,125.23747,456.06665)"><tspan
         id="tspan37"
         style="font-variant:normal;font-weight:normal;font-size:12px;font-family:'Trebuchet MS';writing-mode:lr-tb;fill:#000000;fill-opacity:1;fill-rule:nonzero;stroke:none"
         x="0"
         y="0">Effect Fizzles</tspan></text>
    <path
       id="path37"
       d="m 286.566,324.926 h 63.399 c 8.402,0 15.226,6.82 15.226,15.222 0,8.407 -6.824,15.227 -15.226,15.227 h -63.399 c -8.402,0 -15.226,-6.82 -15.226,-15.227 0,-8.402 6.824,-15.222 15.226,-15.222 z"
       style="fill:#cde498;fill-opacity:1;fill-rule:nonzero;stroke:#13540c;stroke-width:0.75;stroke-linecap:butt;stroke-linejoin:miter;stroke-miterlimit:4;stroke-dasharray:none;stroke-opacity:1"
       transform="scale(1.3333333)" />
    <text
       id="text38"
       xml:space="preserve"
       transform="matrix(1.3333333,0,0,1.3333333,374.36255,456.06665)"><tspan
         id="tspan38"
         style="font-variant:normal;font-weight:normal;font-size:12px;font-family:'Trebuchet MS';writing-mode:lr-tb;fill:#000000;fill-opacity:1;fill-rule:nonzero;stroke:none"
         x="0"
         y="0">Effect Applies</tspan></text>
  </g>
</svg>
