<svg xmlns="http://www.w3.org/2000/svg" width="763.068" height="1177.989">
    <defs>
        <clipPath id="b" clipPathUnits="userSpaceOnUse">
            <path d="m114.434-320.897 9 .001-.001 9-9-.001z"/>
        </clipPath>
        <clipPath id="a" clipPathUnits="userSpaceOnUse">
            <path d="M418.667 144H432v13.333h-13.333z"/>
        </clipPath>
        <clipPath id="c" clipPathUnits="userSpaceOnUse">
            <path d="m149.785 893.137 8.371 3.301-3.301 8.371-8.371-3.301z"/>
        </clipPath>
        <clipPath id="e" clipPathUnits="userSpaceOnUse">
            <path d="M434.46 721.785h8.37v8.37h-8.37z"/>
        </clipPath>
        <clipPath id="d" clipPathUnits="userSpaceOnUse">
            <path d="M194.667 1190.667h16V1204h-16z"/>
        </clipPath>
        <clipPath id="f" clipPathUnits="userSpaceOnUse">
            <path d="M195.004-365.234v-9h9v9z"/>
        </clipPath>
        <clipPath id="g" clipPathUnits="userSpaceOnUse">
            <path d="M282.152-233.215v-9h9v9z"/>
        </clipPath>
        <clipPath id="i" clipPathUnits="userSpaceOnUse">
            <path d="M463.22-494.145h9v9h-9z"/>
        </clipPath>
        <clipPath id="h" clipPathUnits="userSpaceOnUse">
            <path d="M654.667 608H668v13.333h-13.333z"/>
        </clipPath>
        <clipPath id="j" clipPathUnits="userSpaceOnUse">
            <path d="m421.031 556.051-8.426 3.16-3.16-8.426 8.426-3.16z"/>
        </clipPath>
        <clipPath id="l" clipPathUnits="userSpaceOnUse">
            <path d="M-186.318-625.918h8.426v8.425h-8.426z"/>
        </clipPath>
        <clipPath id="k" clipPathUnits="userSpaceOnUse">
            <path d="M545.333 729.333h17.334v13.334h-17.334z"/>
        </clipPath>
        <clipPath id="n" clipPathUnits="userSpaceOnUse">
            <path d="M372.05-186.315h9l-.001 9h-9z"/>
        </clipPath>
        <clipPath id="m" clipPathUnits="userSpaceOnUse">
            <path d="M242.667 492H256v13.333h-13.333z"/>
        </clipPath>
        <clipPath id="p" clipPathUnits="userSpaceOnUse">
            <path d="M459.183-185.178h9v9h-9z"/>
        </clipPath>
        <clipPath id="o" clipPathUnits="userSpaceOnUse">
            <path d="M242.667 608H256v13.333h-13.333z"/>
        </clipPath>
        <clipPath id="q" clipPathUnits="userSpaceOnUse">
            <path d="m355.34 543.227 7.18 5.425-5.426 7.18-7.18-5.426z"/>
        </clipPath>
        <clipPath id="s" clipPathUnits="userSpaceOnUse">
            <path d="m487.43 174.718 7.18-.002v7.179h-7.179z"/>
        </clipPath>
        <clipPath id="r" clipPathUnits="userSpaceOnUse">
            <path d="M465.333 724h16v13.333h-16z"/>
        </clipPath>
        <clipPath id="t" clipPathUnits="userSpaceOnUse">
            <path d="m182.23 891.094 5.258 7.304-7.304 5.258-5.258-7.304z"/>
        </clipPath>
        <clipPath id="v" clipPathUnits="userSpaceOnUse">
            <path d="M673.34 302.49h7.304v7.303h-7.304z"/>
        </clipPath>
        <clipPath id="u" clipPathUnits="userSpaceOnUse">
            <path d="M232 1188h14.667v14.667H232Z"/>
        </clipPath>
        <clipPath id="w" clipPathUnits="userSpaceOnUse">
            <path d="m339.973 551.414 8.675 2.395-2.394 8.675-8.676-2.394z"/>
        </clipPath>
        <clipPath id="y" clipPathUnits="userSpaceOnUse">
            <path d="M457.377 425.093h8.675l.002 8.674-8.675.002z"/>
        </clipPath>
        <clipPath id="x" clipPathUnits="userSpaceOnUse">
            <path d="M449.333 734.667h16V748h-16z"/>
        </clipPath>
        <clipPath id="A" clipPathUnits="userSpaceOnUse">
            <path d="M808.896-270.595h9v9h-9z"/>
        </clipPath>
        <clipPath id="z" clipPathUnits="userSpaceOnUse">
            <path d="M362.667 1073.333H376v13.334h-13.333z"/>
        </clipPath>
        <clipPath id="B" clipPathUnits="userSpaceOnUse">
            <path d="m232.227 900.473-7.95 4.218-4.218-7.949 7.949-4.219z"/>
        </clipPath>
        <clipPath id="D" clipPathUnits="userSpaceOnUse">
            <path d="M191.638-798.783h7.95v7.95h-7.95z"/>
        </clipPath>
        <clipPath id="C" clipPathUnits="userSpaceOnUse">
            <path d="M294.667 1189.333h16v13.334h-16z"/>
        </clipPath>
        <clipPath id="E" clipPathUnits="userSpaceOnUse">
            <path d="M630.75-431.469v-9h9v9z"/>
        </clipPath>
        <clipPath id="F" clipPathUnits="userSpaceOnUse">
            <path d="m417.066 891.461 6.539 6.184-6.183 6.539-6.539-6.184z"/>
        </clipPath>
        <clipPath id="H" clipPathUnits="userSpaceOnUse">
            <path d="M665.266 262.546h6.54v6.54h-6.54z"/>
        </clipPath>
        <clipPath id="G" clipPathUnits="userSpaceOnUse">
            <path d="M546.667 1188h16v14.667h-16z"/>
        </clipPath>
        <clipPath id="J" clipPathUnits="userSpaceOnUse">
            <path d="M725.068-525.084h9v9h-9z"/>
        </clipPath>
        <clipPath id="I" clipPathUnits="userSpaceOnUse">
            <path d="M700 957.333h13.333v13.334H700Z"/>
        </clipPath>
        <clipPath id="L" clipPathUnits="userSpaceOnUse">
            <path d="M812.201-523.946h9v9h-9z"/>
        </clipPath>
        <clipPath id="K" clipPathUnits="userSpaceOnUse">
            <path d="M700 1073.333h13.333v13.334H700Z"/>
        </clipPath>
        <clipPath id="M" clipPathUnits="userSpaceOnUse">
            <path d="m248.512 911.695-8.895 1.375-1.375-8.894 8.895-1.375z"/>
        </clipPath>
        <clipPath id="O" clipPathUnits="userSpaceOnUse">
            <path d="M-105.21-927.943h8.895l.002 8.894h-8.895z"/>
        </clipPath>
        <clipPath id="N" clipPathUnits="userSpaceOnUse">
            <path d="M317.333 1202.667H332v14.666h-14.667z"/>
        </clipPath>
        <clipPath id="P" clipPathUnits="userSpaceOnUse">
            <path d="m491.93 903.797-8.637 2.531-2.531-8.637 8.636-2.531z"/>
        </clipPath>
        <clipPath id="R" clipPathUnits="userSpaceOnUse">
            <path d="m-208.867-965.06 8.636.002-.002 8.636-8.635-.002z"/>
        </clipPath>
        <clipPath id="Q" clipPathUnits="userSpaceOnUse">
            <path d="M640 1193.333h16v13.334h-16z"/>
        </clipPath>
        <clipPath id="S" clipPathUnits="userSpaceOnUse">
            <path d="M48 513.75h71.586V529H48Z"/>
        </clipPath>
        <clipPath id="T" clipPathUnits="userSpaceOnUse">
            <path d="M340.035 165.152h59.398V180h-59.398z"/>
        </clipPath>
        <clipPath id="U" clipPathUnits="userSpaceOnUse">
            <path d="M230.664 252.301h14.113V267h-14.113z"/>
        </clipPath>
        <clipPath id="V" clipPathUnits="userSpaceOnUse">
            <path d="M486.926 339.453h17.012V354h-17.012z"/>
        </clipPath>
        <clipPath id="W" clipPathUnits="userSpaceOnUse">
            <path d="M177.906 339.453h17.012V354h-17.012z"/>
        </clipPath>
        <clipPath id="X" clipPathUnits="userSpaceOnUse">
            <path d="M314.539 426.602h14.113V442h-14.113z"/>
        </clipPath>
        <clipPath id="Y" clipPathUnits="userSpaceOnUse">
            <path d="M122.289 688.047h81.238V703h-81.238Z"/>
        </clipPath>
        <clipPath id="Z" clipPathUnits="userSpaceOnUse">
            <path d="M193.059 513.75h56.785V529h-56.785Z"/>
        </clipPath>
        <clipPath id="aa" clipPathUnits="userSpaceOnUse">
            <path d="M267.887 688.047h17.012V703h-17.012z"/>
        </clipPath>
        <clipPath id="ab" clipPathUnits="userSpaceOnUse">
            <path d="M428.918 600.898h14.113V616h-14.113z"/>
        </clipPath>
        <clipPath id="ac" clipPathUnits="userSpaceOnUse">
            <path d="M382.824 775.195h14.113V790h-14.113z"/>
        </clipPath>
        <clipPath id="ad" clipPathUnits="userSpaceOnUse">
            <path d="M521.277 688.047h17.012V703h-17.012z"/>
        </clipPath>
        <clipPath id="ae" clipPathUnits="userSpaceOnUse">
            <path d="M434.715 862.348h83.438V877h-83.438z"/>
        </clipPath>
        <clipPath id="af" clipPathUnits="userSpaceOnUse">
            <path d="M555.027 862.348h59.012V877h-59.012z"/>
        </clipPath>
        <clipPath id="ag" clipPathUnits="userSpaceOnUse">
            <path d="M-.002-8.846h58.973v9H-.002Z"/>
        </clipPath>
        <clipPath id="ah" clipPathUnits="userSpaceOnUse">
            <path d="M0-9.675h64.648v10H0Z"/>
        </clipPath>
    </defs>
    <path d="M318.426 78.453v3.125c0 3.125 0 9.375.062 15.688.063 6.312.188 12.687.25 15.875l.063 3.187"
          style="fill:none;stroke:#000;stroke-width:1.49998;stroke-linecap:butt;stroke-linejoin:miter;stroke-miterlimit:4;stroke-dasharray:none;stroke-opacity:1"
          transform="translate(-64 -63.505)scale(1.33333)"/>
    <g clip-path="url(#a)" transform="translate(-64 -63.505)">
        <path d="m114.433-320.897 9.002 4.501-8.998 4.5z" clip-path="url(#b)"
              style="fill:#000;fill-opacity:1;fill-rule:nonzero;stroke:#000;stroke-width:.899817;stroke-linecap:butt;stroke-linejoin:miter;stroke-miterlimit:4;stroke-dasharray:none;stroke-opacity:1"
              transform="rotate(88.877)scale(1.33359)"/>
    </g>
    <path d="m279.918 138.773-32.688 5.997c-32.691 5.996-98.066 17.992-130.753 31.25-32.692 13.257-32.692 27.785-32.692 42.308v610.043c0 14.524 0 29.051 11.981 41.039 11.98 11.985 35.941 21.438 47.922 26.16l11.98 4.727"
          style="fill:none;stroke:#000;stroke-width:1.49998;stroke-linecap:butt;stroke-linejoin:miter;stroke-miterlimit:4;stroke-dasharray:none;stroke-opacity:1"
          transform="translate(-64 -63.505)scale(1.33333)"/>
    <path d="m149.785 893.137 6.719 7.488-10.024.887z" clip-path="url(#c)"
          style="fill:#000;fill-opacity:1;fill-rule:nonzero;stroke:none"
          transform="translate(-64 -63.505)scale(1.33333)"/>
    <g clip-path="url(#d)" transform="translate(-64 -63.505)">
        <path d="m434.459 721.785 8.37 4.187-8.371 4.188z" clip-path="url(#e)"
              style="fill:none;stroke:#000;stroke-width:.837226;stroke-linecap:butt;stroke-linejoin:miter;stroke-miterlimit:4;stroke-dasharray:none;stroke-opacity:1"
              transform="rotate(21.525)scale(1.43329)"/>
    </g>
    <path d="m336.727 146.777 5.5 4.664c5.503 4.661 16.503 13.989 22.007 23.375 5.5 9.387 5.5 18.836 5.5 23.563v4.723"
          style="fill:none;stroke:#000;stroke-width:1.49998;stroke-linecap:butt;stroke-linejoin:miter;stroke-miterlimit:4;stroke-dasharray:none;stroke-opacity:1"
          transform="translate(-64 -63.505)scale(1.33333)"/>
    <path d="m195.004-374.234 9 4.5-9 4.5z" clip-path="url(#f)"
          style="fill:#000;fill-opacity:1;fill-rule:nonzero;stroke:#000;stroke-width:.89999;stroke-linecap:butt;stroke-linejoin:miter;stroke-miterlimit:4;stroke-dasharray:none;stroke-opacity:1"
          transform="rotate(90 -.247 -63.752)scale(1.33333)"/>
    <path d="m332.465 230.629-15.793 5.211c-15.789 5.215-47.375 15.637-63.168 25.574-15.789 9.938-15.789 19.387-15.789 24.113v4.727"
          style="fill:none;stroke:#000;stroke-width:1.49998;stroke-linecap:butt;stroke-linejoin:miter;stroke-miterlimit:4;stroke-dasharray:none;stroke-opacity:1"
          transform="translate(-64 -63.505)scale(1.33333)"/>
    <path d="m282.152-242.215 9 4.5-9 4.5z" clip-path="url(#g)"
          style="fill:#000;fill-opacity:1;fill-rule:nonzero;stroke:#000;stroke-width:.89999;stroke-linecap:butt;stroke-linejoin:miter;stroke-miterlimit:4;stroke-dasharray:none;stroke-opacity:1"
          transform="rotate(90 -.247 -63.752)scale(1.33333)"/>
    <path d="m407.004 231.246 14.734 5.109c14.739 5.11 44.215 15.329 58.95 27.7 14.738 12.371 14.738 26.898 14.738 41.422v87.148c0 14.527 0 29.051.062 41.102.063 12.05.188 21.625.25 26.41l.063 4.789"
          style="fill:none;stroke:#000;stroke-width:1.49998;stroke-linecap:butt;stroke-linejoin:miter;stroke-miterlimit:4;stroke-dasharray:none;stroke-opacity:1"
          transform="translate(-64 -63.505)scale(1.33333)"/>
    <g clip-path="url(#h)" transform="translate(-64 -63.505)">
        <path d="m463.22-494.145 9 4.5-8.997 4.5z" clip-path="url(#i)"
              style="fill:#000;fill-opacity:1;fill-rule:nonzero;stroke:#000;stroke-width:.899914;stroke-linecap:butt;stroke-linejoin:miter;stroke-miterlimit:4;stroke-dasharray:none;stroke-opacity:1"
              transform="rotate(89.252)scale(1.33345)"/>
    </g>
    <path d="m495.801 495.375-.063 4.664c-.062 4.66-.187 13.984-14.176 23.871-13.988 9.883-41.839 20.328-55.769 25.551l-13.926 5.223"
          style="fill:none;stroke:#000;stroke-width:1.49998;stroke-linecap:butt;stroke-linejoin:miter;stroke-miterlimit:4;stroke-dasharray:none;stroke-opacity:1"
          transform="translate(-64 -63.505)scale(1.33333)"/>
    <path d="M421.031 556.051 411.023 555l6.848-7.375z" clip-path="url(#j)"
          style="fill:#000;fill-opacity:1;fill-rule:nonzero;stroke:none"
          transform="translate(-64 -63.505)scale(1.33333)"/>
    <g clip-path="url(#k)" transform="translate(-64 -63.505)">
        <path d="m-186.319-625.918 8.429 4.211-8.428 4.215z" clip-path="url(#l)"
              style="fill:none;stroke:#000;stroke-width:.84269;stroke-linecap:butt;stroke-linejoin:miter;stroke-miterlimit:4;stroke-dasharray:none;stroke-opacity:1"
              transform="rotate(159.445)scale(1.424)"/>
    </g>
    <path d="m219.785 320.703-5.562 4.723c-5.563 4.726-16.692 14.176-22.192 23.687s-5.375 19.09-5.312 23.875l.062 4.789"
          style="fill:none;stroke:#000;stroke-width:1.49998;stroke-linecap:butt;stroke-linejoin:miter;stroke-miterlimit:4;stroke-dasharray:none;stroke-opacity:1"
          transform="translate(-64 -63.505)scale(1.33333)"/>
    <g clip-path="url(#m)" transform="translate(-64 -63.505)">
        <path d="m372.049-186.315 9 4.496-9 4.5z" clip-path="url(#n)"
              style="fill:#000;fill-opacity:1;fill-rule:nonzero;stroke:#000;stroke-width:.899914;stroke-linecap:butt;stroke-linejoin:miter;stroke-miterlimit:4;stroke-dasharray:none;stroke-opacity:1"
              transform="rotate(89.252)scale(1.33345)"/>
    </g>
    <path d="m186.781 408.227-.062 4.66c-.063 4.664-.188 13.988-.188 23.437 0 9.453.125 19.028.188 23.813l.062 4.789"
          style="fill:none;stroke:#000;stroke-width:1.49998;stroke-linecap:butt;stroke-linejoin:miter;stroke-miterlimit:4;stroke-dasharray:none;stroke-opacity:1"
          transform="translate(-64 -63.505)scale(1.33333)"/>
    <g clip-path="url(#o)" transform="translate(-64 -63.505)">
        <path d="m459.183-185.178 9 4.497-9 4.499z" clip-path="url(#p)"
              style="fill:#000;fill-opacity:1;fill-rule:nonzero;stroke:#000;stroke-width:.899914;stroke-linecap:butt;stroke-linejoin:miter;stroke-miterlimit:4;stroke-dasharray:none;stroke-opacity:1"
              transform="rotate(89.252)scale(1.33345)"/>
    </g>
    <path d="m267.02 320.703 9.093 4.723c9.094 4.726 27.285 14.176 36.379 26.164s9.094 26.512 9.094 41.035v87.148c0 14.528 0 29.051 6.25 41.039s18.75 21.438 25 26.161l6.25 4.726"
          style="fill:none;stroke:#000;stroke-width:1.49998;stroke-linecap:butt;stroke-linejoin:miter;stroke-miterlimit:4;stroke-dasharray:none;stroke-opacity:1"
          transform="translate(-64 -63.505)scale(1.33333)"/>
    <path d="m355.34 543.227 4.465 9.015-9.895-1.84z" clip-path="url(#q)"
          style="fill:#000;fill-opacity:1;fill-rule:nonzero;stroke:none"
          transform="translate(-64 -63.505)scale(1.33333)"/>
    <g clip-path="url(#r)" transform="translate(-64 -63.505)">
        <path d="m487.43 174.717 7.178 3.589-7.181 3.589z" clip-path="url(#s)"
              style="fill:none;stroke:#000;stroke-width:.717911;stroke-linecap:butt;stroke-linejoin:miter;stroke-miterlimit:4;stroke-dasharray:none;stroke-opacity:1"
              transform="rotate(37.09)scale(1.6715)"/>
    </g>
    <path d="m178.566 495.375-2.609 4.664c-2.609 4.66-7.832 13.984-10.445 25.91-2.61 11.926-2.61 26.449-2.61 40.977v261.445c0 14.524 0 29.051 3.403 41.039 3.398 11.985 10.203 21.438 13.605 26.16l3.399 4.727"
          style="fill:none;stroke:#000;stroke-width:1.49998;stroke-linecap:butt;stroke-linejoin:miter;stroke-miterlimit:4;stroke-dasharray:none;stroke-opacity:1"
          transform="translate(-64 -63.505)scale(1.33333)"/>
    <path d="m182.23 891.094 1.606 9.933-8.91-4.675z" clip-path="url(#t)"
          style="fill:#000;fill-opacity:1;fill-rule:nonzero;stroke:none"
          transform="translate(-64 -63.505)scale(1.33333)"/>
    <g clip-path="url(#u)" transform="translate(-64 -63.505)">
        <path d="m673.34 302.489 7.305 3.652-7.305 3.652z" clip-path="url(#v)"
              style="fill:none;stroke:#000;stroke-width:.730417;stroke-linecap:butt;stroke-linejoin:miter;stroke-miterlimit:4;stroke-dasharray:none;stroke-opacity:1"
              transform="rotate(54.251)scale(1.64288)"/>
    </g>
    <path d="m199.023 495.375 3.739 4.664c3.738 4.66 11.215 13.984 35.808 24.406 24.59 10.426 66.301 21.946 87.157 27.703l20.855 5.762"
          style="fill:none;stroke:#000;stroke-width:1.49998;stroke-linecap:butt;stroke-linejoin:miter;stroke-miterlimit:4;stroke-dasharray:none;stroke-opacity:1"
          transform="translate(-64 -63.505)scale(1.33333)"/>
    <path d="m339.973 551.414 7.476 6.734-9.875 1.942z" clip-path="url(#w)"
          style="fill:#000;fill-opacity:1;fill-rule:nonzero;stroke:none"
          transform="translate(-64 -63.505)scale(1.33333)"/>
    <g clip-path="url(#x)" transform="translate(-64 -63.505)">
        <path d="m457.377 425.093 8.675 4.339-8.677 4.338z" clip-path="url(#y)"
              style="fill:none;stroke:#000;stroke-width:.867512;stroke-linecap:butt;stroke-linejoin:miter;stroke-miterlimit:4;stroke-dasharray:none;stroke-opacity:1"
              transform="rotate(15.439)scale(1.38325)"/>
    </g>
    <path d="m346.582 580.758-11.699 4.957c-11.699 4.957-35.098 14.871-46.797 27.09s-11.699 26.742-11.699 41.269v87.149c0 14.523 0 29.05.062 41.097.063 12.051.188 21.625.25 26.414l.063 4.789"
          style="fill:none;stroke:#000;stroke-width:1.49998;stroke-linecap:butt;stroke-linejoin:miter;stroke-miterlimit:4;stroke-dasharray:none;stroke-opacity:1"
          transform="translate(-64 -63.505)scale(1.33333)"/>
    <g clip-path="url(#z)" transform="translate(-64 -63.505)">
        <path d="m808.896-270.595 9 4.5-9 4.5z" clip-path="url(#A)"
              style="fill:#000;fill-opacity:1;fill-rule:nonzero;stroke:#000;stroke-width:.899914;stroke-linecap:butt;stroke-linejoin:miter;stroke-miterlimit:4;stroke-dasharray:none;stroke-opacity:1"
              transform="rotate(89.252)scale(1.33345)"/>
    </g>
    <path d="m276.762 843.973-.063 4.66c-.062 4.664-.187 13.988-9.152 23.375-8.969 9.387-26.777 18.84-35.68 23.562l-8.906 4.727"
          style="fill:none;stroke:#000;stroke-width:1.49998;stroke-linecap:butt;stroke-linejoin:miter;stroke-miterlimit:4;stroke-dasharray:none;stroke-opacity:1"
          transform="translate(-64 -63.505)scale(1.33333)"/>
    <path d="m232.227 900.473-10.059.246 5.84-8.196z" clip-path="url(#B)"
          style="fill:#000;fill-opacity:1;fill-rule:nonzero;stroke:none"
          transform="translate(-64 -63.505)scale(1.33333)"/>
    <g clip-path="url(#C)" transform="translate(-64 -63.505)">
        <path d="m191.638-798.782 7.95 3.972-7.95 3.977z" clip-path="url(#D)"
              style="fill:none;stroke:#000;stroke-width:.794997;stroke-linecap:butt;stroke-linejoin:miter;stroke-miterlimit:4;stroke-dasharray:none;stroke-opacity:1"
              transform="rotate(152.048)scale(1.50942)"/>
    </g>
    <path d="m399.051 582.148 6.152 4.727c6.152 4.723 18.457 14.172 24.613 23.625 6.153 9.449 6.153 18.898 6.153 23.625v4.723"
          style="fill:none;stroke:#000;stroke-width:1.49998;stroke-linecap:butt;stroke-linejoin:miter;stroke-miterlimit:4;stroke-dasharray:none;stroke-opacity:1"
          transform="translate(-64 -63.505)scale(1.33333)"/>
    <path d="m630.75-440.469 9 4.5-9 4.5z" clip-path="url(#E)"
          style="fill:#000;fill-opacity:1;fill-rule:nonzero;stroke:#000;stroke-width:.89999;stroke-linecap:butt;stroke-linejoin:miter;stroke-miterlimit:4;stroke-dasharray:none;stroke-opacity:1"
          transform="rotate(90 -.247 -63.752)scale(1.33333)"/>
    <path d="m419.863 669.297-5 4.726c-4.996 4.723-14.992 14.176-19.992 26.161-4.996 11.988-4.996 26.515-4.996 41.039v87.148c0 14.524 0 29.051 4.996 41.039 5 11.985 14.996 21.438 19.992 26.16l5 4.727"
          style="fill:none;stroke:#000;stroke-width:1.49998;stroke-linecap:butt;stroke-linejoin:miter;stroke-miterlimit:4;stroke-dasharray:none;stroke-opacity:1"
          transform="translate(-64 -63.505)scale(1.33333)"/>
    <path d="m417.066 891.461 3.45 9.453-9.629-2.914z" clip-path="url(#F)"
          style="fill:#000;fill-opacity:1;fill-rule:nonzero;stroke:none"
          transform="translate(-64 -63.505)scale(1.33333)"/>
    <g clip-path="url(#G)" transform="translate(-64 -63.505)">
        <path d="m665.266 262.545 6.541 3.27-6.54 3.268z" clip-path="url(#H)"
              style="fill:none;stroke:#000;stroke-width:.654006;stroke-linecap:butt;stroke-linejoin:miter;stroke-miterlimit:4;stroke-dasharray:none;stroke-opacity:1"
              transform="rotate(43.391)scale(1.83483)"/>
    </g>
    <path d="m465.898 667.977 10.645 4.945c10.648 4.945 31.941 14.836 42.648 24.566 10.711 9.735 10.836 19.309 10.899 24.098l.062 4.785"
          style="fill:none;stroke:#000;stroke-width:1.49998;stroke-linecap:butt;stroke-linejoin:miter;stroke-miterlimit:4;stroke-dasharray:none;stroke-opacity:1"
          transform="translate(-64 -63.505)scale(1.33333)"/>
    <g clip-path="url(#I)" transform="translate(-64 -63.505)">
        <path d="m725.068-525.084 9 4.501-9 4.499z" clip-path="url(#J)"
              style="fill:#000;fill-opacity:1;fill-rule:nonzero;stroke:#000;stroke-width:.899914;stroke-linecap:butt;stroke-linejoin:miter;stroke-miterlimit:4;stroke-dasharray:none;stroke-opacity:1"
              transform="rotate(89.252)scale(1.33345)"/>
    </g>
    <path d="m530.152 756.82-.062 4.664c-.063 4.664-.188 13.989-.188 23.438s.125 19.023.188 23.812l.062 4.789"
          style="fill:none;stroke:#000;stroke-width:1.49998;stroke-linecap:butt;stroke-linejoin:miter;stroke-miterlimit:4;stroke-dasharray:none;stroke-opacity:1"
          transform="translate(-64 -63.505)scale(1.33333)"/>
    <g clip-path="url(#K)" transform="translate(-64 -63.505)">
        <path d="m812.202-523.946 9 4.5-9.001 4.5z" clip-path="url(#L)"
              style="fill:#000;fill-opacity:1;fill-rule:nonzero;stroke:#000;stroke-width:.899914;stroke-linecap:butt;stroke-linejoin:miter;stroke-miterlimit:4;stroke-dasharray:none;stroke-opacity:1"
              transform="rotate(89.252)scale(1.33345)"/>
    </g>
    <path d="m511.512 843.973-5.844 4.66c-5.848 4.664-17.543 13.988-62.824 24.742-45.282 10.75-124.153 22.93-163.59 29.02l-39.434 6.089"
          style="fill:none;stroke:#000;stroke-width:1.49998;stroke-linecap:butt;stroke-linejoin:miter;stroke-miterlimit:4;stroke-dasharray:none;stroke-opacity:1"
          transform="translate(-64 -63.505)scale(1.33333)"/>
    <path d="m248.512 911.695-9.582-3.07 8.207-5.82z" clip-path="url(#M)"
          style="fill:#000;fill-opacity:1;fill-rule:nonzero;stroke:none"
          transform="translate(-64 -63.505)scale(1.33333)"/>
    <g clip-path="url(#N)" transform="translate(-64 -63.505)">
        <path d="m-105.21-927.943 8.896 4.444-8.894 4.447z" clip-path="url(#O)"
              style="fill:none;stroke:#000;stroke-width:.889447;stroke-linecap:butt;stroke-linejoin:miter;stroke-miterlimit:4;stroke-dasharray:none;stroke-opacity:1"
              transform="rotate(171.221)scale(1.34914)"/>
    </g>
    <path d="m549.281 843.973 5.875 4.66c5.875 4.664 17.625 13.988 6.559 23.621-11.067 9.629-44.945 19.566-61.883 24.535l-16.941 4.969"
          style="fill:none;stroke:#000;stroke-width:1.49998;stroke-linecap:butt;stroke-linejoin:miter;stroke-miterlimit:4;stroke-dasharray:none;stroke-opacity:1"
          transform="translate(-64 -63.505)scale(1.33333)"/>
    <path d="m491.93 903.797-9.903-1.785 7.371-6.852z" clip-path="url(#P)"
          style="fill:#000;fill-opacity:1;fill-rule:nonzero;stroke:none"
          transform="translate(-64 -63.505)scale(1.33333)"/>
    <g clip-path="url(#Q)" transform="translate(-64 -63.505)">
        <path d="m-208.867-965.06 8.636 4.318-8.638 4.318z" clip-path="url(#R)"
              style="fill:none;stroke:#000;stroke-width:.863608;stroke-linecap:butt;stroke-linejoin:miter;stroke-miterlimit:4;stroke-dasharray:none;stroke-opacity:1"
              transform="rotate(163.653)scale(1.3895)"/>
    </g>
    <path d="M48 513.75h71.574v14.5H48Z" clip-path="url(#S)"
          style="fill:#fff;fill-opacity:1;fill-rule:nonzero;stroke:none"
          transform="translate(-64 -63.505)scale(1.33333)"/>
    <text xml:space="preserve" transform="translate(0 636.827)scale(1.33333)"><tspan x="0" y="0" style="font-variant:normal;font-weight:400;font-size:11.9999px;font-family:&quot;Trebuchet MS&quot;;writing-mode:lr-tb;fill:#000;fill-opacity:1;fill-rule:nonzero;stroke:none">Attack Misses</tspan></text>
    <path d="M340.035 165.152h59.398v14.5h-59.398z" clip-path="url(#T)"
          style="fill:#fff;fill-opacity:1;fill-rule:nonzero;stroke:none"
          transform="translate(-64 -63.505)scale(1.33333)"/>
    <text xml:space="preserve" transform="translate(389.38 172.032)scale(1.33333)"><tspan x="0" y="0" style="font-variant:normal;font-weight:400;font-size:11.9999px;font-family:&quot;Trebuchet MS&quot;;writing-mode:lr-tb;fill:#000;fill-opacity:1;fill-rule:nonzero;stroke:none">Attack Hits</tspan></text>
    <path d="M230.664 252.301h14.102v14.5h-14.102z" clip-path="url(#U)"
          style="fill:#fff;fill-opacity:1;fill-rule:nonzero;stroke:none"
          transform="translate(-64 -63.505)scale(1.33333)"/>
    <text xml:space="preserve" transform="translate(243.551 288.231)scale(1.33333)"><tspan x="0" y="0" style="font-variant:normal;font-weight:400;font-size:11.9999px;font-family:&quot;Trebuchet MS&quot;;writing-mode:lr-tb;fill:#000;fill-opacity:1;fill-rule:nonzero;stroke:none">No</tspan></text>
    <path d="M486.926 339.453h17v14.5h-17z" clip-path="url(#V)"
          style="fill:#fff;fill-opacity:1;fill-rule:nonzero;stroke:none"
          transform="translate(-64 -63.505)scale(1.33333)"/>
    <text xml:space="preserve" transform="translate(585.235 404.43)scale(1.33333)"><tspan x="0" y="0" dx="0 -1.2599865" style="font-variant:normal;font-weight:400;font-size:11.9999px;font-family:&quot;Trebuchet MS&quot;;writing-mode:lr-tb;fill:#000;fill-opacity:1;fill-rule:nonzero;stroke:none">Yes</tspan></text>
    <path d="M177.906 339.453h17v14.5h-17z" clip-path="url(#W)"
          style="fill:#fff;fill-opacity:1;fill-rule:nonzero;stroke:none"
          transform="translate(-64 -63.505)scale(1.33333)"/>
    <text xml:space="preserve" transform="translate(173.206 404.43)scale(1.33333)"><tspan x="0" y="0" dx="0 -1.2599865" style="font-variant:normal;font-weight:400;font-size:11.9999px;font-family:&quot;Trebuchet MS&quot;;writing-mode:lr-tb;fill:#000;fill-opacity:1;fill-rule:nonzero;stroke:none">Yes</tspan></text>
    <path d="M314.539 426.602h14.102v14.5h-14.102z" clip-path="url(#X)"
          style="fill:#fff;fill-opacity:1;fill-rule:nonzero;stroke:none"
          transform="translate(-64 -63.505)scale(1.33333)"/>
    <text xml:space="preserve" transform="translate(355.384 520.629)scale(1.33333)"><tspan x="0" y="0" style="font-variant:normal;font-weight:400;font-size:11.9999px;font-family:&quot;Trebuchet MS&quot;;writing-mode:lr-tb;fill:#000;fill-opacity:1;fill-rule:nonzero;stroke:none">No</tspan></text>
    <path d="M122.289 688.047h81.223v14.5h-81.223z" clip-path="url(#Y)"
          style="fill:#fff;fill-opacity:1;fill-rule:nonzero;stroke:none"
          transform="translate(-64 -63.505)scale(1.33333)"/>
    <text xml:space="preserve" transform="translate(99.053 869.225)scale(1.33333)"><tspan x="0" y="0" style="font-variant:normal;font-weight:400;font-size:11.9999px;font-family:&quot;Trebuchet MS&quot;;writing-mode:lr-tb;fill:#000;fill-opacity:1;fill-rule:nonzero;stroke:none">Block Succeeds</tspan></text>
    <path d="M193.059 513.75h56.785v14.5h-56.785z" clip-path="url(#Z)"
          style="fill:#fff;fill-opacity:1;fill-rule:nonzero;stroke:none"
          transform="translate(-64 -63.505)scale(1.33333)"/>
    <text xml:space="preserve" transform="translate(193.41 636.827)scale(1.33333)"><tspan x="0" y="0" style="font-variant:normal;font-weight:400;font-size:11.9999px;font-family:&quot;Trebuchet MS&quot;;writing-mode:lr-tb;fill:#000;fill-opacity:1;fill-rule:nonzero;stroke:none">Block Fails</tspan></text>
    <path d="M267.887 688.047h17v14.5h-17z" clip-path="url(#aa)"
          style="fill:#fff;fill-opacity:1;fill-rule:nonzero;stroke:none"
          transform="translate(-64 -63.505)scale(1.33333)"/>
    <text xml:space="preserve" transform="translate(293.184 869.225)scale(1.33333)"><tspan x="0" y="0" dx="0 -1.2599865" style="font-variant:normal;font-weight:400;font-size:11.9999px;font-family:&quot;Trebuchet MS&quot;;writing-mode:lr-tb;fill:#000;fill-opacity:1;fill-rule:nonzero;stroke:none">Yes</tspan></text>
    <path d="M428.918 600.898h14.102v14.5h-14.102z" clip-path="url(#ab)"
          style="fill:#fff;fill-opacity:1;fill-rule:nonzero;stroke:none"
          transform="translate(-64 -63.505)scale(1.33333)"/>
    <text xml:space="preserve" transform="translate(507.89 753.026)scale(1.33333)"><tspan x="0" y="0" style="font-variant:normal;font-weight:400;font-size:11.9999px;font-family:&quot;Trebuchet MS&quot;;writing-mode:lr-tb;fill:#000;fill-opacity:1;fill-rule:nonzero;stroke:none">No</tspan></text>
    <path d="M382.824 775.195h14.102v14.5h-14.102z" clip-path="url(#ac)"
          style="fill:#fff;fill-opacity:1;fill-rule:nonzero;stroke:none"
          transform="translate(-64 -63.505)scale(1.33333)"/>
    <text xml:space="preserve" transform="translate(446.433 985.424)scale(1.33333)"><tspan x="0" y="0" style="font-variant:normal;font-weight:400;font-size:11.9999px;font-family:&quot;Trebuchet MS&quot;;writing-mode:lr-tb;fill:#000;fill-opacity:1;fill-rule:nonzero;stroke:none">No</tspan></text>
    <path d="M521.277 688.047h17v14.5h-17z" clip-path="url(#ad)"
          style="fill:#fff;fill-opacity:1;fill-rule:nonzero;stroke:none"
          transform="translate(-64 -63.505)scale(1.33333)"/>
    <text xml:space="preserve" transform="translate(631.035 869.225)scale(1.33333)"><tspan x="0" y="0" dx="0 -1.2599865" style="font-variant:normal;font-weight:400;font-size:11.9999px;font-family:&quot;Trebuchet MS&quot;;writing-mode:lr-tb;fill:#000;fill-opacity:1;fill-rule:nonzero;stroke:none">Yes</tspan></text>
    <path d="M434.715 862.348h83.438v14.5h-83.438z" clip-path="url(#ae)"
          style="fill:#fff;fill-opacity:1;fill-rule:nonzero;stroke:none"
          transform="translate(-64 -63.505)scale(1.33333)"/>
    <text xml:space="preserve" transform="translate(515.62 1101.622)scale(1.33333)"><tspan x="0" y="0" dx="0 -0.47999489" style="font-variant:normal;font-weight:400;font-size:11.9999px;font-family:&quot;Trebuchet MS&quot;;writing-mode:lr-tb;fill:#000;fill-opacity:1;fill-rule:nonzero;stroke:none">Resist Succeeds</tspan></text>
    <path d="M555.027 862.348h59v14.5h-59z" clip-path="url(#af)"
          style="fill:#fff;fill-opacity:1;fill-rule:nonzero;stroke:none"
          transform="translate(-64 -63.505)scale(1.33333)"/>
    <text xml:space="preserve" clip-path="url(#ag)" transform="translate(676.038 1101.622)scale(1.33333)"><tspan x="0" y="0" dx="0 -0.47999489" style="font-variant:normal;font-weight:400;font-size:11.9999px;font-family:&quot;Trebuchet MS&quot;;writing-mode:lr-tb;fill:#000;fill-opacity:1;fill-rule:nonzero;stroke:none">Resist Fails</tspan></text>
    <path d="M244.988 48.004h146.875v30.449H244.988Z"
          style="fill:#cde498;fill-opacity:1;fill-rule:nonzero;stroke:#13540c;stroke-width:.749992;stroke-linecap:butt;stroke-linejoin:miter;stroke-miterlimit:4;stroke-dasharray:none;stroke-opacity:1"
          transform="translate(-64 -63.505)scale(1.33333)"/>
    <text xml:space="preserve" transform="translate(270.151 23.334)scale(1.33333)"><tspan x="0" y="0" style="font-variant:normal;font-weight:400;font-size:11.9999px;font-family:&quot;Trebuchet MS&quot;;writing-mode:lr-tb;fill:#000;fill-opacity:1;fill-rule:nonzero;stroke:none">Attack Interaction Begins</tspan></text>
    <path d="M283.543 146.402h69.762l7.613-15.222-7.613-15.227h-69.762l-7.609 15.227z"
          style="fill:#cde498;fill-opacity:1;fill-rule:nonzero;stroke:#13540c;stroke-width:.749992;stroke-linecap:butt;stroke-linejoin:miter;stroke-miterlimit:4;stroke-dasharray:none;stroke-opacity:1"
          transform="translate(-64 -63.505)scale(1.33333)"/>
    <text xml:space="preserve" transform="translate(321.559 113.933)scale(1.33333)"><tspan x="0" y="0" dx="0 0 0 0 0 0 0 0 -0.49199474" style="font-variant:normal;font-weight:400;font-size:11.9999px;font-family:&quot;Trebuchet MS&quot;;writing-mode:lr-tb;fill:#000;fill-opacity:1;fill-rule:nonzero;stroke:none">Attack Roll</tspan></text>
    <path d="M336.215 203.102h67.039a3.756 3.756 0 0 1 3.75 3.75v22.949c0 2.07-1.684 3.75-3.75 3.75h-67.039c-2.07 0-3.75-1.68-3.75-3.75v-22.949c0-2.067 1.68-3.75 3.75-3.75z"
          style="fill:#cde498;fill-opacity:1;fill-rule:nonzero;stroke:#13540c;stroke-width:.749992;stroke-linecap:butt;stroke-linejoin:miter;stroke-miterlimit:4;stroke-dasharray:none;stroke-opacity:1"
          transform="translate(-64 -63.505)scale(1.33333)"/>
    <text xml:space="preserve" transform="translate(386.787 230.132)scale(1.33333)"><tspan x="0" y="0" style="font-variant:normal;font-weight:400;font-size:11.9999px;font-family:&quot;Trebuchet MS&quot;;writing-mode:lr-tb;fill:#000;fill-opacity:1;fill-rule:nonzero;stroke:none">Critical Hit?</tspan></text>
    <path d="M427.172 495h121.285l15.227-30.449H442.395Z"
          style="fill:#cde498;fill-opacity:1;fill-rule:nonzero;stroke:#13540c;stroke-width:.749992;stroke-linecap:butt;stroke-linejoin:miter;stroke-miterlimit:4;stroke-dasharray:none;stroke-opacity:1"
          transform="translate(-64 -63.505)scale(1.33333)"/>
    <text xml:space="preserve" transform="translate(526.594 578.728)scale(1.33333)"><tspan x="0" y="0" style="font-variant:normal;font-weight:400;font-size:11.9999px;font-family:&quot;Trebuchet MS&quot;;writing-mode:lr-tb;fill:#000;fill-opacity:1;fill-rule:nonzero;stroke:none">Effect Goes Critical</tspan></text>
    <path d="M188.551 290.254h98.324c2.07 0 3.75 1.68 3.75 3.75v22.949c0 2.067-1.68 3.75-3.75 3.75h-98.324a3.753 3.753 0 0 1-3.75-3.75v-22.949a3.75 3.75 0 0 1 3.75-3.75z"
          style="fill:#cde498;fill-opacity:1;fill-rule:nonzero;stroke:#13540c;stroke-width:.749992;stroke-linecap:butt;stroke-linejoin:miter;stroke-miterlimit:4;stroke-dasharray:none;stroke-opacity:1"
          transform="translate(-64 -63.505)scale(1.33333)"/>
    <text xml:space="preserve" transform="translate(189.902 346.33)scale(1.33333)"><tspan x="0" y="0" style="font-variant:normal;font-weight:400;font-size:11.9999px;font-family:&quot;Trebuchet MS&quot;;writing-mode:lr-tb;fill:#000;fill-opacity:1;fill-rule:nonzero;stroke:none">Block Attempted?</tspan></text>
    <path d="M116.035 407.852h140.738v-30.45H116.035v30.45h-6 152.738v-30.45H110.035v30.45z"
          style="fill:#cde498;fill-opacity:1;fill-rule:nonzero;stroke:#13540c;stroke-width:.749992;stroke-linecap:butt;stroke-linejoin:miter;stroke-miterlimit:4;stroke-dasharray:none;stroke-opacity:1"
          transform="translate(-64 -63.505)scale(1.33333)"/>
    <text xml:space="preserve" transform="translate(98.216 462.53)scale(1.33333)"><tspan x="0" y="0" style="font-variant:normal;font-weight:400;font-size:11.9999px;font-family:&quot;Trebuchet MS&quot;;writing-mode:lr-tb;fill:#000;fill-opacity:1;fill-rule:nonzero;stroke:none">Block Interaction Begins</tspan></text>
    <path d="M148.461 495h75.887l7.613-15.227-7.613-15.222h-75.887l-7.613 15.222z"
          style="fill:#cde498;fill-opacity:1;fill-rule:nonzero;stroke:#13540c;stroke-width:.749992;stroke-linecap:butt;stroke-linejoin:miter;stroke-miterlimit:4;stroke-dasharray:none;stroke-opacity:1"
          transform="translate(-64 -63.505)scale(1.33333)"/>
    <text xml:space="preserve" clip-path="url(#ah)" transform="translate(141.448 578.728)scale(1.33333)"><tspan x="0" y="0" style="font-variant:normal;font-weight:400;font-size:11.9999px;font-family:&quot;Trebuchet MS&quot;;writing-mode:lr-tb;fill:#000;fill-opacity:1;fill-rule:nonzero;stroke:none">Block Check</tspan></text>
    <path d="M350.332 551.699h57.785a3.75 3.75 0 0 1 3.75 3.75v22.949a3.75 3.75 0 0 1-3.75 3.75h-57.785a3.75 3.75 0 0 1-3.75-3.75v-22.949c0-2.07 1.68-3.75 3.75-3.75z"
          style="fill:#cde498;fill-opacity:1;fill-rule:nonzero;stroke:#13540c;stroke-width:.749992;stroke-linecap:butt;stroke-linejoin:miter;stroke-miterlimit:4;stroke-dasharray:none;stroke-opacity:1"
          transform="translate(-64 -63.505)scale(1.33333)"/>
    <text xml:space="preserve" transform="translate(405.608 694.927)scale(1.33333)"><tspan x="0" y="0" style="font-variant:normal;font-weight:400;font-size:11.9999px;font-family:&quot;Trebuchet MS&quot;;writing-mode:lr-tb;fill:#000;fill-opacity:1;fill-rule:nonzero;stroke:none">Immuned?</tspan></text>
    <path d="M195.152 843.598h162.473v-30.45H195.152v30.45h-6 174.473v-30.45H189.152v30.45z"
          style="fill:#cde498;fill-opacity:1;fill-rule:nonzero;stroke:#13540c;stroke-width:.749992;stroke-linecap:butt;stroke-linejoin:miter;stroke-miterlimit:4;stroke-dasharray:none;stroke-opacity:1"
          transform="translate(-64 -63.505)scale(1.33333)"/>
    <text xml:space="preserve" transform="translate(203.702 1043.523)scale(1.33333)"><tspan x="0" y="0" style="font-variant:normal;font-weight:400;font-size:11.9999px;font-family:&quot;Trebuchet MS&quot;;writing-mode:lr-tb;fill:#000;fill-opacity:1;fill-rule:nonzero;stroke:none">Immunity Interaction Begins</tspan></text>
    <path d="M409.785 638.848h52.363a3.75 3.75 0 0 1 3.75 3.75v22.949a3.75 3.75 0 0 1-3.75 3.75h-52.363a3.754 3.754 0 0 1-3.75-3.75v-22.949a3.753 3.753 0 0 1 3.75-3.75z"
          style="fill:#cde498;fill-opacity:1;fill-rule:nonzero;stroke:#13540c;stroke-width:.749992;stroke-linecap:butt;stroke-linejoin:miter;stroke-miterlimit:4;stroke-dasharray:none;stroke-opacity:1"
          transform="translate(-64 -63.505)scale(1.33333)"/>
    <text xml:space="preserve" transform="translate(484.882 811.126)scale(1.33333)"><tspan x="0" y="0" dx="0 -0.47999489" style="font-variant:normal;font-weight:400;font-size:11.9999px;font-family:&quot;Trebuchet MS&quot;;writing-mode:lr-tb;fill:#000;fill-opacity:1;fill-rule:nonzero;stroke:none">Resisted?</tspan></text>
    <path d="M445.625 756.445h168.301v-30.449H445.625v30.449h-5.996 180.297v-30.449H439.629v30.449z"
          style="fill:#cde498;fill-opacity:1;fill-rule:nonzero;stroke:#13540c;stroke-width:.749992;stroke-linecap:butt;stroke-linejoin:miter;stroke-miterlimit:4;stroke-dasharray:none;stroke-opacity:1"
          transform="translate(-64 -63.505)scale(1.33333)"/>
    <text xml:space="preserve" transform="translate(537.67 927.324)scale(1.33333)"><tspan x="0" y="0" dx="0 -0.47999489" style="font-variant:normal;font-weight:400;font-size:11.9999px;font-family:&quot;Trebuchet MS&quot;;writing-mode:lr-tb;fill:#000;fill-opacity:1;fill-rule:nonzero;stroke:none">Resistance Interaction Begins</tspan></text>
    <path d="M494.613 843.598h70.325l7.613-15.227-7.613-15.223h-70.325L487 828.371Z"
          style="fill:#cde498;fill-opacity:1;fill-rule:nonzero;stroke:#13540c;stroke-width:.749992;stroke-linecap:butt;stroke-linejoin:miter;stroke-miterlimit:4;stroke-dasharray:none;stroke-opacity:1"
          transform="translate(-64 -63.505)scale(1.33333)"/>
    <text xml:space="preserve" transform="translate(602.985 1043.523)scale(1.33333)"><tspan x="0" y="0" dx="0 -0.47999489" style="font-variant:normal;font-weight:400;font-size:11.9999px;font-family:&quot;Trebuchet MS&quot;;writing-mode:lr-tb;fill:#000;fill-opacity:1;fill-rule:nonzero;stroke:none">Resist Save</tspan></text>
    <path d="M163.945 900.297h60.649c8.402 0 15.226 6.82 15.226 15.223 0 8.402-6.824 15.226-15.226 15.226h-60.649c-8.402 0-15.222-6.824-15.222-15.226s6.82-15.223 15.222-15.223z"
          style="fill:#cde498;fill-opacity:1;fill-rule:nonzero;stroke:#13540c;stroke-width:.749992;stroke-linecap:butt;stroke-linejoin:miter;stroke-miterlimit:4;stroke-dasharray:none;stroke-opacity:1"
          transform="translate(-64 -63.505)scale(1.33333)"/>
    <text xml:space="preserve" transform="translate(146.87 1159.722)scale(1.33333)"><tspan x="0" y="0" style="font-variant:normal;font-weight:400;font-size:11.9999px;font-family:&quot;Trebuchet MS&quot;;writing-mode:lr-tb;fill:#000;fill-opacity:1;fill-rule:nonzero;stroke:none">Effect Fizzles</tspan></text>
    <path d="M404.27 900.297h63.398c8.402 0 15.223 6.82 15.223 15.223 0 8.402-6.821 15.226-15.223 15.226H404.27c-8.407 0-15.227-6.824-15.227-15.226s6.82-15.223 15.227-15.223z"
          style="fill:#cde498;fill-opacity:1;fill-rule:nonzero;stroke:#13540c;stroke-width:.749992;stroke-linecap:butt;stroke-linejoin:miter;stroke-miterlimit:4;stroke-dasharray:none;stroke-opacity:1"
          transform="translate(-64 -63.505)scale(1.33333)"/>
    <text xml:space="preserve" transform="translate(467.3 1159.722)scale(1.33333)"><tspan x="0" y="0" style="font-variant:normal;font-weight:400;font-size:11.9999px;font-family:&quot;Trebuchet MS&quot;;writing-mode:lr-tb;fill:#000;fill-opacity:1;fill-rule:nonzero;stroke:none">Effect Applies</tspan></text>
</svg>