<?xml version="1.0" encoding="UTF-8" standalone="no"?>
<!-- Created with Inkscape (http://www.inkscape.org/) -->

<svg
   version="1.1"
   id="svg1"
   width="594.03064"
   height="597"
   viewBox="0 0 594.03061 597"
   sodipodi:docname="complete-manifest-interaction.svg"
   inkscape:version="1.4.3 (0d15f75042, 2025-12-25)"
   xmlns:inkscape="http://www.inkscape.org/namespaces/inkscape"
   xmlns:sodipodi="http://sodipodi.sourceforge.net/DTD/sodipodi-0.dtd"
   xmlns="http://www.w3.org/2000/svg"
   xmlns:svg="http://www.w3.org/2000/svg">
  <defs
     id="defs1">
    <clipPath
       clipPathUnits="userSpaceOnUse"
       id="clipPath3">
      <path
         d="m 107.852,-272.69501 v -9 h 9 v 9 z"
         id="path3" />
    </clipPath>
    <clipPath
       clipPathUnits="userSpaceOnUse"
       id="clipPath5">
      <path
         d="m 371.38154,-135.15954 9,4.9e-4 -5e-4,9 -8.99999,-5e-4 z"
         id="path5" />
    </clipPath>
    <clipPath
       clipPathUnits="userSpaceOnUse"
       id="clipPath7">
      <path
         d="M 174.66667,492 H 188 v 13.33333 h -13.33333 z"
         id="path7" />
    </clipPath>
    <clipPath
       clipPathUnits="userSpaceOnUse"
       id="clipPath9">
      <path
         d="m 184.621,456.82001 7.984,4.153 -4.152,7.984 -7.984,-4.152 z"
         id="path9" />
    </clipPath>
    <clipPath
       clipPathUnits="userSpaceOnUse"
       id="clipPath11">
      <path
         d="m 332.33327,283.92063 7.9837,-5.9e-4 10e-4,7.98329 -7.98328,0.001 z"
         id="path11" />
    </clipPath>
    <clipPath
       clipPathUnits="userSpaceOnUse"
       id="clipPath13">
      <path
         d="m 240,608 h 16 v 13.33333 h -16 z"
         id="path13" />
    </clipPath>
    <clipPath
       clipPathUnits="userSpaceOnUse"
       id="clipPath16">
      <path
         d="m 195,-356.44901 v -9 h 9.00001 v 9 z"
         id="path16" />
    </clipPath>
    <clipPath
       clipPathUnits="userSpaceOnUse"
       id="clipPath18">
      <path
         d="m 433.94901,455.28901 4.094,8.016 -8.016,4.093 -4.093,-8.015 z"
         id="path18" />
    </clipPath>
    <clipPath
       clipPathUnits="userSpaceOnUse"
       id="clipPath20">
      <path
         d="m 536.88844,-159.80679 8.01637,-7.3e-4 -6e-5,8.01597 -8.01517,3.4e-4 z"
         id="path20" />
    </clipPath>
    <clipPath
       clipPathUnits="userSpaceOnUse"
       id="clipPath22">
      <path
         d="M 566.66667,606.66667 H 580 v 16 h -13.33333 z"
         id="path22" />
    </clipPath>
    <clipPath
       clipPathUnits="userSpaceOnUse"
       id="clipPath24">
      <path
         d="m 286.43384,-303.78159 9,4.7e-4 -4.7e-4,8.99999 -8.99999,-4.6e-4 z"
         id="path24" />
    </clipPath>
    <clipPath
       clipPathUnits="userSpaceOnUse"
       id="clipPath26">
      <path
         d="m 397.33333,376 h 13.33334 v 13.33333 h -13.33334 z"
         id="path26" />
    </clipPath>
    <clipPath
       clipPathUnits="userSpaceOnUse"
       id="clipPath28">
      <path
         d="m 373.567,-302.64436 9,4.6e-4 -4.7e-4,9 -8.99999,-4.7e-4 z"
         id="path28" />
    </clipPath>
    <clipPath
       clipPathUnits="userSpaceOnUse"
       id="clipPath30">
      <path
         d="m 397.33333,492 h 13.33334 v 13.33333 h -13.33334 z"
         id="path30" />
    </clipPath>
    <clipPath
       clipPathUnits="userSpaceOnUse"
       id="clipPath32">
      <path
         d="m 257.52001,464.80501 -7.985,4.152 -4.152,-7.984 7.984,-4.153 z"
         id="path32" />
    </clipPath>
    <clipPath
       clipPathUnits="userSpaceOnUse"
       id="clipPath34">
      <path
         d="m -12.356111,-471.2334 7.9840686,0.002 -0.00138,7.98328 -7.9836906,-5.9e-4 z"
         id="path34" />
    </clipPath>
    <clipPath
       clipPathUnits="userSpaceOnUse"
       id="clipPath36">
      <path
         d="m 328,608 h 16 v 13.33333 h -16 z"
         id="path36" />
    </clipPath>
    <clipPath
       clipPathUnits="userSpaceOnUse"
       id="clipPath38">
      <path
         d="m 456.86701,459.38301 -4.094,8.015 -8.015,-4.093 4.094,-8.016 z"
         id="path38" />
    </clipPath>
    <clipPath
       clipPathUnits="userSpaceOnUse"
       id="clipPath40">
      <path
         d="m 179.34177,-548.44125 8.01558,10e-4 -3.4e-4,8.01517 -8.01638,-7.3e-4 z"
         id="path40" />
    </clipPath>
    <clipPath
       clipPathUnits="userSpaceOnUse"
       id="clipPath42">
      <path
         d="m 597.33333,606.66667 h 12 v 16 h -12 z"
         id="path42" />
    </clipPath>
    <clipPath
       clipPathUnits="userSpaceOnUse"
       id="clipPath44">
      <path
         d="m 126.738,252.30101 h 17.012 v 14.699 h -17.012 z"
         id="path44" />
    </clipPath>
    <clipPath
       clipPathUnits="userSpaceOnUse"
       id="clipPath46">
      <path
         d="m 353.89801,165.148 h 14.102 V 180 h -14.102 z"
         id="path46" />
    </clipPath>
    <clipPath
       clipPathUnits="userSpaceOnUse"
       id="clipPath48">
      <path
         d="m 412.10201,339.44901 h 14.113 v 14.551 h -14.113 z"
         id="path48" />
    </clipPath>
    <clipPath
       clipPathUnits="userSpaceOnUse"
       id="clipPath50">
      <path
         d="m 294.25001,252.30101 h 17.012 v 14.699 h -17.012 z"
         id="path50" />
    </clipPath>
    <clipPath
       clipPathUnits="userSpaceOnUse"
       id="clipPath52">
      <path
         d="m 261.03101,426.60201 h 83.438 v 15.398 h -83.438 z"
         id="path52" />
    </clipPath>
    <clipPath
       clipPathUnits="userSpaceOnUse"
       id="clipPath54">
      <path
         d="m 434.14801,426.60201 h 59.012 v 15.398 h -59.012 z"
         id="path54" />
    </clipPath>
  </defs>
  <sodipodi:namedview
     id="namedview1"
     pagecolor="#ffffff"
     bordercolor="#111111"
     borderopacity="1"
     inkscape:showpageshadow="0"
     inkscape:pageopacity="0"
     inkscape:pagecheckerboard="1"
     inkscape:deskcolor="#d1d1d1"
     inkscape:zoom="0.33271017"
     inkscape:cx="443.3288"
     inkscape:cy="598.11818"
     inkscape:window-width="1019"
     inkscape:window-height="735"
     inkscape:window-x="35"
     inkscape:window-y="32"
     inkscape:window-maximized="0"
     inkscape:current-layer="g1">
    <inkscape:page
       x="4.5170884e-07"
       y="0"
       inkscape:label="1"
       id="page1"
       width="594.03064"
       height="597"
       margin="0"
       bleed="0" />
  </sodipodi:namedview>
  <g
     id="g1"
     inkscape:groupmode="layer"
     inkscape:label="1"
     transform="translate(-63.499999,-63.5)">
    <path
       id="path1"
       d="m 277.195,78.449 v 3.125 c 0,3.125 0,9.375 0,15.625 0,6.25 0,12.5 0,15.625 v 3.125"
       style="fill:none;stroke:#000000;stroke-width:1.5;stroke-linecap:butt;stroke-linejoin:miter;stroke-miterlimit:4;stroke-dasharray:none;stroke-opacity:1"
       transform="scale(1.3333333)" />
    <path
       id="path2"
       d="m 107.852,-281.695 9,4.5 -9,4.5 z"
       style="fill:#000000;fill-opacity:1;fill-rule:nonzero;stroke:#000000;stroke-width:0.9;stroke-linecap:butt;stroke-linejoin:miter;stroke-miterlimit:4;stroke-dasharray:none;stroke-opacity:1"
       transform="matrix(0,1.3333333,-1.3333333,0,0,0)"
       clip-path="url(#clipPath3)" />
    <path
       id="path4"
       d="m 244.551,141.195 -18.219,5.594 c -18.219,5.59 -54.656,16.777 -72.875,29.633 -18.219,12.851 -18.219,27.379 -18.219,41.902 0,14.528 0,29.051 0,43.574 0,14.528 0,29.051 0,43.579 0,14.523 0,29.046 0.063,41.097 0.062,12.051 0.187,21.625 0.25,26.414 l 0.062,4.785"
       style="fill:none;stroke:#000000;stroke-width:1.5;stroke-linecap:butt;stroke-linejoin:miter;stroke-miterlimit:4;stroke-dasharray:none;stroke-opacity:1"
       transform="scale(1.3333333)" />
    <g
       id="g6"
       clip-path="url(#clipPath7)">
      <path
         d="m 371.382,-135.159 9,4.5 -9.001,4.5 z"
         style="fill:#000000;fill-opacity:1;fill-rule:nonzero;stroke:#000000;stroke-width:0.899923;stroke-linecap:butt;stroke-linejoin:miter;stroke-miterlimit:4;stroke-dasharray:none;stroke-opacity:1"
         transform="matrix(0.01740693,1.3333333,-1.3333333,0.01740693,0,0)"
         clip-path="url(#clipPath5)"
         id="path6" />
    </g>
    <path
       id="path8"
       d="m 135.613,408.227 -0.062,4.66 c -0.063,4.664 -0.188,13.988 8.832,23.375 9.019,9.386 27.183,18.84 36.265,23.562 l 9.082,4.727"
       style="fill:none;stroke:#000000;stroke-width:1.5;stroke-linecap:butt;stroke-linejoin:miter;stroke-miterlimit:4;stroke-dasharray:none;stroke-opacity:1"
       transform="scale(1.3333333)" />
    <g
       id="g10">
      <path
         d="m 184.621,456.82 5.906,8.145 -10.058,-0.16 z"
         style="fill:#000000;fill-opacity:1;fill-rule:nonzero;stroke:none"
         transform="scale(1.3333333)"
         clip-path="url(#clipPath9)"
         id="path10" />
    </g>
    <g
       id="g12"
       clip-path="url(#clipPath13)">
      <path
         d="m 332.333,283.921 7.983,3.991 -7.981,3.993 z"
         style="fill:none;stroke:#000000;stroke-width:0.79841;stroke-linecap:butt;stroke-linejoin:miter;stroke-miterlimit:4;stroke-dasharray:none;stroke-opacity:1"
         transform="matrix(1.3333333,0.69367867,-0.69367867,1.3333333,0,0)"
         clip-path="url(#clipPath11)"
         id="path12" />
    </g>
    <path
       id="path14"
       d="m 306.457,146.398 9.082,4.727 c 9.082,4.727 27.246,14.176 36.328,23.625 9.082,9.449 9.082,18.898 9.082,23.625 v 4.727"
       style="fill:none;stroke:#000000;stroke-width:1.5;stroke-linecap:butt;stroke-linejoin:miter;stroke-miterlimit:4;stroke-dasharray:none;stroke-opacity:1"
       transform="scale(1.3333333)" />
    <path
       id="path15"
       d="m 195,-365.449 9,4.5 -9,4.5 z"
       style="fill:#000000;fill-opacity:1;fill-rule:nonzero;stroke:#000000;stroke-width:0.9;stroke-linecap:butt;stroke-linejoin:miter;stroke-miterlimit:4;stroke-dasharray:none;stroke-opacity:1"
       transform="matrix(0,1.3333333,-1.3333333,0,0,0)"
       clip-path="url(#clipPath16)" />
    <path
       id="path17"
       d="m 381.285,233.551 6.313,4.722 c 6.308,4.727 18.929,14.176 25.242,26.165 6.308,11.988 6.308,26.511 6.308,41.039 0,14.523 0,29.046 0,43.574 0,14.523 0,29.051 0,43.574 0,14.523 0,29.051 2.414,41.039 2.415,11.984 7.239,21.438 9.653,26.16 l 2.41,4.727"
       style="fill:none;stroke:#000000;stroke-width:1.5;stroke-linecap:butt;stroke-linejoin:miter;stroke-miterlimit:4;stroke-dasharray:none;stroke-opacity:1"
       transform="scale(1.3333333)" />
    <g
       id="g19">
      <path
         d="m 433.949,455.289 0.086,10.063 -8.101,-5.969 z"
         style="fill:#000000;fill-opacity:1;fill-rule:nonzero;stroke:none"
         transform="scale(1.3333333)"
         clip-path="url(#clipPath18)"
         id="path19" />
    </g>
    <g
       id="g21"
       clip-path="url(#clipPath22)">
      <path
         d="m 536.889,-159.807 8.016,4.008 -8.016,4.008 z"
         style="fill:none;stroke:#000000;stroke-width:0.801553;stroke-linecap:butt;stroke-linejoin:miter;stroke-miterlimit:4;stroke-dasharray:none;stroke-opacity:1"
         transform="matrix(0.68081733,1.3333333,-1.3333333,0.68081733,0,0)"
         clip-path="url(#clipPath20)"
         id="path21" />
    </g>
    <path
       id="path23"
       d="m 340.613,233.551 -6.308,4.722 c -6.313,4.727 -18.934,14.176 -25.18,23.688 -6.25,9.516 -6.125,19.09 -6.063,23.875 l 0.063,4.789"
       style="fill:none;stroke:#000000;stroke-width:1.5;stroke-linecap:butt;stroke-linejoin:miter;stroke-miterlimit:4;stroke-dasharray:none;stroke-opacity:1"
       transform="scale(1.3333333)" />
    <g
       id="g25"
       clip-path="url(#clipPath26)">
      <path
         d="m 286.434,-303.781 8.996,4.5 -8.997,4.5 z"
         style="fill:#000000;fill-opacity:1;fill-rule:nonzero;stroke:#000000;stroke-width:0.899923;stroke-linecap:butt;stroke-linejoin:miter;stroke-miterlimit:4;stroke-dasharray:none;stroke-opacity:1"
         transform="matrix(0.01740213,1.3333333,-1.3333333,0.01740213,0,0)"
         clip-path="url(#clipPath24)"
         id="path25" />
    </g>
    <path
       id="path27"
       d="m 303.125,321.074 -0.063,4.664 c -0.062,4.66 -0.187,13.989 -0.187,23.438 0,9.449 0.125,19.023 0.187,23.812 l 0.063,4.785"
       style="fill:none;stroke:#000000;stroke-width:1.5;stroke-linecap:butt;stroke-linejoin:miter;stroke-miterlimit:4;stroke-dasharray:none;stroke-opacity:1"
       transform="scale(1.3333333)" />
    <g
       id="g29"
       clip-path="url(#clipPath30)">
      <path
         d="m 373.567,-302.644 9,4.5 -9,4.5 z"
         style="fill:#000000;fill-opacity:1;fill-rule:nonzero;stroke:#000000;stroke-width:0.899923;stroke-linecap:butt;stroke-linejoin:miter;stroke-miterlimit:4;stroke-dasharray:none;stroke-opacity:1"
         transform="matrix(0.01740213,1.3333333,-1.3333333,0.01740213,0,0)"
         clip-path="url(#clipPath28)"
         id="path29" />
    </g>
    <path
       id="path31"
       d="m 303.125,408.227 -0.063,4.66 c -0.062,4.664 -0.187,13.988 -9.332,23.375 -9.144,9.386 -27.308,18.84 -36.39,23.562 l -9.082,4.727"
       style="fill:none;stroke:#000000;stroke-width:1.5;stroke-linecap:butt;stroke-linejoin:miter;stroke-miterlimit:4;stroke-dasharray:none;stroke-opacity:1"
       transform="scale(1.3333333)" />
    <g
       id="g33">
      <path
         d="m 257.52,464.805 -10.059,0.16 5.906,-8.145 z"
         style="fill:#000000;fill-opacity:1;fill-rule:nonzero;stroke:none"
         transform="scale(1.3333333)"
         clip-path="url(#clipPath32)"
         id="path33" />
    </g>
    <g
       id="g35"
       clip-path="url(#clipPath36)">
      <path
         d="m -12.356,-471.233 7.982,3.992 -7.983,3.992 z"
         style="fill:none;stroke:#000000;stroke-width:0.79841;stroke-linecap:butt;stroke-linejoin:miter;stroke-miterlimit:4;stroke-dasharray:none;stroke-opacity:1"
         transform="matrix(-1.3333333,0.69368,-0.69368,-1.3333333,0,0)"
         clip-path="url(#clipPath34)"
         id="path35" />
    </g>
    <path
       id="path37"
       d="m 340.797,403.203 20.476,5.5 c 20.477,5.5 61.426,16.496 79.489,26.723 18.062,10.222 13.238,19.676 10.824,24.398 l -2.41,4.727"
       style="fill:none;stroke:#000000;stroke-width:1.5;stroke-linecap:butt;stroke-linejoin:miter;stroke-miterlimit:4;stroke-dasharray:none;stroke-opacity:1"
       transform="scale(1.3333333)" />
    <g
       id="g39">
      <path
         d="m 456.867,459.383 -8.101,5.969 0.086,-10.063 z"
         style="fill:#000000;fill-opacity:1;fill-rule:nonzero;stroke:none"
         transform="scale(1.3333333)"
         clip-path="url(#clipPath38)"
         id="path39" />
    </g>
    <g
       id="g41"
       clip-path="url(#clipPath42)">
      <path
         d="m 179.341,-548.441 8.016,4.008 -8.016,4.008 z"
         style="fill:none;stroke:#000000;stroke-width:0.801553;stroke-linecap:butt;stroke-linejoin:miter;stroke-miterlimit:4;stroke-dasharray:none;stroke-opacity:1"
         transform="matrix(-0.68081733,1.3333333,-1.3333333,-0.68081733,0,0)"
         clip-path="url(#clipPath40)"
         id="path41" />
    </g>
    <path
       id="path43"
       d="m 126.738,252.301 h 17 v 14.5 h -17 z"
       style="fill:#ffffff;fill-opacity:1;fill-rule:nonzero;stroke:none"
       transform="scale(1.3333333)"
       clip-path="url(#clipPath44)" />
    <text
       id="text44"
       xml:space="preserve"
       transform="matrix(1.3333333,0,0,1.3333333,168.98332,351.73327)"><tspan
         id="tspan44"
         style="font-variant:normal;font-weight:normal;font-size:12px;font-family:'Trebuchet MS';writing-mode:lr-tb;fill:#000000;fill-opacity:1;fill-rule:nonzero;stroke:none"
         x="0"
         dx="0 -1.2599999"
         y="0">Yes</tspan></text>
    <path
       id="path45"
       d="M 353.898,165.148 H 368 v 14.5 h -14.102 z"
       style="fill:#ffffff;fill-opacity:1;fill-rule:nonzero;stroke:none"
       transform="scale(1.3333333)"
       clip-path="url(#clipPath46)" />
    <text
       id="text46"
       xml:space="preserve"
       transform="matrix(1.3333333,0,0,1.3333333,471.86666,235.53332)"><tspan
         id="tspan46"
         style="font-variant:normal;font-weight:normal;font-size:12px;font-family:'Trebuchet MS';writing-mode:lr-tb;fill:#000000;fill-opacity:1;fill-rule:nonzero;stroke:none"
         x="0"
         y="0">No</tspan></text>
    <path
       id="path47"
       d="m 412.102,339.449 h 14.102 v 14.5 h -14.102 z"
       style="fill:#ffffff;fill-opacity:1;fill-rule:nonzero;stroke:none"
       transform="scale(1.3333333)"
       clip-path="url(#clipPath48)" />
    <text
       id="text48"
       xml:space="preserve"
       transform="matrix(1.3333333,0,0,1.3333333,549.46663,467.93331)"><tspan
         id="tspan48"
         style="font-variant:normal;font-weight:normal;font-size:12px;font-family:'Trebuchet MS';writing-mode:lr-tb;fill:#000000;fill-opacity:1;fill-rule:nonzero;stroke:none"
         x="0"
         y="0">No</tspan></text>
    <path
       id="path49"
       d="m 294.25,252.301 h 17 v 14.5 h -17 z"
       style="fill:#ffffff;fill-opacity:1;fill-rule:nonzero;stroke:none"
       transform="scale(1.3333333)"
       clip-path="url(#clipPath50)" />
    <text
       id="text50"
       xml:space="preserve"
       transform="matrix(1.3333333,0,0,1.3333333,392.33329,351.73327)"><tspan
         id="tspan50"
         style="font-variant:normal;font-weight:normal;font-size:12px;font-family:'Trebuchet MS';writing-mode:lr-tb;fill:#000000;fill-opacity:1;fill-rule:nonzero;stroke:none"
         x="0"
         dx="0 -1.2599999"
         y="0">Yes</tspan></text>
    <path
       id="path51"
       d="m 261.031,426.602 h 83.438 v 14.5 h -83.438 z"
       style="fill:#ffffff;fill-opacity:1;fill-rule:nonzero;stroke:none"
       transform="scale(1.3333333)"
       clip-path="url(#clipPath52)" />
    <text
       id="text52"
       xml:space="preserve"
       transform="matrix(1.3333333,0,0,1.3333333,348.04163,584.13326)"><tspan
         id="tspan52"
         style="font-variant:normal;font-weight:normal;font-size:12px;font-family:'Trebuchet MS';writing-mode:lr-tb;fill:#000000;fill-opacity:1;fill-rule:nonzero;stroke:none"
         x="0"
         dx="0 -0.47999996"
         y="0">Resist Succeeds</tspan></text>
    <path
       id="path53"
       d="m 434.148,426.602 h 59 v 14.5 h -59 z"
       style="fill:#ffffff;fill-opacity:1;fill-rule:nonzero;stroke:none"
       transform="scale(1.3333333)"
       clip-path="url(#clipPath54)" />
    <text
       id="text54"
       xml:space="preserve"
       transform="matrix(1.3333333,0,0,1.3333333,578.86662,584.13326)"><tspan
         id="tspan54"
         style="font-variant:normal;font-weight:normal;font-size:12px;font-family:'Trebuchet MS';writing-mode:lr-tb;fill:#000000;fill-opacity:1;fill-rule:nonzero;stroke:none"
         x="0"
         dx="0 -0.47999996"
         y="0">Resist Fails</tspan></text>
    <path
       id="path55"
       d="M 198.492,48 H 355.89 V 78.449 H 198.492 Z"
       style="fill:#cde498;fill-opacity:1;fill-rule:nonzero;stroke:#13540c;stroke-width:0.75;stroke-linecap:butt;stroke-linejoin:miter;stroke-miterlimit:4;stroke-dasharray:none;stroke-opacity:1"
       transform="scale(1.3333333)" />
    <text
       id="text55"
       xml:space="preserve"
       transform="matrix(1.3333333,0,0,1.3333333,272.15833,86.833327)"><tspan
         id="tspan55"
         style="font-variant:normal;font-weight:normal;font-size:12px;font-family:'Trebuchet MS';writing-mode:lr-tb;fill:#000000;fill-opacity:1;fill-rule:nonzero;stroke:none"
         x="0"
         y="0">Manifest Interaction Begins</tspan></text>
    <path
       id="path56"
       d="m 248.301,115.949 h 57.785 c 2.07,0 3.75,1.68 3.75,3.75 v 22.949 c 0,2.071 -1.68,3.75 -3.75,3.75 h -57.785 c -2.071,0 -3.75,-1.679 -3.75,-3.75 v -22.949 c 0,-2.07 1.679,-3.75 3.75,-3.75 z"
       style="fill:#cde498;fill-opacity:1;fill-rule:nonzero;stroke:#13540c;stroke-width:0.75;stroke-linecap:butt;stroke-linejoin:miter;stroke-miterlimit:4;stroke-dasharray:none;stroke-opacity:1"
       transform="scale(1.3333333)" />
    <text
       id="text56"
       xml:space="preserve"
       transform="matrix(1.3333333,0,0,1.3333333,333.56663,177.43332)"><tspan
         id="tspan56"
         style="font-variant:normal;font-weight:normal;font-size:12px;font-family:'Trebuchet MS';writing-mode:lr-tb;fill:#000000;fill-opacity:1;fill-rule:nonzero;stroke:none"
         x="0"
         y="0">Immuned?</tspan></text>
    <path
       id="path57"
       d="M 54,407.852 H 216.477 V 377.398 H 54 v 30.454 H 48 222.477 V 377.398 H 48 v 30.454 z"
       style="fill:#cde498;fill-opacity:1;fill-rule:nonzero;stroke:#13540c;stroke-width:0.75;stroke-linecap:butt;stroke-linejoin:miter;stroke-miterlimit:4;stroke-dasharray:none;stroke-opacity:1"
       transform="scale(1.3333333)" />
    <text
       id="text57"
       xml:space="preserve"
       transform="matrix(1.3333333,0,0,1.3333333,79.499989,526.03336)"><tspan
         id="tspan57"
         style="font-variant:normal;font-weight:normal;font-size:12px;font-family:'Trebuchet MS';writing-mode:lr-tb;fill:#000000;fill-opacity:1;fill-rule:nonzero;stroke:none"
         x="0"
         y="0">Immunity Interaction Begins</tspan></text>
    <path
       id="path58"
       d="m 334.77,203.102 h 52.363 c 2.066,0 3.75,1.679 3.75,3.75 v 22.949 c 0,2.07 -1.684,3.75 -3.75,3.75 H 334.77 c -2.071,0 -3.75,-1.68 -3.75,-3.75 v -22.949 c 0,-2.071 1.679,-3.75 3.75,-3.75 z"
       style="fill:#cde498;fill-opacity:1;fill-rule:nonzero;stroke:#13540c;stroke-width:0.75;stroke-linecap:butt;stroke-linejoin:miter;stroke-miterlimit:4;stroke-dasharray:none;stroke-opacity:1"
       transform="scale(1.3333333)" />
    <text
       id="text58"
       xml:space="preserve"
       transform="matrix(1.3333333,0,0,1.3333333,448.85832,293.63332)"><tspan
         id="tspan58"
         style="font-variant:normal;font-weight:normal;font-size:12px;font-family:'Trebuchet MS';writing-mode:lr-tb;fill:#000000;fill-opacity:1;fill-rule:nonzero;stroke:none"
         x="0"
         dx="0 -0.47999996"
         y="0">Resisted?</tspan></text>
    <path
       id="path59"
       d="M 218.602,320.699 H 386.898 V 290.25 H 218.602 v 30.449 h -6 180.296 V 290.25 H 212.602 v 30.449 z"
       style="fill:#cde498;fill-opacity:1;fill-rule:nonzero;stroke:#13540c;stroke-width:0.75;stroke-linecap:butt;stroke-linejoin:miter;stroke-miterlimit:4;stroke-dasharray:none;stroke-opacity:1"
       transform="scale(1.3333333)" />
    <text
       id="text59"
       xml:space="preserve"
       transform="matrix(1.3333333,0,0,1.3333333,298.96663,409.83333)"><tspan
         id="tspan59"
         style="font-variant:normal;font-weight:normal;font-size:12px;font-family:'Trebuchet MS';writing-mode:lr-tb;fill:#000000;fill-opacity:1;fill-rule:nonzero;stroke:none"
         x="0"
         dx="0 -0.47999996"
         y="0">Resistance Interaction Begins</tspan></text>
    <path
       id="path60"
       d="m 267.586,407.852 h 70.328 l 7.609,-15.227 -7.609,-15.227 h -70.328 l -7.609,15.227 z"
       style="fill:#cde498;fill-opacity:1;fill-rule:nonzero;stroke:#13540c;stroke-width:0.75;stroke-linecap:butt;stroke-linejoin:miter;stroke-miterlimit:4;stroke-dasharray:none;stroke-opacity:1"
       transform="scale(1.3333333)" />
    <text
       id="text60"
       xml:space="preserve"
       transform="matrix(1.3333333,0,0,1.3333333,364.28328,526.03336)"><tspan
         id="tspan60"
         style="font-variant:normal;font-weight:normal;font-size:12px;font-family:'Trebuchet MS';writing-mode:lr-tb;fill:#000000;fill-opacity:1;fill-rule:nonzero;stroke:none"
         x="0"
         dx="0 -0.47999996"
         y="0">Resist Save</tspan></text>
    <path
       id="path61"
       d="m 188.668,464.551 h 60.652 c 8.403,0 15.223,6.82 15.223,15.222 0,8.407 -6.82,15.227 -15.223,15.227 h -60.652 c -8.402,0 -15.223,-6.82 -15.223,-15.227 0,-8.402 6.821,-15.222 15.223,-15.222 z"
       style="fill:#cde498;fill-opacity:1;fill-rule:nonzero;stroke:#13540c;stroke-width:0.75;stroke-linecap:butt;stroke-linejoin:miter;stroke-miterlimit:4;stroke-dasharray:none;stroke-opacity:1"
       transform="scale(1.3333333)" />
    <text
       id="text61"
       xml:space="preserve"
       transform="matrix(1.3333333,0,0,1.3333333,243.83331,642.23331)"><tspan
         id="tspan61"
         style="font-variant:normal;font-weight:normal;font-size:12px;font-family:'Trebuchet MS';writing-mode:lr-tb;fill:#000000;fill-opacity:1;fill-rule:nonzero;stroke:none"
         x="0"
         y="0">Effect Fizzles</tspan></text>
    <path
       id="path62"
       d="m 409.699,464.551 h 63.403 c 8.402,0 15.222,6.82 15.222,15.222 0,8.407 -6.82,15.227 -15.222,15.227 h -63.403 c -8.402,0 -15.222,-6.82 -15.222,-15.227 0,-8.402 6.82,-15.222 15.222,-15.222 z"
       style="fill:#cde498;fill-opacity:1;fill-rule:nonzero;stroke:#13540c;stroke-width:0.75;stroke-linecap:butt;stroke-linejoin:miter;stroke-miterlimit:4;stroke-dasharray:none;stroke-opacity:1"
       transform="scale(1.3333333)" />
    <text
       id="text62"
       xml:space="preserve"
       transform="matrix(1.3333333,0,0,1.3333333,538.54159,642.23331)"><tspan
         id="tspan62"
         style="font-variant:normal;font-weight:normal;font-size:12px;font-family:'Trebuchet MS';writing-mode:lr-tb;fill:#000000;fill-opacity:1;fill-rule:nonzero;stroke:none"
         x="0"
         y="0">Effect Applies</tspan></text>
  </g>
</svg>
