<?xml version="1.0" encoding="UTF-8" standalone="no"?>
<!-- Created with Inkscape (http://www.inkscape.org/) -->

<svg
   version="1.1"
   id="svg1"
   width="679.45862"
   height="920"
   viewBox="0 0 679.45859 920"
   sodipodi:docname="complete-feat-interaction.svg"
   inkscape:version="1.4.3 (0d15f75042, 2025-12-25)"
   xmlns:inkscape="http://www.inkscape.org/namespaces/inkscape"
   xmlns:sodipodi="http://sodipodi.sourceforge.net/DTD/sodipodi-0.dtd"
   xmlns="http://www.w3.org/2000/svg"
   xmlns:svg="http://www.w3.org/2000/svg">
  <defs
     id="defs1">
    <clipPath
       clipPathUnits="userSpaceOnUse"
       id="clipPath2">
      <path
         d="m 113.77265,-287.38189 8.99999,4.9e-4 -10e-4,8.99997 -8.99999,-4.9e-4 z"
         id="path2" />
    </clipPath>
    <clipPath
       clipPathUnits="userSpaceOnUse"
       id="clipPath4">
      <path
         d="m 373.33333,144 h 13.33334 v 13.33333 h -13.33334 z"
         id="path4" />
    </clipPath>
    <clipPath
       clipPathUnits="userSpaceOnUse"
       id="clipPath6">
      <path
         d="m 154.082,699.69502 8.402,3.227 -3.226,8.402 -8.403,-3.226 z"
         id="path6" />
    </clipPath>
    <clipPath
       clipPathUnits="userSpaceOnUse"
       id="clipPath8">
      <path
         d="m 368.42289,558.23462 8.40232,8.3e-4 4e-5,8.40199 -8.40285,3.7e-4 z"
         id="path8" />
    </clipPath>
    <clipPath
       clipPathUnits="userSpaceOnUse"
       id="clipPath10">
      <path
         d="m 200,932 h 16 v 13.33333 h -16 z"
         id="path10" />
    </clipPath>
    <clipPath
       clipPathUnits="userSpaceOnUse"
       id="clipPath13">
      <path
         d="m 195,-337.14101 v -9 h 9.00001 v 9 z"
         id="path13" />
    </clipPath>
    <clipPath
       clipPathUnits="userSpaceOnUse"
       id="clipPath15">
      <path
         d="m 287.60395,-393.43432 9,4.7e-4 -4.7e-4,8.99999 -8.99999,-4.6e-4 z"
         id="path15" />
    </clipPath>
    <clipPath
       clipPathUnits="userSpaceOnUse"
       id="clipPath17">
      <path
         d="m 517.33333,376 h 13.33334 v 13.33333 h -13.33334 z"
         id="path17" />
    </clipPath>
    <clipPath
       clipPathUnits="userSpaceOnUse"
       id="clipPath19">
      <path
         d="m 301.82801,361.64501 8.856,1.601 -1.602,8.856 -8.855,-1.602 z"
         id="path19" />
    </clipPath>
    <clipPath
       clipPathUnits="userSpaceOnUse"
       id="clipPath21">
      <path
         d="m 355.64179,297.26282 8.85562,-0.002 10e-4,8.85578 -8.85482,10e-4 z"
         id="path21" />
    </clipPath>
    <clipPath
       clipPathUnits="userSpaceOnUse"
       id="clipPath23">
      <path
         d="m 400,481.33333 h 14.66667 V 496 H 400 Z"
         id="path23" />
    </clipPath>
    <clipPath
       clipPathUnits="userSpaceOnUse"
       id="clipPath25">
      <path
         d="m 373.62901,357.43801 -7.481,5.003 -5.003,-7.48 7.48,-5.004 z"
         id="path25" />
    </clipPath>
    <clipPath
       clipPathUnits="userSpaceOnUse"
       id="clipPath27">
      <path
         d="m -92.888343,-419.5883 7.479876,0.002 -0.0012,7.47918 -7.479647,-5.2e-4 z"
         id="path27" />
    </clipPath>
    <clipPath
       clipPathUnits="userSpaceOnUse"
       id="clipPath29">
      <path
         d="m 482.66667,465.33333 h 16 V 480 h -16 z"
         id="path29" />
    </clipPath>
    <clipPath
       clipPathUnits="userSpaceOnUse"
       id="clipPath31">
      <path
         d="m 614.43124,-196.43222 8.99999,4.8e-4 -4.8e-4,9 -8.99999,-4.9e-4 z"
         id="path31" />
    </clipPath>
    <clipPath
       clipPathUnits="userSpaceOnUse"
       id="clipPath33">
      <path
         d="m 260,814.66667 h 13.33333 V 828 H 260 Z"
         id="path33" />
    </clipPath>
    <clipPath
       clipPathUnits="userSpaceOnUse"
       id="clipPath36">
      <path
         d="m 698.69902,-195.184 v -9.00001 h 9 v 9.00001 z"
         id="path36" />
    </clipPath>
    <clipPath
       clipPathUnits="userSpaceOnUse"
       id="clipPath39">
      <path
         d="m 437.25001,-420.89801 v -9 h 9 v 9 z"
         id="path39" />
    </clipPath>
    <clipPath
       clipPathUnits="userSpaceOnUse"
       id="clipPath41">
      <path
         d="m 498.39801,697.53902 4.094,8.016 -8.015,4.093 -4.094,-8.015 z"
         id="path41" />
    </clipPath>
    <clipPath
       clipPathUnits="userSpaceOnUse"
       id="clipPath43">
      <path
         d="m 755.14034,-112.80597 8.01635,-6.7e-4 2.8e-4,8.01514 -8.01555,0.001 z"
         id="path43" />
    </clipPath>
    <clipPath
       clipPathUnits="userSpaceOnUse"
       id="clipPath45">
      <path
         d="m 653.33333,929.33333 h 12 v 16 h -12 z"
         id="path45" />
    </clipPath>
    <clipPath
       clipPathUnits="userSpaceOnUse"
       id="clipPath47">
      <path
         d="m 371.96501,524.71901 0.117,9 -9,0.117 -0.117,-9 z"
         id="path47" />
    </clipPath>
    <clipPath
       clipPathUnits="userSpaceOnUse"
       id="clipPath49">
      <path
         d="m 529.48528,-365.05184 8.99999,5.1e-4 -5.1e-4,8.99999 -8.99999,-5.1e-4 z"
         id="path49" />
    </clipPath>
    <clipPath
       clipPathUnits="userSpaceOnUse"
       id="clipPath51">
      <path
         d="m 482.66667,698.66667 h 14.66666 V 712 h -14.66666 z"
         id="path51" />
    </clipPath>
    <clipPath
       clipPathUnits="userSpaceOnUse"
       id="clipPath53">
      <path
         d="m 371.96501,611.86702 0.117,9 -9,0.117 -0.117,-9 z"
         id="path53" />
    </clipPath>
    <clipPath
       clipPathUnits="userSpaceOnUse"
       id="clipPath55">
      <path
         d="m 616.61842,-363.91419 9,5e-4 -5.1e-4,9 -8.99999,-5.1e-4 z"
         id="path55" />
    </clipPath>
    <clipPath
       clipPathUnits="userSpaceOnUse"
       id="clipPath57">
      <path
         d="m 482.66667,814.66667 h 14.66666 V 828 h -14.66666 z"
         id="path57" />
    </clipPath>
    <clipPath
       clipPathUnits="userSpaceOnUse"
       id="clipPath59">
      <path
         d="m 254.20701,712.49202 -8.711,2.266 -2.266,-8.711 8.711,-2.266 z"
         id="path59" />
    </clipPath>
    <clipPath
       clipPathUnits="userSpaceOnUse"
       id="clipPath61">
      <path
         d="m -64.502469,-729.27098 8.711004,-2e-5 1.6e-5,8.71101 -8.711005,10e-6 z"
         id="path61" />
    </clipPath>
    <clipPath
       clipPathUnits="userSpaceOnUse"
       id="clipPath63">
      <path
         d="m 324,937.33333 h 16 V 952 h -16 z"
         id="path63" />
    </clipPath>
    <clipPath
       clipPathUnits="userSpaceOnUse"
       id="clipPath65">
      <path
         d="m 521.31201,701.63302 -4.093,8.015 -8.016,-4.093 4.094,-8.016 z"
         id="path65" />
    </clipPath>
    <clipPath
       clipPathUnits="userSpaceOnUse"
       id="clipPath67">
      <path
         d="m 345.39182,-697.67357 8.01517,3.5e-4 6e-5,8.01597 -8.01637,-7.4e-4 z"
         id="path67" />
    </clipPath>
    <clipPath
       clipPathUnits="userSpaceOnUse"
       id="clipPath69">
      <path
         d="M 682.66667,929.33333 H 696 v 16 h -13.33333 z"
         id="path69" />
    </clipPath>
    <clipPath
       clipPathUnits="userSpaceOnUse"
       id="clipPath71">
      <path
         d="M 48.004001,407.39801 H 124.402 v 14.602 H 48.004001 Z"
         id="path71" />
    </clipPath>
    <clipPath
       clipPathUnits="userSpaceOnUse"
       id="clipPath73">
      <path
         d="m 315.66401,165.148 h 51.949 V 180 h -51.949 z"
         id="path73" />
    </clipPath>
    <clipPath
       clipPathUnits="userSpaceOnUse"
       id="clipPath75">
      <path
         d="m 383.91801,252.30101 h 17.012 v 14.699 h -17.012 z"
         id="path75" />
    </clipPath>
    <clipPath
       clipPathUnits="userSpaceOnUse"
       id="clipPath77">
      <path
         d="m 146.914,295.87501 h 14.113 v 15.125 h -14.113 z"
         id="path77" />
    </clipPath>
    <clipPath
       clipPathUnits="userSpaceOnUse"
       id="clipPath79">
      <path
         d="m 191.184,494.55101 h 17.01201 v 15.449 H 191.184 Z"
         id="path79" />
    </clipPath>
    <clipPath
       clipPathUnits="userSpaceOnUse"
       id="clipPath81">
      <path
         d="m 418.34801,407.39801 h 14.113 v 14.602 h -14.113 z"
         id="path81" />
    </clipPath>
    <clipPath
       clipPathUnits="userSpaceOnUse"
       id="clipPath83">
      <path
         d="m 476.54701,581.69901 h 14.113 v 15.301 h -14.113 z"
         id="path83" />
    </clipPath>
    <clipPath
       clipPathUnits="userSpaceOnUse"
       id="clipPath85">
      <path
         d="m 358.69501,494.55101 h 17.012 v 15.449 h -17.012 z"
         id="path85" />
    </clipPath>
    <clipPath
       clipPathUnits="userSpaceOnUse"
       id="clipPath87">
      <path
         d="m 325.47701,668.85202 h 83.438 v 15.148 h -83.438 z"
         id="path87" />
    </clipPath>
    <clipPath
       clipPathUnits="userSpaceOnUse"
       id="clipPath89">
      <path
         d="m 498.59801,668.85202 h 59.012 v 15.148 h -59.012 z"
         id="path89" />
    </clipPath>
  </defs>
  <sodipodi:namedview
     id="namedview1"
     pagecolor="#ffffff"
     bordercolor="#111111"
     borderopacity="1"
     inkscape:showpageshadow="0"
     inkscape:pageopacity="0"
     inkscape:pagecheckerboard="1"
     inkscape:deskcolor="#d1d1d1"
     inkscape:zoom="0.80352645"
     inkscape:cx="498.4279"
     inkscape:cy="730.52978"
     inkscape:window-width="1019"
     inkscape:window-height="735"
     inkscape:window-x="35"
     inkscape:window-y="32"
     inkscape:window-maximized="0"
     inkscape:current-layer="g1">
    <inkscape:page
       x="0"
       y="0"
       inkscape:label="1"
       id="page1"
       width="679.45862"
       height="920"
       margin="0"
       bleed="0" />
  </sodipodi:namedview>
  <g
     id="g1"
     inkscape:groupmode="layer"
     inkscape:label="1"
     transform="translate(-64.005336,-63.5)">
    <path
       id="path1"
       d="m 284.898,78.449 v 3.125 c 0,3.125 0,9.375 0.063,15.688 0.062,6.312 0.187,12.687 0.25,15.875 l 0.062,3.187"
       style="fill:none;stroke:#000000;stroke-width:1.5;stroke-linecap:butt;stroke-linejoin:miter;stroke-miterlimit:4;stroke-dasharray:none;stroke-opacity:1"
       transform="scale(1.3333333)" />
    <g
       id="g3"
       clip-path="url(#clipPath4)">
      <path
         d="m 113.772,-287.382 9.002,4.501 -8.998,4.499 z"
         style="fill:#000000;fill-opacity:1;fill-rule:nonzero;stroke:#000000;stroke-width:0.899827;stroke-linecap:butt;stroke-linejoin:miter;stroke-miterlimit:4;stroke-dasharray:none;stroke-opacity:1"
         transform="matrix(0.02614707,1.3333333,-1.3333333,0.02614707,0,0)"
         clip-path="url(#clipPath2)"
         id="path3" />
    </g>
    <path
       id="path5"
       d="m 249.898,139.309 -27.281,5.906 c -27.285,5.906 -81.851,17.723 -109.137,30.89 -27.285,13.168 -27.285,27.696 -27.285,42.219 0,14.528 0,29.051 0,43.574 0,14.528 0,29.051 0,41.977 0,12.926 0,24.25 0,35.574 0,11.324 0,22.653 0,35.574 0,12.926 0,27.454 0,41.977 0,14.523 0,29.051 0,43.574 0,14.528 0,29.051 0,43.574 0,14.528 0,29.051 0,43.579 0,14.523 0,29.046 0,43.574 0,14.523 0,29.051 0,43.574 0,14.523 0,29.051 12.309,41.039 12.305,11.984 36.918,21.438 49.223,26.16 l 12.304,4.727"
       style="fill:none;stroke:#000000;stroke-width:1.5;stroke-linecap:butt;stroke-linejoin:miter;stroke-miterlimit:4;stroke-dasharray:none;stroke-opacity:1"
       transform="scale(1.3333333)" />
    <g
       id="g7">
      <path
         d="m 154.082,699.695 6.789,7.426 -10.016,0.977 z"
         style="fill:#000000;fill-opacity:1;fill-rule:nonzero;stroke:none"
         transform="scale(1.3333333)"
         clip-path="url(#clipPath6)"
         id="path7" />
    </g>
    <g
       id="g9"
       clip-path="url(#clipPath10)">
      <path
         d="m 368.423,558.235 8.402,4.2 -8.402,4.202 z"
         style="fill:none;stroke:#000000;stroke-width:0.840195;stroke-linecap:butt;stroke-linejoin:miter;stroke-miterlimit:4;stroke-dasharray:none;stroke-opacity:1"
         transform="matrix(1.3333333,0.51194933,-0.51194933,1.3333333,0,0)"
         clip-path="url(#clipPath8)"
         id="path9" />
    </g>
    <path
       id="path11"
       d="m 305.098,146.773 6.09,4.665 c 6.089,4.664 18.273,13.988 24.363,23.374 6.09,9.387 6.09,18.836 6.09,23.563 v 4.727"
       style="fill:none;stroke:#000000;stroke-width:1.5;stroke-linecap:butt;stroke-linejoin:miter;stroke-miterlimit:4;stroke-dasharray:none;stroke-opacity:1"
       transform="scale(1.3333333)" />
    <path
       id="path12"
       d="m 195,-346.141 9,4.5 -9,4.5 z"
       style="fill:#000000;fill-opacity:1;fill-rule:nonzero;stroke:#000000;stroke-width:0.9;stroke-linecap:butt;stroke-linejoin:miter;stroke-miterlimit:4;stroke-dasharray:none;stroke-opacity:1"
       transform="matrix(0,1.3333333,-1.3333333,0,0,0)"
       clip-path="url(#clipPath13)" />
    <path
       id="path14"
       d="m 359.383,233.551 5.504,4.722 c 5.508,4.727 16.519,14.176 22.09,23.688 5.566,9.516 5.691,19.09 5.753,23.875 l 0.063,4.789"
       style="fill:none;stroke:#000000;stroke-width:1.5;stroke-linecap:butt;stroke-linejoin:miter;stroke-miterlimit:4;stroke-dasharray:none;stroke-opacity:1"
       transform="scale(1.3333333)" />
    <g
       id="g16"
       clip-path="url(#clipPath17)">
      <path
         d="m 287.604,-393.434 8.996,4.5 -8.997,4.5 z"
         style="fill:#000000;fill-opacity:1;fill-rule:nonzero;stroke:#000000;stroke-width:0.899923;stroke-linecap:butt;stroke-linejoin:miter;stroke-miterlimit:4;stroke-dasharray:none;stroke-opacity:1"
         transform="matrix(0.01740213,1.3333333,-1.3333333,0.01740213,0,0)"
         clip-path="url(#clipPath15)"
         id="path16" />
    </g>
    <path
       id="path18"
       d="m 302.609,227.387 -24.773,5.754 c -24.774,5.75 -74.324,17.254 -99.098,30.269 -24.773,13.016 -24.773,27.539 -24.773,40.465 0,12.926 0,24.25 25.84,34.59 25.84,10.34 77.515,19.695 103.355,24.375 l 25.836,4.676"
       style="fill:none;stroke:#000000;stroke-width:1.5;stroke-linecap:butt;stroke-linejoin:miter;stroke-miterlimit:4;stroke-dasharray:none;stroke-opacity:1"
       transform="scale(1.3333333)" />
    <g
       id="g20">
      <path
         d="m 301.828,361.645 8.055,6.031 -9.656,2.824 z"
         style="fill:#000000;fill-opacity:1;fill-rule:nonzero;stroke:none"
         transform="scale(1.3333333)"
         clip-path="url(#clipPath19)"
         id="path20" />
    </g>
    <g
       id="g22"
       clip-path="url(#clipPath23)">
      <path
         d="m 355.642,297.262 8.856,4.428 -8.855,4.428 z"
         style="fill:none;stroke:#000000;stroke-width:0.885605;stroke-linecap:butt;stroke-linejoin:miter;stroke-miterlimit:4;stroke-dasharray:none;stroke-opacity:1"
         transform="matrix(1.3333333,0.24137467,-0.24137467,1.3333333,0,0)"
         clip-path="url(#clipPath21)"
         id="path22" />
    </g>
    <path
       id="path24"
       d="m 392.793,321.074 -0.063,3.063 c -0.062,3.062 -0.187,9.187 -4.918,15.375 -4.734,6.187 -14.074,12.437 -18.746,15.562 l -4.671,3.125"
       style="fill:none;stroke:#000000;stroke-width:1.5;stroke-linecap:butt;stroke-linejoin:miter;stroke-miterlimit:4;stroke-dasharray:none;stroke-opacity:1"
       transform="scale(1.3333333)" />
    <g
       id="g26">
      <path
         d="m 373.629,357.438 -9.981,1.261 4.977,-8.742 z"
         style="fill:#000000;fill-opacity:1;fill-rule:nonzero;stroke:none"
         transform="scale(1.3333333)"
         clip-path="url(#clipPath25)"
         id="path26" />
    </g>
    <g
       id="g28"
       clip-path="url(#clipPath29)">
      <path
         d="m -92.889,-419.588 7.478,3.741 -7.478,3.739 z"
         style="fill:none;stroke:#000000;stroke-width:0.748009;stroke-linecap:butt;stroke-linejoin:miter;stroke-miterlimit:4;stroke-dasharray:none;stroke-opacity:1"
         transform="matrix(-1.3333333,0.89211467,-0.89211467,-1.3333333,0,0)"
         clip-path="url(#clipPath27)"
         id="path28" />
    </g>
    <path
       id="path30"
       d="m 308.996,383.445 -18.219,5.594 c -18.218,5.59 -54.656,16.777 -72.875,29.633 -18.218,12.851 -18.218,27.379 -18.218,41.902 0,14.528 0,29.051 0,43.574 0,14.528 0,29.051 0,43.579 0,14.523 0,29.046 0.062,41.097 0.063,12.051 0.188,21.625 0.25,26.414 l 0.063,4.785"
       style="fill:none;stroke:#000000;stroke-width:1.5;stroke-linecap:butt;stroke-linejoin:miter;stroke-miterlimit:4;stroke-dasharray:none;stroke-opacity:1"
       transform="scale(1.3333333)" />
    <g
       id="g32"
       clip-path="url(#clipPath33)">
      <path
         d="m 614.431,-196.432 9,4.5 -9,4.5 z"
         style="fill:#000000;fill-opacity:1;fill-rule:nonzero;stroke:#000000;stroke-width:0.899923;stroke-linecap:butt;stroke-linejoin:miter;stroke-miterlimit:4;stroke-dasharray:none;stroke-opacity:1"
         transform="matrix(0.01740533,1.3333333,-1.3333333,0.01740533,0,0)"
         clip-path="url(#clipPath31)"
         id="path32" />
    </g>
    <path
       id="path34"
       d="m 200.059,650.477 -0.063,4.66 c -0.062,4.664 -0.187,13.988 -0.25,23.375 -0.062,9.386 -0.062,18.84 -0.062,23.562 v 4.727"
       style="fill:none;stroke:#000000;stroke-width:1.5;stroke-linecap:butt;stroke-linejoin:miter;stroke-miterlimit:4;stroke-dasharray:none;stroke-opacity:1"
       transform="scale(1.3333333)" />
    <path
       id="path35"
       d="m 698.699,-204.184 9,4.5 -9,4.5 z"
       style="fill:#000000;fill-opacity:1;fill-rule:nonzero;stroke:#000000;stroke-width:0.9;stroke-linecap:butt;stroke-linejoin:miter;stroke-miterlimit:4;stroke-dasharray:none;stroke-opacity:1"
       transform="matrix(0,1.3333333,-1.3333333,0,0,0)"
       clip-path="url(#clipPath36)" />
    <path
       id="path37"
       d="m 370.906,388.648 9.082,4.727 c 9.082,4.727 27.246,14.176 36.328,23.625 9.082,9.449 9.082,18.898 9.082,23.625 v 4.727"
       style="fill:none;stroke:#000000;stroke-width:1.5;stroke-linecap:butt;stroke-linejoin:miter;stroke-miterlimit:4;stroke-dasharray:none;stroke-opacity:1"
       transform="scale(1.3333333)" />
    <path
       id="path38"
       d="m 437.25,-429.898 9,4.5 -9,4.5 z"
       style="fill:#000000;fill-opacity:1;fill-rule:nonzero;stroke:#000000;stroke-width:0.9;stroke-linecap:butt;stroke-linejoin:miter;stroke-miterlimit:4;stroke-dasharray:none;stroke-opacity:1"
       transform="matrix(0,1.3333333,-1.3333333,0,0,0)"
       clip-path="url(#clipPath39)" />
    <path
       id="path40"
       d="m 445.73,475.801 6.313,4.722 c 6.309,4.727 18.934,14.176 25.242,26.165 6.313,11.988 6.313,26.511 6.313,41.039 0,14.523 0,29.046 0,43.574 0,14.523 0,29.051 0,43.574 0,14.523 0,29.051 2.41,41.039 2.414,11.984 7.238,21.438 9.652,26.16 l 2.414,4.727"
       style="fill:none;stroke:#000000;stroke-width:1.5;stroke-linecap:butt;stroke-linejoin:miter;stroke-miterlimit:4;stroke-dasharray:none;stroke-opacity:1"
       transform="scale(1.3333333)" />
    <g
       id="g42">
      <path
         d="m 498.398,697.539 0.082,10.063 -8.097,-5.969 z"
         style="fill:#000000;fill-opacity:1;fill-rule:nonzero;stroke:none"
         transform="scale(1.3333333)"
         clip-path="url(#clipPath41)"
         id="path42" />
    </g>
    <g
       id="g44"
       clip-path="url(#clipPath45)">
      <path
         d="m 755.141,-112.806 8.014,4.01 -8.014,4.006 z"
         style="fill:none;stroke:#000000;stroke-width:0.80155;stroke-linecap:butt;stroke-linejoin:miter;stroke-miterlimit:4;stroke-dasharray:none;stroke-opacity:1"
         transform="matrix(0.68083067,1.3333333,-1.3333333,0.68083067,0,0)"
         clip-path="url(#clipPath43)"
         id="path44" />
    </g>
    <path
       id="path46"
       d="m 405.062,475.801 -6.312,4.722 c -6.309,4.727 -18.93,14.176 -25.18,23.688 -6.25,9.516 -6.125,19.09 -6.062,23.875 l 0.062,4.789"
       style="fill:none;stroke:#000000;stroke-width:1.5;stroke-linecap:butt;stroke-linejoin:miter;stroke-miterlimit:4;stroke-dasharray:none;stroke-opacity:1"
       transform="scale(1.3333333)" />
    <g
       id="g48">
      <path
         d="m 371.965,524.719 -4.383,9.054 -4.617,-8.937 z"
         style="fill:#000000;fill-opacity:1;fill-rule:nonzero;stroke:none"
         transform="scale(1.3333333)"
         clip-path="url(#clipPath47)"
         id="path48" />
    </g>
    <g
       id="g50"
       clip-path="url(#clipPath51)">
      <path
         d="m 529.485,-365.052 8.996,4.501 -8.996,4.499 z"
         style="fill:none;stroke:#000000;stroke-width:0.899923;stroke-linecap:butt;stroke-linejoin:miter;stroke-miterlimit:4;stroke-dasharray:none;stroke-opacity:1"
         transform="matrix(0.01740853,1.3333333,-1.3333333,0.01740853,0,0)"
         clip-path="url(#clipPath49)"
         id="path50" />
    </g>
    <path
       id="path52"
       d="m 367.57,563.324 -0.062,4.664 c -0.063,4.66 -0.188,13.989 -0.188,23.438 0,9.449 0.125,19.023 0.188,23.812 l 0.062,4.785"
       style="fill:none;stroke:#000000;stroke-width:1.5;stroke-linecap:butt;stroke-linejoin:miter;stroke-miterlimit:4;stroke-dasharray:none;stroke-opacity:1"
       transform="scale(1.3333333)" />
    <g
       id="g54">
      <path
         d="m 371.965,611.867 -4.383,9.059 -4.617,-8.942 z"
         style="fill:#000000;fill-opacity:1;fill-rule:nonzero;stroke:none"
         transform="scale(1.3333333)"
         clip-path="url(#clipPath53)"
         id="path54" />
    </g>
    <g
       id="g56"
       clip-path="url(#clipPath57)">
      <path
         d="m 616.619,-363.914 8.999,4.5 -9,4.5 z"
         style="fill:none;stroke:#000000;stroke-width:0.899923;stroke-linecap:butt;stroke-linejoin:miter;stroke-miterlimit:4;stroke-dasharray:none;stroke-opacity:1"
         transform="matrix(0.01740853,1.3333333,-1.3333333,0.01740853,0,0)"
         clip-path="url(#clipPath55)"
         id="path56" />
    </g>
    <path
       id="path58"
       d="m 367.57,650.477 -0.062,4.66 c -0.063,4.664 -0.188,13.988 -20.574,23.937 -20.391,9.949 -61.047,20.528 -81.372,25.813 l -20.328,5.289"
       style="fill:none;stroke:#000000;stroke-width:1.5;stroke-linecap:butt;stroke-linejoin:miter;stroke-miterlimit:4;stroke-dasharray:none;stroke-opacity:1"
       transform="scale(1.3333333)" />
    <g
       id="g60">
      <path
         d="m 254.207,712.492 -9.844,-2.09 7.578,-6.621 z"
         style="fill:#000000;fill-opacity:1;fill-rule:nonzero;stroke:none"
         transform="scale(1.3333333)"
         clip-path="url(#clipPath59)"
         id="path60" />
    </g>
    <g
       id="g62"
       clip-path="url(#clipPath63)">
      <path
         d="m -64.502,-729.271 8.711,4.356 -8.711,4.355 z"
         style="fill:none;stroke:#000000;stroke-width:0.871013;stroke-linecap:butt;stroke-linejoin:miter;stroke-miterlimit:4;stroke-dasharray:none;stroke-opacity:1"
         transform="matrix(-1.3333333,0.34683867,-0.34683867,-1.3333333,0,0)"
         clip-path="url(#clipPath61)"
         id="path62" />
    </g>
    <path
       id="path64"
       d="m 405.246,645.453 20.473,5.5 c 20.476,5.5 61.426,16.496 79.492,26.723 18.062,10.222 13.234,19.676 10.824,24.398 l -2.414,4.727"
       style="fill:none;stroke:#000000;stroke-width:1.5;stroke-linecap:butt;stroke-linejoin:miter;stroke-miterlimit:4;stroke-dasharray:none;stroke-opacity:1"
       transform="scale(1.3333333)" />
    <g
       id="g66">
      <path
         d="m 521.312,701.633 -8.101,5.969 0.086,-10.063 z"
         style="fill:#000000;fill-opacity:1;fill-rule:nonzero;stroke:none"
         transform="scale(1.3333333)"
         clip-path="url(#clipPath65)"
         id="path66" />
    </g>
    <g
       id="g68"
       clip-path="url(#clipPath69)">
      <path
         d="m 345.391,-697.674 8.016,4.009 -8.016,4.007 z"
         style="fill:none;stroke:#000000;stroke-width:0.801553;stroke-linecap:butt;stroke-linejoin:miter;stroke-miterlimit:4;stroke-dasharray:none;stroke-opacity:1"
         transform="matrix(-0.68081733,1.3333333,-1.3333333,-0.68081733,0,0)"
         clip-path="url(#clipPath67)"
         id="path68" />
    </g>
    <path
       id="path70"
       d="m 48.004,407.398 h 76.387 v 14.5 H 48.004 Z"
       style="fill:#ffffff;fill-opacity:1;fill-rule:nonzero;stroke:none"
       transform="scale(1.3333333)"
       clip-path="url(#clipPath71)" />
    <text
       id="text71"
       xml:space="preserve"
       transform="matrix(1.3333333,0,0,1.3333333,64.004181,558.53337)"><tspan
         id="tspan71"
         style="font-variant:normal;font-weight:normal;font-size:12px;font-family:'Trebuchet MS';writing-mode:lr-tb;fill:#000000;fill-opacity:1;fill-rule:nonzero;stroke:none"
         x="0"
         y="0">Feat Succeeds</tspan></text>
    <path
       id="path72"
       d="m 315.664,165.148 h 51.949 v 14.5 h -51.949 z"
       style="fill:#ffffff;fill-opacity:1;fill-rule:nonzero;stroke:none"
       transform="scale(1.3333333)"
       clip-path="url(#clipPath73)" />
    <text
       id="text73"
       xml:space="preserve"
       transform="matrix(1.3333333,0,0,1.3333333,420.88749,235.53332)"><tspan
         id="tspan73"
         style="font-variant:normal;font-weight:normal;font-size:12px;font-family:'Trebuchet MS';writing-mode:lr-tb;fill:#000000;fill-opacity:1;fill-rule:nonzero;stroke:none"
         x="0"
         y="0">Feat Fails</tspan></text>
    <path
       id="path74"
       d="m 383.918,252.301 h 17 v 14.5 h -17 z"
       style="fill:#ffffff;fill-opacity:1;fill-rule:nonzero;stroke:none"
       transform="scale(1.3333333)"
       clip-path="url(#clipPath75)" />
    <text
       id="text75"
       xml:space="preserve"
       transform="matrix(1.3333333,0,0,1.3333333,511.89164,351.73332)"><tspan
         id="tspan75"
         style="font-variant:normal;font-weight:normal;font-size:12px;font-family:'Trebuchet MS';writing-mode:lr-tb;fill:#000000;fill-opacity:1;fill-rule:nonzero;stroke:none"
         x="0"
         dx="0 -1.2599999"
         y="0">Yes</tspan></text>
    <path
       id="path76"
       d="m 146.914,295.875 h 14.102 v 14.5 h -14.102 z"
       style="fill:#ffffff;fill-opacity:1;fill-rule:nonzero;stroke:none"
       transform="scale(1.3333333)"
       clip-path="url(#clipPath77)" />
    <text
       id="text77"
       xml:space="preserve"
       transform="matrix(1.3333333,0,0,1.3333333,195.88751,409.83333)"><tspan
         id="tspan77"
         style="font-variant:normal;font-weight:normal;font-size:12px;font-family:'Trebuchet MS';writing-mode:lr-tb;fill:#000000;fill-opacity:1;fill-rule:nonzero;stroke:none"
         x="0"
         y="0">No</tspan></text>
    <path
       id="path78"
       d="m 191.184,494.551 h 17 v 14.5 h -17 z"
       style="fill:#ffffff;fill-opacity:1;fill-rule:nonzero;stroke:none"
       transform="scale(1.3333333)"
       clip-path="url(#clipPath79)" />
    <text
       id="text79"
       xml:space="preserve"
       transform="matrix(1.3333333,0,0,1.3333333,254.91248,674.73336)"><tspan
         id="tspan79"
         style="font-variant:normal;font-weight:normal;font-size:12px;font-family:'Trebuchet MS';writing-mode:lr-tb;fill:#000000;fill-opacity:1;fill-rule:nonzero;stroke:none"
         x="0"
         dx="0 -1.2599999"
         y="0">Yes</tspan></text>
    <path
       id="path80"
       d="m 418.348,407.398 h 14.102 v 14.5 h -14.102 z"
       style="fill:#ffffff;fill-opacity:1;fill-rule:nonzero;stroke:none"
       transform="scale(1.3333333)"
       clip-path="url(#clipPath81)" />
    <text
       id="text81"
       xml:space="preserve"
       transform="matrix(1.3333333,0,0,1.3333333,557.79582,558.53337)"><tspan
         id="tspan81"
         style="font-variant:normal;font-weight:normal;font-size:12px;font-family:'Trebuchet MS';writing-mode:lr-tb;fill:#000000;fill-opacity:1;fill-rule:nonzero;stroke:none"
         x="0"
         y="0">No</tspan></text>
    <path
       id="path82"
       d="m 476.547,581.699 h 14.102 v 14.5 h -14.102 z"
       style="fill:#ffffff;fill-opacity:1;fill-rule:nonzero;stroke:none"
       transform="scale(1.3333333)"
       clip-path="url(#clipPath83)" />
    <text
       id="text83"
       xml:space="preserve"
       transform="matrix(1.3333333,0,0,1.3333333,635.39583,790.93335)"><tspan
         id="tspan83"
         style="font-variant:normal;font-weight:normal;font-size:12px;font-family:'Trebuchet MS';writing-mode:lr-tb;fill:#000000;fill-opacity:1;fill-rule:nonzero;stroke:none"
         x="0"
         y="0">No</tspan></text>
    <path
       id="path84"
       d="m 358.695,494.551 h 17 v 14.5 h -17 z"
       style="fill:#ffffff;fill-opacity:1;fill-rule:nonzero;stroke:none"
       transform="scale(1.3333333)"
       clip-path="url(#clipPath85)" />
    <text
       id="text85"
       xml:space="preserve"
       transform="matrix(1.3333333,0,0,1.3333333,478.26249,674.73336)"><tspan
         id="tspan85"
         style="font-variant:normal;font-weight:normal;font-size:12px;font-family:'Trebuchet MS';writing-mode:lr-tb;fill:#000000;fill-opacity:1;fill-rule:nonzero;stroke:none"
         x="0"
         dx="0 -1.2599999"
         y="0">Yes</tspan></text>
    <path
       id="path86"
       d="m 325.477,668.852 h 83.438 v 14.5 h -83.438 z"
       style="fill:#ffffff;fill-opacity:1;fill-rule:nonzero;stroke:none"
       transform="scale(1.3333333)"
       clip-path="url(#clipPath87)" />
    <text
       id="text87"
       xml:space="preserve"
       transform="matrix(1.3333333,0,0,1.3333333,433.97083,907.13338)"><tspan
         id="tspan87"
         style="font-variant:normal;font-weight:normal;font-size:12px;font-family:'Trebuchet MS';writing-mode:lr-tb;fill:#000000;fill-opacity:1;fill-rule:nonzero;stroke:none"
         x="0"
         dx="0 -0.47999996"
         y="0">Resist Succeeds</tspan></text>
    <path
       id="path88"
       d="m 498.598,668.852 h 59 v 14.5 h -59 z"
       style="fill:#ffffff;fill-opacity:1;fill-rule:nonzero;stroke:none"
       transform="scale(1.3333333)"
       clip-path="url(#clipPath89)" />
    <text
       id="text89"
       xml:space="preserve"
       transform="matrix(1.3333333,0,0,1.3333333,664.79582,907.13338)"><tspan
         id="tspan89"
         style="font-variant:normal;font-weight:normal;font-size:12px;font-family:'Trebuchet MS';writing-mode:lr-tb;fill:#000000;fill-opacity:1;fill-rule:nonzero;stroke:none"
         x="0"
         dx="0 -0.47999996"
         y="0">Resist Fails</tspan></text>
    <path
       id="path90"
       d="M 216.945,48 H 352.843 V 78.449 H 216.945 Z"
       style="fill:#cde498;fill-opacity:1;fill-rule:nonzero;stroke:#13540c;stroke-width:0.75;stroke-linecap:butt;stroke-linejoin:miter;stroke-miterlimit:4;stroke-dasharray:none;stroke-opacity:1"
       transform="scale(1.3333333)" />
    <text
       id="text90"
       xml:space="preserve"
       transform="matrix(1.3333333,0,0,1.3333333,296.76251,86.833327)"><tspan
         id="tspan90"
         style="font-variant:normal;font-weight:normal;font-size:12px;font-family:'Trebuchet MS';writing-mode:lr-tb;fill:#000000;fill-opacity:1;fill-rule:nonzero;stroke:none"
         x="0"
         y="0">Feat Interaction Begins</tspan></text>
    <path
       id="path91"
       d="m 253.258,146.398 h 63.277 l 7.613,-15.222 -7.613,-15.227 h -63.277 l -7.61,15.227 z"
       style="fill:#cde498;fill-opacity:1;fill-rule:nonzero;stroke:#13540c;stroke-width:0.75;stroke-linecap:butt;stroke-linejoin:miter;stroke-miterlimit:4;stroke-dasharray:none;stroke-opacity:1"
       transform="scale(1.3333333)" />
    <text
       id="text91"
       xml:space="preserve"
       transform="matrix(1.3333333,0,0,1.3333333,345.17916,177.43332)"><tspan
         id="tspan91"
         style="font-variant:normal;font-weight:normal;font-size:12px;font-family:'Trebuchet MS';writing-mode:lr-tb;fill:#000000;fill-opacity:1;fill-rule:nonzero;stroke:none"
         x="0"
         y="0">Feat Save</tspan></text>
    <path
       id="path92"
       d="m 306.359,203.102 h 70.563 c 2.07,0 3.75,1.679 3.75,3.75 v 22.949 c 0,2.07 -1.68,3.75 -3.75,3.75 h -70.563 c -2.07,0 -3.75,-1.68 -3.75,-3.75 v -22.949 c 0,-2.071 1.68,-3.75 3.75,-3.75 z"
       style="fill:#cde498;fill-opacity:1;fill-rule:nonzero;stroke:#13540c;stroke-width:0.75;stroke-linecap:butt;stroke-linejoin:miter;stroke-miterlimit:4;stroke-dasharray:none;stroke-opacity:1"
       transform="scale(1.3333333)" />
    <text
       id="text92"
       xml:space="preserve"
       transform="matrix(1.3333333,0,0,1.3333333,410.97917,293.63332)"><tspan
         id="tspan92"
         style="font-variant:normal;font-weight:normal;font-size:12px;font-family:'Trebuchet MS';writing-mode:lr-tb;fill:#000000;fill-opacity:1;fill-rule:nonzero;stroke:none"
         x="0"
         y="0">Critical Fail?</tspan></text>
    <path
       id="path93"
       d="M 324.164,320.699 H 445.449 L 460.676,290.25 H 339.387 Z"
       style="fill:#cde498;fill-opacity:1;fill-rule:nonzero;stroke:#13540c;stroke-width:0.75;stroke-linecap:butt;stroke-linejoin:miter;stroke-miterlimit:4;stroke-dasharray:none;stroke-opacity:1"
       transform="scale(1.3333333)" />
    <text
       id="text93"
       xml:space="preserve"
       transform="matrix(1.3333333,0,0,1.3333333,453.25,409.83333)"><tspan
         id="tspan93"
         style="font-variant:normal;font-weight:normal;font-size:12px;font-family:'Trebuchet MS';writing-mode:lr-tb;fill:#000000;fill-opacity:1;fill-rule:nonzero;stroke:none"
         x="0"
         y="0">Effect Goes Critical</tspan></text>
    <path
       id="path94"
       d="m 312.746,358.199 h 57.789 c 2.07,0 3.75,1.68 3.75,3.75 v 22.949 c 0,2.071 -1.68,3.75 -3.75,3.75 h -57.789 c -2.07,0 -3.75,-1.679 -3.75,-3.75 v -22.949 c 0,-2.07 1.68,-3.75 3.75,-3.75 z"
       style="fill:#cde498;fill-opacity:1;fill-rule:nonzero;stroke:#13540c;stroke-width:0.75;stroke-linecap:butt;stroke-linejoin:miter;stroke-miterlimit:4;stroke-dasharray:none;stroke-opacity:1"
       transform="scale(1.3333333)" />
    <text
       id="text94"
       xml:space="preserve"
       transform="matrix(1.3333333,0,0,1.3333333,419.49585,500.43331)"><tspan
         id="tspan94"
         style="font-variant:normal;font-weight:normal;font-size:12px;font-family:'Trebuchet MS';writing-mode:lr-tb;fill:#000000;fill-opacity:1;fill-rule:nonzero;stroke:none"
         x="0"
         y="0">Immuned?</tspan></text>
    <path
       id="path95"
       d="M 118.445,650.102 H 280.922 V 619.648 H 118.445 v 30.454 h -6 174.477 V 619.648 H 112.445 v 30.454 z"
       style="fill:#cde498;fill-opacity:1;fill-rule:nonzero;stroke:#13540c;stroke-width:0.75;stroke-linecap:butt;stroke-linejoin:miter;stroke-miterlimit:4;stroke-dasharray:none;stroke-opacity:1"
       transform="scale(1.3333333)" />
    <text
       id="text95"
       xml:space="preserve"
       transform="matrix(1.3333333,0,0,1.3333333,165.42915,849.03337)"><tspan
         id="tspan95"
         style="font-variant:normal;font-weight:normal;font-size:12px;font-family:'Trebuchet MS';writing-mode:lr-tb;fill:#000000;fill-opacity:1;fill-rule:nonzero;stroke:none"
         x="0"
         y="0">Immunity Interaction Begins</tspan></text>
    <path
       id="path96"
       d="m 399.215,445.352 h 52.363 c 2.07,0 3.75,1.679 3.75,3.75 v 22.949 c 0,2.07 -1.68,3.75 -3.75,3.75 h -52.363 c -2.07,0 -3.75,-1.68 -3.75,-3.75 v -22.949 c 0,-2.071 1.68,-3.75 3.75,-3.75 z"
       style="fill:#cde498;fill-opacity:1;fill-rule:nonzero;stroke:#13540c;stroke-width:0.75;stroke-linecap:butt;stroke-linejoin:miter;stroke-miterlimit:4;stroke-dasharray:none;stroke-opacity:1"
       transform="scale(1.3333333)" />
    <text
       id="text96"
       xml:space="preserve"
       transform="matrix(1.3333333,0,0,1.3333333,534.78748,616.6333)"><tspan
         id="tspan96"
         style="font-variant:normal;font-weight:normal;font-size:12px;font-family:'Trebuchet MS';writing-mode:lr-tb;fill:#000000;fill-opacity:1;fill-rule:nonzero;stroke:none"
         x="0"
         dx="0 -0.47999996"
         y="0">Resisted?</tspan></text>
    <path
       id="path97"
       d="M 283.047,562.949 H 451.348 V 532.5 H 283.047 v 30.449 h -6 180.301 V 532.5 H 277.047 v 30.449 z"
       style="fill:#cde498;fill-opacity:1;fill-rule:nonzero;stroke:#13540c;stroke-width:0.75;stroke-linecap:butt;stroke-linejoin:miter;stroke-miterlimit:4;stroke-dasharray:none;stroke-opacity:1"
       transform="scale(1.3333333)" />
    <text
       id="text97"
       xml:space="preserve"
       transform="matrix(1.3333333,0,0,1.3333333,384.89583,732.83333)"><tspan
         id="tspan97"
         style="font-variant:normal;font-weight:normal;font-size:12px;font-family:'Trebuchet MS';writing-mode:lr-tb;fill:#000000;fill-opacity:1;fill-rule:nonzero;stroke:none"
         x="0"
         dx="0 -0.47999996"
         y="0">Resistance Interaction Begins</tspan></text>
    <path
       id="path98"
       d="m 332.035,650.102 h 70.324 l 7.614,-15.227 -7.614,-15.227 h -70.324 l -7.613,15.227 z"
       style="fill:#cde498;fill-opacity:1;fill-rule:nonzero;stroke:#13540c;stroke-width:0.75;stroke-linecap:butt;stroke-linejoin:miter;stroke-miterlimit:4;stroke-dasharray:none;stroke-opacity:1"
       transform="scale(1.3333333)" />
    <text
       id="text98"
       xml:space="preserve"
       transform="matrix(1.3333333,0,0,1.3333333,450.21248,849.03337)"><tspan
         id="tspan98"
         style="font-variant:normal;font-weight:normal;font-size:12px;font-family:'Trebuchet MS';writing-mode:lr-tb;fill:#000000;fill-opacity:1;fill-rule:nonzero;stroke:none"
         x="0"
         dx="0 -0.47999996"
         y="0">Resist Save</tspan></text>
    <path
       id="path99"
       d="m 169.359,706.801 h 60.649 c 8.406,0 15.226,6.82 15.226,15.222 0,8.407 -6.82,15.227 -15.226,15.227 h -60.649 c -8.402,0 -15.226,-6.82 -15.226,-15.227 0,-8.402 6.824,-15.222 15.226,-15.222 z"
       style="fill:#cde498;fill-opacity:1;fill-rule:nonzero;stroke:#13540c;stroke-width:0.75;stroke-linecap:butt;stroke-linejoin:miter;stroke-miterlimit:4;stroke-dasharray:none;stroke-opacity:1"
       transform="scale(1.3333333)" />
    <text
       id="text99"
       xml:space="preserve"
       transform="matrix(1.3333333,0,0,1.3333333,218.08748,965.23332)"><tspan
         id="tspan99"
         style="font-variant:normal;font-weight:normal;font-size:12px;font-family:'Trebuchet MS';writing-mode:lr-tb;fill:#000000;fill-opacity:1;fill-rule:nonzero;stroke:none"
         x="0"
         y="0">Effect Fizzles</tspan></text>
    <path
       id="path100"
       d="m 474.148,706.801 h 63.399 c 8.402,0 15.226,6.82 15.226,15.222 0,8.407 -6.824,15.227 -15.226,15.227 h -63.399 c -8.406,0 -15.226,-6.82 -15.226,-15.227 0,-8.402 6.82,-15.222 15.226,-15.222 z"
       style="fill:#cde498;fill-opacity:1;fill-rule:nonzero;stroke:#13540c;stroke-width:0.75;stroke-linecap:butt;stroke-linejoin:miter;stroke-miterlimit:4;stroke-dasharray:none;stroke-opacity:1"
       transform="scale(1.3333333)" />
    <text
       id="text100"
       xml:space="preserve"
       transform="matrix(1.3333333,0,0,1.3333333,624.47083,965.23332)"><tspan
         id="tspan100"
         style="font-variant:normal;font-weight:normal;font-size:12px;font-family:'Trebuchet MS';writing-mode:lr-tb;fill:#000000;fill-opacity:1;fill-rule:nonzero;stroke:none"
         x="0"
         y="0">Effect Applies</tspan></text>
  </g>
</svg>
