<svg xmlns="http://www.w3.org/2000/svg" width="679.459" height="920">
    <defs>
        <clipPath id="b" clipPathUnits="userSpaceOnUse">
            <path d="M113.773-287.382h9l-.001 9h-9z"/>
        </clipPath>
        <clipPath id="a" clipPathUnits="userSpaceOnUse">
            <path d="M373.333 144h13.334v13.333h-13.334z"/>
        </clipPath>
        <clipPath id="c" clipPathUnits="userSpaceOnUse">
            <path d="m154.082 699.695 8.402 3.227-3.226 8.402-8.403-3.226z"/>
        </clipPath>
        <clipPath id="e" clipPathUnits="userSpaceOnUse">
            <path d="M368.423 558.235h8.402v8.402h-8.403z"/>
        </clipPath>
        <clipPath id="d" clipPathUnits="userSpaceOnUse">
            <path d="M200 932h16v13.333h-16z"/>
        </clipPath>
        <clipPath id="f" clipPathUnits="userSpaceOnUse">
            <path d="M195-337.141v-9h9v9z"/>
        </clipPath>
        <clipPath id="h" clipPathUnits="userSpaceOnUse">
            <path d="M287.604-393.434h9v9h-9z"/>
        </clipPath>
        <clipPath id="g" clipPathUnits="userSpaceOnUse">
            <path d="M517.333 376h13.334v13.333h-13.334z"/>
        </clipPath>
        <clipPath id="i" clipPathUnits="userSpaceOnUse">
            <path d="m301.828 361.645 8.856 1.601-1.602 8.856-8.855-1.602z"/>
        </clipPath>
        <clipPath id="k" clipPathUnits="userSpaceOnUse">
            <path d="m355.642 297.263 8.855-.002.001 8.856h-8.854z"/>
        </clipPath>
        <clipPath id="j" clipPathUnits="userSpaceOnUse">
            <path d="M400 481.333h14.667V496H400Z"/>
        </clipPath>
        <clipPath id="l" clipPathUnits="userSpaceOnUse">
            <path d="m373.629 357.438-7.481 5.003-5.003-7.48 7.48-5.004z"/>
        </clipPath>
        <clipPath id="n" clipPathUnits="userSpaceOnUse">
            <path d="m-92.888-419.588 7.48.002-.002 7.479h-7.48z"/>
        </clipPath>
        <clipPath id="m" clipPathUnits="userSpaceOnUse">
            <path d="M482.667 465.333h16V480h-16z"/>
        </clipPath>
        <clipPath id="p" clipPathUnits="userSpaceOnUse">
            <path d="M614.431-196.432h9v9h-9z"/>
        </clipPath>
        <clipPath id="o" clipPathUnits="userSpaceOnUse">
            <path d="M260 814.667h13.333V828H260Z"/>
        </clipPath>
        <clipPath id="q" clipPathUnits="userSpaceOnUse">
            <path d="M698.699-195.184v-9h9v9z"/>
        </clipPath>
        <clipPath id="r" clipPathUnits="userSpaceOnUse">
            <path d="M437.25-420.898v-9h9v9z"/>
        </clipPath>
        <clipPath id="s" clipPathUnits="userSpaceOnUse">
            <path d="m498.398 697.539 4.094 8.016-8.015 4.093-4.094-8.015z"/>
        </clipPath>
        <clipPath id="u" clipPathUnits="userSpaceOnUse">
            <path d="M755.14-112.806h8.017v8.014l-8.016.002z"/>
        </clipPath>
        <clipPath id="t" clipPathUnits="userSpaceOnUse">
            <path d="M653.333 929.333h12v16h-12z"/>
        </clipPath>
        <clipPath id="v" clipPathUnits="userSpaceOnUse">
            <path d="m371.965 524.719.117 9-9 .117-.117-9z"/>
        </clipPath>
        <clipPath id="x" clipPathUnits="userSpaceOnUse">
            <path d="M529.485-365.052h9v9h-9z"/>
        </clipPath>
        <clipPath id="w" clipPathUnits="userSpaceOnUse">
            <path d="M482.667 698.667h14.666V712h-14.666z"/>
        </clipPath>
        <clipPath id="y" clipPathUnits="userSpaceOnUse">
            <path d="m371.965 611.867.117 9-9 .117-.117-9z"/>
        </clipPath>
        <clipPath id="A" clipPathUnits="userSpaceOnUse">
            <path d="M616.618-363.914h9v9h-9z"/>
        </clipPath>
        <clipPath id="z" clipPathUnits="userSpaceOnUse">
            <path d="M482.667 814.667h14.666V828h-14.666z"/>
        </clipPath>
        <clipPath id="B" clipPathUnits="userSpaceOnUse">
            <path d="m254.207 712.492-8.711 2.266-2.266-8.711 8.711-2.266z"/>
        </clipPath>
        <clipPath id="D" clipPathUnits="userSpaceOnUse">
            <path d="M-64.502-729.271h8.71v8.711h-8.71z"/>
        </clipPath>
        <clipPath id="C" clipPathUnits="userSpaceOnUse">
            <path d="M324 937.333h16V952h-16z"/>
        </clipPath>
        <clipPath id="E" clipPathUnits="userSpaceOnUse">
            <path d="m521.312 701.633-4.093 8.015-8.016-4.093 4.094-8.016z"/>
        </clipPath>
        <clipPath id="G" clipPathUnits="userSpaceOnUse">
            <path d="M345.392-697.674h8.015v8.017l-8.016-.001z"/>
        </clipPath>
        <clipPath id="F" clipPathUnits="userSpaceOnUse">
            <path d="M682.667 929.333H696v16h-13.333z"/>
        </clipPath>
        <clipPath id="H" clipPathUnits="userSpaceOnUse">
            <path d="M48.004 407.398h76.398V422H48.004Z"/>
        </clipPath>
        <clipPath id="I" clipPathUnits="userSpaceOnUse">
            <path d="M315.664 165.148h51.949V180h-51.949z"/>
        </clipPath>
        <clipPath id="J" clipPathUnits="userSpaceOnUse">
            <path d="M383.918 252.301h17.012V267h-17.012z"/>
        </clipPath>
        <clipPath id="K" clipPathUnits="userSpaceOnUse">
            <path d="M146.914 295.875h14.113V311h-14.113z"/>
        </clipPath>
        <clipPath id="L" clipPathUnits="userSpaceOnUse">
            <path d="M191.184 494.551h17.012V510h-17.012Z"/>
        </clipPath>
        <clipPath id="M" clipPathUnits="userSpaceOnUse">
            <path d="M418.348 407.398h14.113V422h-14.113z"/>
        </clipPath>
        <clipPath id="N" clipPathUnits="userSpaceOnUse">
            <path d="M476.547 581.699h14.113V597h-14.113z"/>
        </clipPath>
        <clipPath id="O" clipPathUnits="userSpaceOnUse">
            <path d="M358.695 494.551h17.012V510h-17.012z"/>
        </clipPath>
        <clipPath id="P" clipPathUnits="userSpaceOnUse">
            <path d="M325.477 668.852h83.438V684h-83.438z"/>
        </clipPath>
        <clipPath id="Q" clipPathUnits="userSpaceOnUse">
            <path d="M498.598 668.852h59.012V684h-59.012z"/>
        </clipPath>
    </defs>
    <path d="M284.898 78.449v3.125c0 3.125 0 9.375.063 15.688.062 6.312.187 12.687.25 15.875l.062 3.187"
          style="fill:none;stroke:#000;stroke-width:1.5;stroke-linecap:butt;stroke-linejoin:miter;stroke-miterlimit:4;stroke-dasharray:none;stroke-opacity:1"
          transform="translate(-64.005 -63.5)scale(1.33333)"/>
    <g clip-path="url(#a)" transform="translate(-64.005 -63.5)">
        <path d="m113.772-287.382 9.002 4.501-8.998 4.499z" clip-path="url(#b)"
              style="fill:#000;fill-opacity:1;fill-rule:nonzero;stroke:#000;stroke-width:.899827;stroke-linecap:butt;stroke-linejoin:miter;stroke-miterlimit:4;stroke-dasharray:none;stroke-opacity:1"
              transform="rotate(88.877)scale(1.33359)"/>
    </g>
    <path d="m249.898 139.309-27.281 5.906c-27.285 5.906-81.851 17.723-109.137 30.89-27.285 13.168-27.285 27.696-27.285 42.219v416.551c0 14.523 0 29.051 12.309 41.039 12.305 11.984 36.918 21.438 49.223 26.16l12.304 4.727"
          style="fill:none;stroke:#000;stroke-width:1.5;stroke-linecap:butt;stroke-linejoin:miter;stroke-miterlimit:4;stroke-dasharray:none;stroke-opacity:1"
          transform="translate(-64.005 -63.5)scale(1.33333)"/>
    <path d="m154.082 699.695 6.789 7.426-10.016.977z" clip-path="url(#c)"
          style="fill:#000;fill-opacity:1;fill-rule:nonzero;stroke:none"
          transform="translate(-64.005 -63.5)scale(1.33333)"/>
    <g clip-path="url(#d)" transform="translate(-64.005 -63.5)">
        <path d="m368.423 558.235 8.402 4.2-8.402 4.202z" clip-path="url(#e)"
              style="fill:none;stroke:#000;stroke-width:.840195;stroke-linecap:butt;stroke-linejoin:miter;stroke-miterlimit:4;stroke-dasharray:none;stroke-opacity:1"
              transform="rotate(21.005)scale(1.42824)"/>
    </g>
    <path d="m305.098 146.773 6.09 4.665c6.089 4.664 18.273 13.988 24.363 23.374 6.09 9.387 6.09 18.836 6.09 23.563v4.727"
          style="fill:none;stroke:#000;stroke-width:1.5;stroke-linecap:butt;stroke-linejoin:miter;stroke-miterlimit:4;stroke-dasharray:none;stroke-opacity:1"
          transform="translate(-64.005 -63.5)scale(1.33333)"/>
    <path d="m195-346.141 9 4.5-9 4.5z" clip-path="url(#f)"
          style="fill:#000;fill-opacity:1;fill-rule:nonzero;stroke:#000;stroke-width:.9;stroke-linecap:butt;stroke-linejoin:miter;stroke-miterlimit:4;stroke-dasharray:none;stroke-opacity:1"
          transform="rotate(90 -.252 -63.752)scale(1.33333)"/>
    <path d="m359.383 233.551 5.504 4.722c5.508 4.727 16.519 14.176 22.09 23.688 5.566 9.516 5.691 19.09 5.753 23.875l.063 4.789"
          style="fill:none;stroke:#000;stroke-width:1.5;stroke-linecap:butt;stroke-linejoin:miter;stroke-miterlimit:4;stroke-dasharray:none;stroke-opacity:1"
          transform="translate(-64.005 -63.5)scale(1.33333)"/>
    <g clip-path="url(#g)" transform="translate(-64.005 -63.5)">
        <path d="m287.604-393.434 8.996 4.5-8.997 4.5z" clip-path="url(#h)"
              style="fill:#000;fill-opacity:1;fill-rule:nonzero;stroke:#000;stroke-width:.899923;stroke-linecap:butt;stroke-linejoin:miter;stroke-miterlimit:4;stroke-dasharray:none;stroke-opacity:1"
              transform="rotate(89.252)scale(1.33345)"/>
    </g>
    <path d="m302.609 227.387-24.773 5.754c-24.774 5.75-74.324 17.254-99.098 30.269-24.773 13.016-24.773 27.539-24.773 40.465s0 24.25 25.84 34.59S257.32 358.16 283.16 362.84l25.836 4.676"
          style="fill:none;stroke:#000;stroke-width:1.5;stroke-linecap:butt;stroke-linejoin:miter;stroke-miterlimit:4;stroke-dasharray:none;stroke-opacity:1"
          transform="translate(-64.005 -63.5)scale(1.33333)"/>
    <path d="m301.828 361.645 8.055 6.031-9.656 2.824z" clip-path="url(#i)"
          style="fill:#000;fill-opacity:1;fill-rule:nonzero;stroke:none"
          transform="translate(-64.005 -63.5)scale(1.33333)"/>
    <g clip-path="url(#j)" transform="translate(-64.005 -63.5)">
        <path d="m355.642 297.262 8.856 4.428-8.855 4.428z" clip-path="url(#k)"
              style="fill:none;stroke:#000;stroke-width:.885605;stroke-linecap:butt;stroke-linejoin:miter;stroke-miterlimit:4;stroke-dasharray:none;stroke-opacity:1"
              transform="rotate(10.261)scale(1.355)"/>
    </g>
    <path d="m392.793 321.074-.063 3.063c-.062 3.062-.187 9.187-4.918 15.375-4.734 6.187-14.074 12.437-18.746 15.562l-4.671 3.125"
          style="fill:none;stroke:#000;stroke-width:1.5;stroke-linecap:butt;stroke-linejoin:miter;stroke-miterlimit:4;stroke-dasharray:none;stroke-opacity:1"
          transform="translate(-64.005 -63.5)scale(1.33333)"/>
    <path d="m373.629 357.438-9.981 1.261 4.977-8.742z" clip-path="url(#l)"
          style="fill:#000;fill-opacity:1;fill-rule:nonzero;stroke:none"
          transform="translate(-64.005 -63.5)scale(1.33333)"/>
    <g clip-path="url(#m)" transform="translate(-64.005 -63.5)">
        <path d="m-92.889-419.588 7.478 3.741-7.478 3.739z" clip-path="url(#n)"
              style="fill:none;stroke:#000;stroke-width:.748009;stroke-linecap:butt;stroke-linejoin:miter;stroke-miterlimit:4;stroke-dasharray:none;stroke-opacity:1"
              transform="rotate(146.214)scale(1.60426)"/>
    </g>
    <path d="m308.996 383.445-18.219 5.594c-18.218 5.59-54.656 16.777-72.875 29.633-18.218 12.851-18.218 27.379-18.218 41.902v87.153c0 14.523 0 29.046.062 41.097.063 12.051.188 21.625.25 26.414l.063 4.785"
          style="fill:none;stroke:#000;stroke-width:1.5;stroke-linecap:butt;stroke-linejoin:miter;stroke-miterlimit:4;stroke-dasharray:none;stroke-opacity:1"
          transform="translate(-64.005 -63.5)scale(1.33333)"/>
    <g clip-path="url(#o)" transform="translate(-64.005 -63.5)">
        <path d="m614.431-196.432 9 4.5-9 4.5z" clip-path="url(#p)"
              style="fill:#000;fill-opacity:1;fill-rule:nonzero;stroke:#000;stroke-width:.899923;stroke-linecap:butt;stroke-linejoin:miter;stroke-miterlimit:4;stroke-dasharray:none;stroke-opacity:1"
              transform="rotate(89.252)scale(1.33345)"/>
    </g>
    <path d="m200.059 650.477-.063 4.66c-.062 4.664-.187 13.988-.25 23.375-.062 9.386-.062 18.84-.062 23.562v4.727"
          style="fill:none;stroke:#000;stroke-width:1.5;stroke-linecap:butt;stroke-linejoin:miter;stroke-miterlimit:4;stroke-dasharray:none;stroke-opacity:1"
          transform="translate(-64.005 -63.5)scale(1.33333)"/>
    <path d="m698.699-204.184 9 4.5-9 4.5z" clip-path="url(#q)"
          style="fill:#000;fill-opacity:1;fill-rule:nonzero;stroke:#000;stroke-width:.9;stroke-linecap:butt;stroke-linejoin:miter;stroke-miterlimit:4;stroke-dasharray:none;stroke-opacity:1"
          transform="rotate(90 -.252 -63.752)scale(1.33333)"/>
    <path d="m370.906 388.648 9.082 4.727c9.082 4.727 27.246 14.176 36.328 23.625s9.082 18.898 9.082 23.625v4.727"
          style="fill:none;stroke:#000;stroke-width:1.5;stroke-linecap:butt;stroke-linejoin:miter;stroke-miterlimit:4;stroke-dasharray:none;stroke-opacity:1"
          transform="translate(-64.005 -63.5)scale(1.33333)"/>
    <path d="m437.25-429.898 9 4.5-9 4.5z" clip-path="url(#r)"
          style="fill:#000;fill-opacity:1;fill-rule:nonzero;stroke:#000;stroke-width:.9;stroke-linecap:butt;stroke-linejoin:miter;stroke-miterlimit:4;stroke-dasharray:none;stroke-opacity:1"
          transform="rotate(90 -.252 -63.752)scale(1.33333)"/>
    <path d="m445.73 475.801 6.313 4.722c6.309 4.727 18.934 14.176 25.242 26.165 6.313 11.988 6.313 26.511 6.313 41.039v87.148c0 14.523 0 29.051 2.41 41.039 2.414 11.984 7.238 21.438 9.652 26.16l2.414 4.727"
          style="fill:none;stroke:#000;stroke-width:1.5;stroke-linecap:butt;stroke-linejoin:miter;stroke-miterlimit:4;stroke-dasharray:none;stroke-opacity:1"
          transform="translate(-64.005 -63.5)scale(1.33333)"/>
    <path d="m498.398 697.539.082 10.063-8.097-5.969z" clip-path="url(#s)"
          style="fill:#000;fill-opacity:1;fill-rule:nonzero;stroke:none"
          transform="translate(-64.005 -63.5)scale(1.33333)"/>
    <g clip-path="url(#t)" transform="translate(-64.005 -63.5)">
        <path d="m755.141-112.806 8.014 4.01-8.014 4.006z" clip-path="url(#u)"
              style="fill:none;stroke:#000;stroke-width:.80155;stroke-linecap:butt;stroke-linejoin:miter;stroke-miterlimit:4;stroke-dasharray:none;stroke-opacity:1"
              transform="rotate(62.95)scale(1.4971)"/>
    </g>
    <path d="m405.062 475.801-6.312 4.722c-6.309 4.727-18.93 14.176-25.18 23.688-6.25 9.516-6.125 19.09-6.062 23.875l.062 4.789"
          style="fill:none;stroke:#000;stroke-width:1.5;stroke-linecap:butt;stroke-linejoin:miter;stroke-miterlimit:4;stroke-dasharray:none;stroke-opacity:1"
          transform="translate(-64.005 -63.5)scale(1.33333)"/>
    <path d="m371.965 524.719-4.383 9.054-4.617-8.937z" clip-path="url(#v)"
          style="fill:#000;fill-opacity:1;fill-rule:nonzero;stroke:none"
          transform="translate(-64.005 -63.5)scale(1.33333)"/>
    <g clip-path="url(#w)" transform="translate(-64.005 -63.5)">
        <path d="m529.485-365.052 8.996 4.501-8.996 4.499z" clip-path="url(#x)"
              style="fill:none;stroke:#000;stroke-width:.899923;stroke-linecap:butt;stroke-linejoin:miter;stroke-miterlimit:4;stroke-dasharray:none;stroke-opacity:1"
              transform="rotate(89.252)scale(1.33345)"/>
    </g>
    <path d="m367.57 563.324-.062 4.664c-.063 4.66-.188 13.989-.188 23.438s.125 19.023.188 23.812l.062 4.785"
          style="fill:none;stroke:#000;stroke-width:1.5;stroke-linecap:butt;stroke-linejoin:miter;stroke-miterlimit:4;stroke-dasharray:none;stroke-opacity:1"
          transform="translate(-64.005 -63.5)scale(1.33333)"/>
    <path d="m371.965 611.867-4.383 9.059-4.617-8.942z" clip-path="url(#y)"
          style="fill:#000;fill-opacity:1;fill-rule:nonzero;stroke:none"
          transform="translate(-64.005 -63.5)scale(1.33333)"/>
    <g clip-path="url(#z)" transform="translate(-64.005 -63.5)">
        <path d="m616.619-363.914 8.999 4.5-9 4.5z" clip-path="url(#A)"
              style="fill:none;stroke:#000;stroke-width:.899923;stroke-linecap:butt;stroke-linejoin:miter;stroke-miterlimit:4;stroke-dasharray:none;stroke-opacity:1"
              transform="rotate(89.252)scale(1.33345)"/>
    </g>
    <path d="m367.57 650.477-.062 4.66c-.063 4.664-.188 13.988-20.574 23.937-20.391 9.949-61.047 20.528-81.372 25.813l-20.328 5.289"
          style="fill:none;stroke:#000;stroke-width:1.5;stroke-linecap:butt;stroke-linejoin:miter;stroke-miterlimit:4;stroke-dasharray:none;stroke-opacity:1"
          transform="translate(-64.005 -63.5)scale(1.33333)"/>
    <path d="m254.207 712.492-9.844-2.09 7.578-6.621z" clip-path="url(#B)"
          style="fill:#000;fill-opacity:1;fill-rule:nonzero;stroke:none"
          transform="translate(-64.005 -63.5)scale(1.33333)"/>
    <g clip-path="url(#C)" transform="translate(-64.005 -63.5)">
        <path d="m-64.502-729.271 8.711 4.356-8.711 4.355z" clip-path="url(#D)"
              style="fill:none;stroke:#000;stroke-width:.871013;stroke-linecap:butt;stroke-linejoin:miter;stroke-miterlimit:4;stroke-dasharray:none;stroke-opacity:1"
              transform="rotate(165.419)scale(1.3777)"/>
    </g>
    <path d="m405.246 645.453 20.473 5.5c20.476 5.5 61.426 16.496 79.492 26.723 18.062 10.222 13.234 19.676 10.824 24.398l-2.414 4.727"
          style="fill:none;stroke:#000;stroke-width:1.5;stroke-linecap:butt;stroke-linejoin:miter;stroke-miterlimit:4;stroke-dasharray:none;stroke-opacity:1"
          transform="translate(-64.005 -63.5)scale(1.33333)"/>
    <path d="m521.312 701.633-8.101 5.969.086-10.063z" clip-path="url(#E)"
          style="fill:#000;fill-opacity:1;fill-rule:nonzero;stroke:none"
          transform="translate(-64.005 -63.5)scale(1.33333)"/>
    <g clip-path="url(#F)" transform="translate(-64.005 -63.5)">
        <path d="m345.391-697.674 8.016 4.009-8.016 4.007z" clip-path="url(#G)"
              style="fill:none;stroke:#000;stroke-width:.801553;stroke-linecap:butt;stroke-linejoin:miter;stroke-miterlimit:4;stroke-dasharray:none;stroke-opacity:1"
              transform="rotate(117.049)scale(1.4971)"/>
    </g>
    <path d="M48.004 407.398h76.387v14.5H48.004Z" clip-path="url(#H)"
          style="fill:#fff;fill-opacity:1;fill-rule:nonzero;stroke:none"
          transform="translate(-64.005 -63.5)scale(1.33333)"/>
    <text xml:space="preserve" transform="translate(-.001 495.033)scale(1.33333)"><tspan x="0" y="0" style="font-variant:normal;font-weight:400;font-size:12px;font-family:&quot;Trebuchet MS&quot;;writing-mode:lr-tb;fill:#000;fill-opacity:1;fill-rule:nonzero;stroke:none">Feat Succeeds</tspan></text>
    <path d="M315.664 165.148h51.949v14.5h-51.949z" clip-path="url(#I)"
          style="fill:#fff;fill-opacity:1;fill-rule:nonzero;stroke:none"
          transform="translate(-64.005 -63.5)scale(1.33333)"/>
    <text xml:space="preserve" transform="translate(356.882 172.033)scale(1.33333)"><tspan x="0" y="0" style="font-variant:normal;font-weight:400;font-size:12px;font-family:&quot;Trebuchet MS&quot;;writing-mode:lr-tb;fill:#000;fill-opacity:1;fill-rule:nonzero;stroke:none">Feat Fails</tspan></text>
    <path d="M383.918 252.301h17v14.5h-17z" clip-path="url(#J)"
          style="fill:#fff;fill-opacity:1;fill-rule:nonzero;stroke:none"
          transform="translate(-64.005 -63.5)scale(1.33333)"/>
    <text xml:space="preserve" transform="translate(447.886 288.233)scale(1.33333)"><tspan x="0" y="0" dx="0 -1.2599999" style="font-variant:normal;font-weight:400;font-size:12px;font-family:&quot;Trebuchet MS&quot;;writing-mode:lr-tb;fill:#000;fill-opacity:1;fill-rule:nonzero;stroke:none">Yes</tspan></text>
    <path d="M146.914 295.875h14.102v14.5h-14.102z" clip-path="url(#K)"
          style="fill:#fff;fill-opacity:1;fill-rule:nonzero;stroke:none"
          transform="translate(-64.005 -63.5)scale(1.33333)"/>
    <text xml:space="preserve" transform="translate(131.882 346.333)scale(1.33333)"><tspan x="0" y="0" style="font-variant:normal;font-weight:400;font-size:12px;font-family:&quot;Trebuchet MS&quot;;writing-mode:lr-tb;fill:#000;fill-opacity:1;fill-rule:nonzero;stroke:none">No</tspan></text>
    <path d="M191.184 494.551h17v14.5h-17z" clip-path="url(#L)"
          style="fill:#fff;fill-opacity:1;fill-rule:nonzero;stroke:none"
          transform="translate(-64.005 -63.5)scale(1.33333)"/>
    <text xml:space="preserve" transform="translate(190.907 611.233)scale(1.33333)"><tspan x="0" y="0" dx="0 -1.2599999" style="font-variant:normal;font-weight:400;font-size:12px;font-family:&quot;Trebuchet MS&quot;;writing-mode:lr-tb;fill:#000;fill-opacity:1;fill-rule:nonzero;stroke:none">Yes</tspan></text>
    <path d="M418.348 407.398h14.102v14.5h-14.102z" clip-path="url(#M)"
          style="fill:#fff;fill-opacity:1;fill-rule:nonzero;stroke:none"
          transform="translate(-64.005 -63.5)scale(1.33333)"/>
    <text xml:space="preserve" transform="translate(493.79 495.033)scale(1.33333)"><tspan x="0" y="0" style="font-variant:normal;font-weight:400;font-size:12px;font-family:&quot;Trebuchet MS&quot;;writing-mode:lr-tb;fill:#000;fill-opacity:1;fill-rule:nonzero;stroke:none">No</tspan></text>
    <path d="M476.547 581.699h14.102v14.5h-14.102z" clip-path="url(#N)"
          style="fill:#fff;fill-opacity:1;fill-rule:nonzero;stroke:none"
          transform="translate(-64.005 -63.5)scale(1.33333)"/>
    <text xml:space="preserve" transform="translate(571.39 727.433)scale(1.33333)"><tspan x="0" y="0" style="font-variant:normal;font-weight:400;font-size:12px;font-family:&quot;Trebuchet MS&quot;;writing-mode:lr-tb;fill:#000;fill-opacity:1;fill-rule:nonzero;stroke:none">No</tspan></text>
    <path d="M358.695 494.551h17v14.5h-17z" clip-path="url(#O)"
          style="fill:#fff;fill-opacity:1;fill-rule:nonzero;stroke:none"
          transform="translate(-64.005 -63.5)scale(1.33333)"/>
    <text xml:space="preserve" transform="translate(414.257 611.233)scale(1.33333)"><tspan x="0" y="0" dx="0 -1.2599999" style="font-variant:normal;font-weight:400;font-size:12px;font-family:&quot;Trebuchet MS&quot;;writing-mode:lr-tb;fill:#000;fill-opacity:1;fill-rule:nonzero;stroke:none">Yes</tspan></text>
    <path d="M325.477 668.852h83.438v14.5h-83.438z" clip-path="url(#P)"
          style="fill:#fff;fill-opacity:1;fill-rule:nonzero;stroke:none"
          transform="translate(-64.005 -63.5)scale(1.33333)"/>
    <text xml:space="preserve" transform="translate(369.965 843.633)scale(1.33333)"><tspan x="0" y="0" dx="0 -0.47999996" style="font-variant:normal;font-weight:400;font-size:12px;font-family:&quot;Trebuchet MS&quot;;writing-mode:lr-tb;fill:#000;fill-opacity:1;fill-rule:nonzero;stroke:none">Resist Succeeds</tspan></text>
    <path d="M498.598 668.852h59v14.5h-59z" clip-path="url(#Q)"
          style="fill:#fff;fill-opacity:1;fill-rule:nonzero;stroke:none"
          transform="translate(-64.005 -63.5)scale(1.33333)"/>
    <text xml:space="preserve" transform="translate(600.79 843.633)scale(1.33333)"><tspan x="0" y="0" dx="0 -0.47999996" style="font-variant:normal;font-weight:400;font-size:12px;font-family:&quot;Trebuchet MS&quot;;writing-mode:lr-tb;fill:#000;fill-opacity:1;fill-rule:nonzero;stroke:none">Resist Fails</tspan></text>
    <path d="M216.945 48h135.898v30.449H216.945Z"
          style="fill:#cde498;fill-opacity:1;fill-rule:nonzero;stroke:#13540c;stroke-width:.75;stroke-linecap:butt;stroke-linejoin:miter;stroke-miterlimit:4;stroke-dasharray:none;stroke-opacity:1"
          transform="translate(-64.005 -63.5)scale(1.33333)"/>
    <text xml:space="preserve" transform="translate(232.757 23.333)scale(1.33333)"><tspan x="0" y="0" style="font-variant:normal;font-weight:400;font-size:12px;font-family:&quot;Trebuchet MS&quot;;writing-mode:lr-tb;fill:#000;fill-opacity:1;fill-rule:nonzero;stroke:none">Feat Interaction Begins</tspan></text>
    <path d="M253.258 146.398h63.277l7.613-15.222-7.613-15.227h-63.277l-7.61 15.227z"
          style="fill:#cde498;fill-opacity:1;fill-rule:nonzero;stroke:#13540c;stroke-width:.75;stroke-linecap:butt;stroke-linejoin:miter;stroke-miterlimit:4;stroke-dasharray:none;stroke-opacity:1"
          transform="translate(-64.005 -63.5)scale(1.33333)"/>
    <text xml:space="preserve" transform="translate(281.174 113.933)scale(1.33333)"><tspan x="0" y="0" style="font-variant:normal;font-weight:400;font-size:12px;font-family:&quot;Trebuchet MS&quot;;writing-mode:lr-tb;fill:#000;fill-opacity:1;fill-rule:nonzero;stroke:none">Feat Save</tspan></text>
    <path d="M306.359 203.102h70.563a3.75 3.75 0 0 1 3.75 3.75v22.949c0 2.07-1.68 3.75-3.75 3.75h-70.563c-2.07 0-3.75-1.68-3.75-3.75v-22.949a3.75 3.75 0 0 1 3.75-3.75z"
          style="fill:#cde498;fill-opacity:1;fill-rule:nonzero;stroke:#13540c;stroke-width:.75;stroke-linecap:butt;stroke-linejoin:miter;stroke-miterlimit:4;stroke-dasharray:none;stroke-opacity:1"
          transform="translate(-64.005 -63.5)scale(1.33333)"/>
    <text xml:space="preserve" transform="translate(346.974 230.133)scale(1.33333)"><tspan x="0" y="0" style="font-variant:normal;font-weight:400;font-size:12px;font-family:&quot;Trebuchet MS&quot;;writing-mode:lr-tb;fill:#000;fill-opacity:1;fill-rule:nonzero;stroke:none">Critical Fail?</tspan></text>
    <path d="M324.164 320.699h121.285l15.227-30.449H339.387Z"
          style="fill:#cde498;fill-opacity:1;fill-rule:nonzero;stroke:#13540c;stroke-width:.75;stroke-linecap:butt;stroke-linejoin:miter;stroke-miterlimit:4;stroke-dasharray:none;stroke-opacity:1"
          transform="translate(-64.005 -63.5)scale(1.33333)"/>
    <text xml:space="preserve" transform="translate(389.245 346.333)scale(1.33333)"><tspan x="0" y="0" style="font-variant:normal;font-weight:400;font-size:12px;font-family:&quot;Trebuchet MS&quot;;writing-mode:lr-tb;fill:#000;fill-opacity:1;fill-rule:nonzero;stroke:none">Effect Goes Critical</tspan></text>
    <path d="M312.746 358.199h57.789c2.07 0 3.75 1.68 3.75 3.75v22.949a3.75 3.75 0 0 1-3.75 3.75h-57.789a3.75 3.75 0 0 1-3.75-3.75v-22.949c0-2.07 1.68-3.75 3.75-3.75z"
          style="fill:#cde498;fill-opacity:1;fill-rule:nonzero;stroke:#13540c;stroke-width:.75;stroke-linecap:butt;stroke-linejoin:miter;stroke-miterlimit:4;stroke-dasharray:none;stroke-opacity:1"
          transform="translate(-64.005 -63.5)scale(1.33333)"/>
    <text xml:space="preserve" transform="translate(355.49 436.933)scale(1.33333)"><tspan x="0" y="0" style="font-variant:normal;font-weight:400;font-size:12px;font-family:&quot;Trebuchet MS&quot;;writing-mode:lr-tb;fill:#000;fill-opacity:1;fill-rule:nonzero;stroke:none">Immuned?</tspan></text>
    <path d="M118.445 650.102h162.477v-30.454H118.445v30.454h-6 174.477v-30.454H112.445v30.454z"
          style="fill:#cde498;fill-opacity:1;fill-rule:nonzero;stroke:#13540c;stroke-width:.75;stroke-linecap:butt;stroke-linejoin:miter;stroke-miterlimit:4;stroke-dasharray:none;stroke-opacity:1"
          transform="translate(-64.005 -63.5)scale(1.33333)"/>
    <text xml:space="preserve" transform="translate(101.424 785.533)scale(1.33333)"><tspan x="0" y="0" style="font-variant:normal;font-weight:400;font-size:12px;font-family:&quot;Trebuchet MS&quot;;writing-mode:lr-tb;fill:#000;fill-opacity:1;fill-rule:nonzero;stroke:none">Immunity Interaction Begins</tspan></text>
    <path d="M399.215 445.352h52.363a3.75 3.75 0 0 1 3.75 3.75v22.949c0 2.07-1.68 3.75-3.75 3.75h-52.363c-2.07 0-3.75-1.68-3.75-3.75v-22.949a3.75 3.75 0 0 1 3.75-3.75z"
          style="fill:#cde498;fill-opacity:1;fill-rule:nonzero;stroke:#13540c;stroke-width:.75;stroke-linecap:butt;stroke-linejoin:miter;stroke-miterlimit:4;stroke-dasharray:none;stroke-opacity:1"
          transform="translate(-64.005 -63.5)scale(1.33333)"/>
    <text xml:space="preserve" transform="translate(470.782 553.133)scale(1.33333)"><tspan x="0" y="0" dx="0 -0.47999996" style="font-variant:normal;font-weight:400;font-size:12px;font-family:&quot;Trebuchet MS&quot;;writing-mode:lr-tb;fill:#000;fill-opacity:1;fill-rule:nonzero;stroke:none">Resisted?</tspan></text>
    <path d="M283.047 562.949h168.301V532.5H283.047v30.449h-6 180.301V532.5H277.047v30.449z"
          style="fill:#cde498;fill-opacity:1;fill-rule:nonzero;stroke:#13540c;stroke-width:.75;stroke-linecap:butt;stroke-linejoin:miter;stroke-miterlimit:4;stroke-dasharray:none;stroke-opacity:1"
          transform="translate(-64.005 -63.5)scale(1.33333)"/>
    <text xml:space="preserve" transform="translate(320.89 669.333)scale(1.33333)"><tspan x="0" y="0" dx="0 -0.47999996" style="font-variant:normal;font-weight:400;font-size:12px;font-family:&quot;Trebuchet MS&quot;;writing-mode:lr-tb;fill:#000;fill-opacity:1;fill-rule:nonzero;stroke:none">Resistance Interaction Begins</tspan></text>
    <path d="M332.035 650.102h70.324l7.614-15.227-7.614-15.227h-70.324l-7.613 15.227z"
          style="fill:#cde498;fill-opacity:1;fill-rule:nonzero;stroke:#13540c;stroke-width:.75;stroke-linecap:butt;stroke-linejoin:miter;stroke-miterlimit:4;stroke-dasharray:none;stroke-opacity:1"
          transform="translate(-64.005 -63.5)scale(1.33333)"/>
    <text xml:space="preserve" transform="translate(386.207 785.533)scale(1.33333)"><tspan x="0" y="0" dx="0 -0.47999996" style="font-variant:normal;font-weight:400;font-size:12px;font-family:&quot;Trebuchet MS&quot;;writing-mode:lr-tb;fill:#000;fill-opacity:1;fill-rule:nonzero;stroke:none">Resist Save</tspan></text>
    <path d="M169.359 706.801h60.649c8.406 0 15.226 6.82 15.226 15.222 0 8.407-6.82 15.227-15.226 15.227h-60.649c-8.402 0-15.226-6.82-15.226-15.227 0-8.402 6.824-15.222 15.226-15.222z"
          style="fill:#cde498;fill-opacity:1;fill-rule:nonzero;stroke:#13540c;stroke-width:.75;stroke-linecap:butt;stroke-linejoin:miter;stroke-miterlimit:4;stroke-dasharray:none;stroke-opacity:1"
          transform="translate(-64.005 -63.5)scale(1.33333)"/>
    <text xml:space="preserve" transform="translate(154.082 901.733)scale(1.33333)"><tspan x="0" y="0" style="font-variant:normal;font-weight:400;font-size:12px;font-family:&quot;Trebuchet MS&quot;;writing-mode:lr-tb;fill:#000;fill-opacity:1;fill-rule:nonzero;stroke:none">Effect Fizzles</tspan></text>
    <path d="M474.148 706.801h63.399c8.402 0 15.226 6.82 15.226 15.222 0 8.407-6.824 15.227-15.226 15.227h-63.399c-8.406 0-15.226-6.82-15.226-15.227 0-8.402 6.82-15.222 15.226-15.222z"
          style="fill:#cde498;fill-opacity:1;fill-rule:nonzero;stroke:#13540c;stroke-width:.75;stroke-linecap:butt;stroke-linejoin:miter;stroke-miterlimit:4;stroke-dasharray:none;stroke-opacity:1"
          transform="translate(-64.005 -63.5)scale(1.33333)"/>
    <text xml:space="preserve" transform="translate(560.465 901.733)scale(1.33333)"><tspan x="0" y="0" style="font-variant:normal;font-weight:400;font-size:12px;font-family:&quot;Trebuchet MS&quot;;writing-mode:lr-tb;fill:#000;fill-opacity:1;fill-rule:nonzero;stroke:none">Effect Applies</tspan></text>
</svg>