<svg xmlns="http://www.w3.org/2000/svg" width="594.031" height="597">
    <defs>
        <clipPath id="a" clipPathUnits="userSpaceOnUse">
            <path d="M107.852-272.695v-9h9v9z"/>
        </clipPath>
        <clipPath id="c" clipPathUnits="userSpaceOnUse">
            <path d="m371.382-135.16 9 .001-.001 9h-9z"/>
        </clipPath>
        <clipPath id="b" clipPathUnits="userSpaceOnUse">
            <path d="M174.667 492H188v13.333h-13.333z"/>
        </clipPath>
        <clipPath id="d" clipPathUnits="userSpaceOnUse">
            <path d="m184.621 456.82 7.984 4.153-4.152 7.984-7.984-4.152z"/>
        </clipPath>
        <clipPath id="f" clipPathUnits="userSpaceOnUse">
            <path d="M332.333 283.92h7.984l.001 7.983-7.983.001z"/>
        </clipPath>
        <clipPath id="e" clipPathUnits="userSpaceOnUse">
            <path d="M240 608h16v13.333h-16z"/>
        </clipPath>
        <clipPath id="g" clipPathUnits="userSpaceOnUse">
            <path d="M195-356.449v-9h9v9z"/>
        </clipPath>
        <clipPath id="h" clipPathUnits="userSpaceOnUse">
            <path d="m433.949 455.289 4.094 8.016-8.016 4.093-4.093-8.015z"/>
        </clipPath>
        <clipPath id="j" clipPathUnits="userSpaceOnUse">
            <path d="M536.888-159.807h8.017v8.015h-8.015z"/>
        </clipPath>
        <clipPath id="i" clipPathUnits="userSpaceOnUse">
            <path d="M566.667 606.667H580v16h-13.333z"/>
        </clipPath>
        <clipPath id="l" clipPathUnits="userSpaceOnUse">
            <path d="M286.434-303.782h9v9h-9z"/>
        </clipPath>
        <clipPath id="k" clipPathUnits="userSpaceOnUse">
            <path d="M397.333 376h13.334v13.333h-13.334z"/>
        </clipPath>
        <clipPath id="n" clipPathUnits="userSpaceOnUse">
            <path d="M373.567-302.644h9v9h-9z"/>
        </clipPath>
        <clipPath id="m" clipPathUnits="userSpaceOnUse">
            <path d="M397.333 492h13.334v13.333h-13.334z"/>
        </clipPath>
        <clipPath id="o" clipPathUnits="userSpaceOnUse">
            <path d="m257.52 464.805-7.985 4.152-4.152-7.984 7.984-4.153z"/>
        </clipPath>
        <clipPath id="q" clipPathUnits="userSpaceOnUse">
            <path d="m-12.356-471.233 7.984.002-.001 7.983h-7.984z"/>
        </clipPath>
        <clipPath id="p" clipPathUnits="userSpaceOnUse">
            <path d="M328 608h16v13.333h-16z"/>
        </clipPath>
        <clipPath id="r" clipPathUnits="userSpaceOnUse">
            <path d="m456.867 459.383-4.094 8.015-8.015-4.093 4.094-8.016z"/>
        </clipPath>
        <clipPath id="t" clipPathUnits="userSpaceOnUse">
            <path d="M179.342-548.441h8.015v8.016h-8.016z"/>
        </clipPath>
        <clipPath id="s" clipPathUnits="userSpaceOnUse">
            <path d="M597.333 606.667h12v16h-12z"/>
        </clipPath>
        <clipPath id="u" clipPathUnits="userSpaceOnUse">
            <path d="M126.738 252.301h17.012V267h-17.012z"/>
        </clipPath>
        <clipPath id="v" clipPathUnits="userSpaceOnUse">
            <path d="M353.898 165.148H368V180h-14.102z"/>
        </clipPath>
        <clipPath id="w" clipPathUnits="userSpaceOnUse">
            <path d="M412.102 339.449h14.113V354h-14.113z"/>
        </clipPath>
        <clipPath id="x" clipPathUnits="userSpaceOnUse">
            <path d="M294.25 252.301h17.012V267H294.25z"/>
        </clipPath>
        <clipPath id="y" clipPathUnits="userSpaceOnUse">
            <path d="M261.031 426.602h83.438V442h-83.438z"/>
        </clipPath>
        <clipPath id="z" clipPathUnits="userSpaceOnUse">
            <path d="M434.148 426.602h59.012V442h-59.012z"/>
        </clipPath>
    </defs>
    <path d="M277.195 78.449v37.5"
          style="fill:none;stroke:#000;stroke-width:1.5;stroke-linecap:butt;stroke-linejoin:miter;stroke-miterlimit:4;stroke-dasharray:none;stroke-opacity:1"
          transform="translate(-63.5 -63.5)scale(1.33333)"/>
    <path d="m107.852-281.695 9 4.5-9 4.5z" clip-path="url(#a)"
          style="fill:#000;fill-opacity:1;fill-rule:nonzero;stroke:#000;stroke-width:.9;stroke-linecap:butt;stroke-linejoin:miter;stroke-miterlimit:4;stroke-dasharray:none;stroke-opacity:1"
          transform="rotate(90 0 -63.5)scale(1.33333)"/>
    <path d="m244.551 141.195-18.219 5.594c-18.219 5.59-54.656 16.777-72.875 29.633-18.219 12.851-18.219 27.379-18.219 41.902v87.153c0 14.523 0 29.046.063 41.097.062 12.051.187 21.625.25 26.414l.062 4.785"
          style="fill:none;stroke:#000;stroke-width:1.5;stroke-linecap:butt;stroke-linejoin:miter;stroke-miterlimit:4;stroke-dasharray:none;stroke-opacity:1"
          transform="translate(-63.5 -63.5)scale(1.33333)"/>
    <g clip-path="url(#b)" transform="translate(-63.5 -63.5)">
        <path d="m371.382-135.159 9 4.5-9.001 4.5z" clip-path="url(#c)"
              style="fill:#000;fill-opacity:1;fill-rule:nonzero;stroke:#000;stroke-width:.899923;stroke-linecap:butt;stroke-linejoin:miter;stroke-miterlimit:4;stroke-dasharray:none;stroke-opacity:1"
              transform="rotate(89.252)scale(1.33345)"/>
    </g>
    <path d="m135.613 408.227-.062 4.66c-.063 4.664-.188 13.988 8.832 23.375 9.019 9.386 27.183 18.84 36.265 23.562l9.082 4.727"
          style="fill:none;stroke:#000;stroke-width:1.5;stroke-linecap:butt;stroke-linejoin:miter;stroke-miterlimit:4;stroke-dasharray:none;stroke-opacity:1"
          transform="translate(-63.5 -63.5)scale(1.33333)"/>
    <path d="m184.621 456.82 5.906 8.145-10.058-.16z" clip-path="url(#d)"
          style="fill:#000;fill-opacity:1;fill-rule:nonzero;stroke:none"
          transform="translate(-63.5 -63.5)scale(1.33333)"/>
    <g clip-path="url(#e)" transform="translate(-63.5 -63.5)">
        <path d="m332.333 283.921 7.983 3.991-7.981 3.993z" clip-path="url(#f)"
              style="fill:none;stroke:#000;stroke-width:.79841;stroke-linecap:butt;stroke-linejoin:miter;stroke-miterlimit:4;stroke-dasharray:none;stroke-opacity:1"
              transform="rotate(27.486)scale(1.50299)"/>
    </g>
    <path d="m306.457 146.398 9.082 4.727c9.082 4.727 27.246 14.176 36.328 23.625s9.082 18.898 9.082 23.625v4.727"
          style="fill:none;stroke:#000;stroke-width:1.5;stroke-linecap:butt;stroke-linejoin:miter;stroke-miterlimit:4;stroke-dasharray:none;stroke-opacity:1"
          transform="translate(-63.5 -63.5)scale(1.33333)"/>
    <path d="m195-365.449 9 4.5-9 4.5z" clip-path="url(#g)"
          style="fill:#000;fill-opacity:1;fill-rule:nonzero;stroke:#000;stroke-width:.9;stroke-linecap:butt;stroke-linejoin:miter;stroke-miterlimit:4;stroke-dasharray:none;stroke-opacity:1"
          transform="rotate(90 0 -63.5)scale(1.33333)"/>
    <path d="m381.285 233.551 6.313 4.722c6.308 4.727 18.929 14.176 25.242 26.165 6.308 11.988 6.308 26.511 6.308 41.039v87.148c0 14.523 0 29.051 2.414 41.039 2.415 11.984 7.239 21.438 9.653 26.16l2.41 4.727"
          style="fill:none;stroke:#000;stroke-width:1.5;stroke-linecap:butt;stroke-linejoin:miter;stroke-miterlimit:4;stroke-dasharray:none;stroke-opacity:1"
          transform="translate(-63.5 -63.5)scale(1.33333)"/>
    <path d="m433.949 455.289.086 10.063-8.101-5.969z" clip-path="url(#h)"
          style="fill:#000;fill-opacity:1;fill-rule:nonzero;stroke:none"
          transform="translate(-63.5 -63.5)scale(1.33333)"/>
    <g clip-path="url(#i)" transform="translate(-63.5 -63.5)">
        <path d="m536.889-159.807 8.016 4.008-8.016 4.008z" clip-path="url(#j)"
              style="fill:none;stroke:#000;stroke-width:.801553;stroke-linecap:butt;stroke-linejoin:miter;stroke-miterlimit:4;stroke-dasharray:none;stroke-opacity:1"
              transform="rotate(62.951)scale(1.4971)"/>
    </g>
    <path d="m340.613 233.551-6.308 4.722c-6.313 4.727-18.934 14.176-25.18 23.688-6.25 9.516-6.125 19.09-6.063 23.875l.063 4.789"
          style="fill:none;stroke:#000;stroke-width:1.5;stroke-linecap:butt;stroke-linejoin:miter;stroke-miterlimit:4;stroke-dasharray:none;stroke-opacity:1"
          transform="translate(-63.5 -63.5)scale(1.33333)"/>
    <g clip-path="url(#k)" transform="translate(-63.5 -63.5)">
        <path d="m286.434-303.781 8.996 4.5-8.997 4.5z" clip-path="url(#l)"
              style="fill:#000;fill-opacity:1;fill-rule:nonzero;stroke:#000;stroke-width:.899923;stroke-linecap:butt;stroke-linejoin:miter;stroke-miterlimit:4;stroke-dasharray:none;stroke-opacity:1"
              transform="rotate(89.252)scale(1.33345)"/>
    </g>
    <path d="m303.125 321.074-.063 4.664c-.062 4.66-.187 13.989-.187 23.438s.125 19.023.187 23.812l.063 4.785"
          style="fill:none;stroke:#000;stroke-width:1.5;stroke-linecap:butt;stroke-linejoin:miter;stroke-miterlimit:4;stroke-dasharray:none;stroke-opacity:1"
          transform="translate(-63.5 -63.5)scale(1.33333)"/>
    <g clip-path="url(#m)" transform="translate(-63.5 -63.5)">
        <path d="m373.567-302.644 9 4.5-9 4.5z" clip-path="url(#n)"
              style="fill:#000;fill-opacity:1;fill-rule:nonzero;stroke:#000;stroke-width:.899923;stroke-linecap:butt;stroke-linejoin:miter;stroke-miterlimit:4;stroke-dasharray:none;stroke-opacity:1"
              transform="rotate(89.252)scale(1.33345)"/>
    </g>
    <path d="m303.125 408.227-.063 4.66c-.062 4.664-.187 13.988-9.332 23.375-9.144 9.386-27.308 18.84-36.39 23.562l-9.082 4.727"
          style="fill:none;stroke:#000;stroke-width:1.5;stroke-linecap:butt;stroke-linejoin:miter;stroke-miterlimit:4;stroke-dasharray:none;stroke-opacity:1"
          transform="translate(-63.5 -63.5)scale(1.33333)"/>
    <path d="m257.52 464.805-10.059.16 5.906-8.145z" clip-path="url(#o)"
          style="fill:#000;fill-opacity:1;fill-rule:nonzero;stroke:none"
          transform="translate(-63.5 -63.5)scale(1.33333)"/>
    <g clip-path="url(#p)" transform="translate(-63.5 -63.5)">
        <path d="m-12.356-471.233 7.982 3.992-7.983 3.992z" clip-path="url(#q)"
              style="fill:none;stroke:#000;stroke-width:.79841;stroke-linecap:butt;stroke-linejoin:miter;stroke-miterlimit:4;stroke-dasharray:none;stroke-opacity:1"
              transform="rotate(152.514)scale(1.50299)"/>
    </g>
    <path d="m340.797 403.203 20.476 5.5c20.477 5.5 61.426 16.496 79.489 26.723 18.062 10.222 13.238 19.676 10.824 24.398l-2.41 4.727"
          style="fill:none;stroke:#000;stroke-width:1.5;stroke-linecap:butt;stroke-linejoin:miter;stroke-miterlimit:4;stroke-dasharray:none;stroke-opacity:1"
          transform="translate(-63.5 -63.5)scale(1.33333)"/>
    <path d="m456.867 459.383-8.101 5.969.086-10.063z" clip-path="url(#r)"
          style="fill:#000;fill-opacity:1;fill-rule:nonzero;stroke:none"
          transform="translate(-63.5 -63.5)scale(1.33333)"/>
    <g clip-path="url(#s)" transform="translate(-63.5 -63.5)">
        <path d="m179.341-548.441 8.016 4.008-8.016 4.008z" clip-path="url(#t)"
              style="fill:none;stroke:#000;stroke-width:.801553;stroke-linecap:butt;stroke-linejoin:miter;stroke-miterlimit:4;stroke-dasharray:none;stroke-opacity:1"
              transform="rotate(117.049)scale(1.4971)"/>
    </g>
    <path d="M126.738 252.301h17v14.5h-17z" clip-path="url(#u)"
          style="fill:#fff;fill-opacity:1;fill-rule:nonzero;stroke:none"
          transform="translate(-63.5 -63.5)scale(1.33333)"/>
    <text xml:space="preserve" transform="translate(105.483 288.233)scale(1.33333)"><tspan x="0" y="0" dx="0 -1.2599999" style="font-variant:normal;font-weight:400;font-size:12px;font-family:&quot;Trebuchet MS&quot;;writing-mode:lr-tb;fill:#000;fill-opacity:1;fill-rule:nonzero;stroke:none">Yes</tspan></text>
    <path d="M353.898 165.148H368v14.5h-14.102z" clip-path="url(#v)"
          style="fill:#fff;fill-opacity:1;fill-rule:nonzero;stroke:none"
          transform="translate(-63.5 -63.5)scale(1.33333)"/>
    <text xml:space="preserve" transform="translate(408.367 172.033)scale(1.33333)"><tspan x="0" y="0" style="font-variant:normal;font-weight:400;font-size:12px;font-family:&quot;Trebuchet MS&quot;;writing-mode:lr-tb;fill:#000;fill-opacity:1;fill-rule:nonzero;stroke:none">No</tspan></text>
    <path d="M412.102 339.449h14.102v14.5h-14.102z" clip-path="url(#w)"
          style="fill:#fff;fill-opacity:1;fill-rule:nonzero;stroke:none"
          transform="translate(-63.5 -63.5)scale(1.33333)"/>
    <text xml:space="preserve" transform="translate(485.967 404.433)scale(1.33333)"><tspan x="0" y="0" style="font-variant:normal;font-weight:400;font-size:12px;font-family:&quot;Trebuchet MS&quot;;writing-mode:lr-tb;fill:#000;fill-opacity:1;fill-rule:nonzero;stroke:none">No</tspan></text>
    <path d="M294.25 252.301h17v14.5h-17z" clip-path="url(#x)"
          style="fill:#fff;fill-opacity:1;fill-rule:nonzero;stroke:none"
          transform="translate(-63.5 -63.5)scale(1.33333)"/>
    <text xml:space="preserve" transform="translate(328.833 288.233)scale(1.33333)"><tspan x="0" y="0" dx="0 -1.2599999" style="font-variant:normal;font-weight:400;font-size:12px;font-family:&quot;Trebuchet MS&quot;;writing-mode:lr-tb;fill:#000;fill-opacity:1;fill-rule:nonzero;stroke:none">Yes</tspan></text>
    <path d="M261.031 426.602h83.438v14.5h-83.438z" clip-path="url(#y)"
          style="fill:#fff;fill-opacity:1;fill-rule:nonzero;stroke:none"
          transform="translate(-63.5 -63.5)scale(1.33333)"/>
    <text xml:space="preserve" transform="translate(284.542 520.633)scale(1.33333)"><tspan x="0" y="0" dx="0 -0.47999996" style="font-variant:normal;font-weight:400;font-size:12px;font-family:&quot;Trebuchet MS&quot;;writing-mode:lr-tb;fill:#000;fill-opacity:1;fill-rule:nonzero;stroke:none">Resist Succeeds</tspan></text>
    <path d="M434.148 426.602h59v14.5h-59z" clip-path="url(#z)"
          style="fill:#fff;fill-opacity:1;fill-rule:nonzero;stroke:none"
          transform="translate(-63.5 -63.5)scale(1.33333)"/>
    <text xml:space="preserve" transform="translate(515.367 520.633)scale(1.33333)"><tspan x="0" y="0" dx="0 -0.47999996" style="font-variant:normal;font-weight:400;font-size:12px;font-family:&quot;Trebuchet MS&quot;;writing-mode:lr-tb;fill:#000;fill-opacity:1;fill-rule:nonzero;stroke:none">Resist Fails</tspan></text>
    <path d="M198.492 48H355.89v30.449H198.492Z"
          style="fill:#cde498;fill-opacity:1;fill-rule:nonzero;stroke:#13540c;stroke-width:.75;stroke-linecap:butt;stroke-linejoin:miter;stroke-miterlimit:4;stroke-dasharray:none;stroke-opacity:1"
          transform="translate(-63.5 -63.5)scale(1.33333)"/>
    <text xml:space="preserve" transform="translate(208.658 23.333)scale(1.33333)"><tspan x="0" y="0" style="font-variant:normal;font-weight:400;font-size:12px;font-family:&quot;Trebuchet MS&quot;;writing-mode:lr-tb;fill:#000;fill-opacity:1;fill-rule:nonzero;stroke:none">Manifest Interaction Begins</tspan></text>
    <path d="M248.301 115.949h57.785c2.07 0 3.75 1.68 3.75 3.75v22.949a3.75 3.75 0 0 1-3.75 3.75h-57.785a3.75 3.75 0 0 1-3.75-3.75v-22.949a3.75 3.75 0 0 1 3.75-3.75z"
          style="fill:#cde498;fill-opacity:1;fill-rule:nonzero;stroke:#13540c;stroke-width:.75;stroke-linecap:butt;stroke-linejoin:miter;stroke-miterlimit:4;stroke-dasharray:none;stroke-opacity:1"
          transform="translate(-63.5 -63.5)scale(1.33333)"/>
    <text xml:space="preserve" transform="translate(270.067 113.933)scale(1.33333)"><tspan x="0" y="0" style="font-variant:normal;font-weight:400;font-size:12px;font-family:&quot;Trebuchet MS&quot;;writing-mode:lr-tb;fill:#000;fill-opacity:1;fill-rule:nonzero;stroke:none">Immuned?</tspan></text>
    <path d="M54 407.852h162.477v-30.454H54v30.454h-6 174.477v-30.454H48v30.454z"
          style="fill:#cde498;fill-opacity:1;fill-rule:nonzero;stroke:#13540c;stroke-width:.75;stroke-linecap:butt;stroke-linejoin:miter;stroke-miterlimit:4;stroke-dasharray:none;stroke-opacity:1"
          transform="translate(-63.5 -63.5)scale(1.33333)"/>
    <text xml:space="preserve" transform="translate(16 462.533)scale(1.33333)"><tspan x="0" y="0" style="font-variant:normal;font-weight:400;font-size:12px;font-family:&quot;Trebuchet MS&quot;;writing-mode:lr-tb;fill:#000;fill-opacity:1;fill-rule:nonzero;stroke:none">Immunity Interaction Begins</tspan></text>
    <path d="M334.77 203.102h52.363a3.753 3.753 0 0 1 3.75 3.75v22.949c0 2.07-1.684 3.75-3.75 3.75H334.77a3.75 3.75 0 0 1-3.75-3.75v-22.949a3.75 3.75 0 0 1 3.75-3.75z"
          style="fill:#cde498;fill-opacity:1;fill-rule:nonzero;stroke:#13540c;stroke-width:.75;stroke-linecap:butt;stroke-linejoin:miter;stroke-miterlimit:4;stroke-dasharray:none;stroke-opacity:1"
          transform="translate(-63.5 -63.5)scale(1.33333)"/>
    <text xml:space="preserve" transform="translate(385.358 230.133)scale(1.33333)"><tspan x="0" y="0" dx="0 -0.47999996" style="font-variant:normal;font-weight:400;font-size:12px;font-family:&quot;Trebuchet MS&quot;;writing-mode:lr-tb;fill:#000;fill-opacity:1;fill-rule:nonzero;stroke:none">Resisted?</tspan></text>
    <path d="M218.602 320.699h168.296V290.25H218.602v30.449h-6 180.296V290.25H212.602v30.449z"
          style="fill:#cde498;fill-opacity:1;fill-rule:nonzero;stroke:#13540c;stroke-width:.75;stroke-linecap:butt;stroke-linejoin:miter;stroke-miterlimit:4;stroke-dasharray:none;stroke-opacity:1"
          transform="translate(-63.5 -63.5)scale(1.33333)"/>
    <text xml:space="preserve" transform="translate(235.467 346.333)scale(1.33333)"><tspan x="0" y="0" dx="0 -0.47999996" style="font-variant:normal;font-weight:400;font-size:12px;font-family:&quot;Trebuchet MS&quot;;writing-mode:lr-tb;fill:#000;fill-opacity:1;fill-rule:nonzero;stroke:none">Resistance Interaction Begins</tspan></text>
    <path d="M267.586 407.852h70.328l7.609-15.227-7.609-15.227h-70.328l-7.609 15.227z"
          style="fill:#cde498;fill-opacity:1;fill-rule:nonzero;stroke:#13540c;stroke-width:.75;stroke-linecap:butt;stroke-linejoin:miter;stroke-miterlimit:4;stroke-dasharray:none;stroke-opacity:1"
          transform="translate(-63.5 -63.5)scale(1.33333)"/>
    <text xml:space="preserve" transform="translate(300.783 462.533)scale(1.33333)"><tspan x="0" y="0" dx="0 -0.47999996" style="font-variant:normal;font-weight:400;font-size:12px;font-family:&quot;Trebuchet MS&quot;;writing-mode:lr-tb;fill:#000;fill-opacity:1;fill-rule:nonzero;stroke:none">Resist Save</tspan></text>
    <path d="M188.668 464.551h60.652c8.403 0 15.223 6.82 15.223 15.222 0 8.407-6.82 15.227-15.223 15.227h-60.652c-8.402 0-15.223-6.82-15.223-15.227 0-8.402 6.821-15.222 15.223-15.222z"
          style="fill:#cde498;fill-opacity:1;fill-rule:nonzero;stroke:#13540c;stroke-width:.75;stroke-linecap:butt;stroke-linejoin:miter;stroke-miterlimit:4;stroke-dasharray:none;stroke-opacity:1"
          transform="translate(-63.5 -63.5)scale(1.33333)"/>
    <text xml:space="preserve" transform="translate(180.333 578.733)scale(1.33333)"><tspan x="0" y="0" style="font-variant:normal;font-weight:400;font-size:12px;font-family:&quot;Trebuchet MS&quot;;writing-mode:lr-tb;fill:#000;fill-opacity:1;fill-rule:nonzero;stroke:none">Effect Fizzles</tspan></text>
    <path d="M409.699 464.551h63.403c8.402 0 15.222 6.82 15.222 15.222 0 8.407-6.82 15.227-15.222 15.227h-63.403c-8.402 0-15.222-6.82-15.222-15.227 0-8.402 6.82-15.222 15.222-15.222z"
          style="fill:#cde498;fill-opacity:1;fill-rule:nonzero;stroke:#13540c;stroke-width:.75;stroke-linecap:butt;stroke-linejoin:miter;stroke-miterlimit:4;stroke-dasharray:none;stroke-opacity:1"
          transform="translate(-63.5 -63.5)scale(1.33333)"/>
    <text xml:space="preserve" transform="translate(475.042 578.733)scale(1.33333)"><tspan x="0" y="0" style="font-variant:normal;font-weight:400;font-size:12px;font-family:&quot;Trebuchet MS&quot;;writing-mode:lr-tb;fill:#000;fill-opacity:1;fill-rule:nonzero;stroke:none">Effect Applies</tspan></text>
</svg>