<svg xmlns="http://www.w3.org/2000/svg" width="384.757" height="617.636">
    <defs>
        <clipPath id="b" clipPathUnits="userSpaceOnUse">
            <path d="m111.796-186.578 9 .001-.001 9h-9z"/>
        </clipPath>
        <clipPath id="a" clipPathUnits="userSpaceOnUse">
            <path d="M238.667 144H252v13.333h-13.333z"/>
        </clipPath>
        <clipPath id="c" clipPathUnits="userSpaceOnUse">
            <path d="m106.297 470.848 5.422 7.183-7.184 5.422-5.422-7.183z"/>
        </clipPath>
        <clipPath id="e" clipPathUnits="userSpaceOnUse">
            <path d="m351.184 158.627 7.184-.002.002 7.185-7.184.002z"/>
        </clipPath>
        <clipPath id="d" clipPathUnits="userSpaceOnUse">
            <path d="M132 626.667h13.333v16H132Z"/>
        </clipPath>
        <clipPath id="f" clipPathUnits="userSpaceOnUse">
            <path d="M195-212.426v-9h9v9z"/>
        </clipPath>
        <clipPath id="h" clipPathUnits="userSpaceOnUse">
            <path d="M285.977-268.74h9l-.001 9h-9z"/>
        </clipPath>
        <clipPath id="g" clipPathUnits="userSpaceOnUse">
            <path d="M350.667 376H364v13.333h-13.333z"/>
        </clipPath>
        <clipPath id="i" clipPathUnits="userSpaceOnUse">
            <path d="m187.23 362.621 7.176 5.434-5.433 7.175-7.176-5.433z"/>
        </clipPath>
        <clipPath id="k" clipPathUnits="userSpaceOnUse">
            <path d="m293.501 140.288 7.175-.001.001 7.174-7.175.002z"/>
        </clipPath>
        <clipPath id="j" clipPathUnits="userSpaceOnUse">
            <path d="M241.333 482.667h16v14.666h-16z"/>
        </clipPath>
        <clipPath id="l" clipPathUnits="userSpaceOnUse">
            <path d="m248.727 365.023-6.332 6.399-6.399-6.332 6.332-6.399z"/>
        </clipPath>
        <clipPath id="n" clipPathUnits="userSpaceOnUse">
            <path d="M60.065-308.167h6.4v6.399h-6.4z"/>
        </clipPath>
        <clipPath id="m" clipPathUnits="userSpaceOnUse">
            <path d="M317.333 477.333H332v16h-14.667z"/>
        </clipPath>
        <clipPath id="o" clipPathUnits="userSpaceOnUse">
            <path d="m139.023 476.27-5.421 7.183-7.184-5.422 5.422-7.183z"/>
        </clipPath>
        <clipPath id="q" clipPathUnits="userSpaceOnUse">
            <path d="M236.695-317.58h7.185l-.002 7.186-7.185-.002z"/>
        </clipPath>
        <clipPath id="p" clipPathUnits="userSpaceOnUse">
            <path d="M172 626.667h14.667v16H172Z"/>
        </clipPath>
        <clipPath id="r" clipPathUnits="userSpaceOnUse">
            <path d="M471.926-264.562v-9h9v9z"/>
        </clipPath>
        <clipPath id="s" clipPathUnits="userSpaceOnUse">
            <path d="M48 295.875h76.398V311H48Z"/>
        </clipPath>
        <clipPath id="t" clipPathUnits="userSpaceOnUse">
            <path d="M190.953 165.148h51.949V180h-51.949Z"/>
        </clipPath>
        <clipPath id="u" clipPathUnits="userSpaceOnUse">
            <path d="M259.203 252.301h17.012V267h-17.012z"/>
        </clipPath>
        <clipPath id="v" clipPathUnits="userSpaceOnUse">
            <path d="M142.141 295.875h14.113V311h-14.113z"/>
        </clipPath>
        <clipPath id="w" clipPathUnits="userSpaceOnUse">
            <path d="M101.195 442.074h101.488V457H101.195Z"/>
        </clipPath>
        <clipPath id="x" clipPathUnits="userSpaceOnUse">
            <path d="M230.535 442.074h77.062V457h-77.062z"/>
        </clipPath>
    </defs>
    <path d="M184.055 78.449v3.125c0 3.125 0 9.375.062 15.688.063 6.312.188 12.687.25 15.875l.063 3.187"
          style="fill:none;stroke:#000;stroke-width:1.5;stroke-linecap:butt;stroke-linejoin:miter;stroke-miterlimit:4;stroke-dasharray:none;stroke-opacity:1"
          transform="translate(-64 -63.5)scale(1.33333)"/>
    <g clip-path="url(#a)" transform="translate(-64 -63.5)">
        <path d="m111.796-186.577 9.001 4.497-8.998 4.499z" clip-path="url(#b)"
              style="fill:#000;fill-opacity:1;fill-rule:nonzero;stroke:#000;stroke-width:.899827;stroke-linecap:butt;stroke-linejoin:miter;stroke-miterlimit:4;stroke-dasharray:none;stroke-opacity:1"
              transform="rotate(88.877)scale(1.33359)"/>
    </g>
    <path d="m152.328 145.844-11.023 4.82c-11.024 4.816-33.067 14.449-44.086 26.531-11.024 12.078-11.024 26.606-11.024 41.129v174.039c0 18.703 0 39.008 3.563 53.883 3.566 14.879 10.695 24.328 14.258 29.055l3.566 4.722"
          style="fill:none;stroke:#000;stroke-width:1.5;stroke-linecap:butt;stroke-linejoin:miter;stroke-miterlimit:4;stroke-dasharray:none;stroke-opacity:1"
          transform="translate(-64 -63.5)scale(1.33333)"/>
    <path d="m106.297 470.848 1.828 9.894-9.016-4.472z" clip-path="url(#c)"
          style="fill:#000;fill-opacity:1;fill-rule:nonzero;stroke:none"
          transform="translate(-64 -63.5)scale(1.33333)"/>
    <g clip-path="url(#d)" transform="translate(-64 -63.5)">
        <path d="m351.183 158.627 7.185 3.592-7.185 3.596z" clip-path="url(#e)"
              style="fill:none;stroke:#000;stroke-width:.718488;stroke-linecap:butt;stroke-linejoin:miter;stroke-miterlimit:4;stroke-dasharray:none;stroke-opacity:1"
              transform="rotate(52.97)scale(1.67017)"/>
    </g>
    <path d="m195.914 146.773 3.504 4.665c3.5 4.664 10.504 13.988 14.008 23.374 3.5 9.387 3.5 18.836 3.5 23.563v4.727"
          style="fill:none;stroke:#000;stroke-width:1.5;stroke-linecap:butt;stroke-linejoin:miter;stroke-miterlimit:4;stroke-dasharray:none;stroke-opacity:1"
          transform="translate(-64 -63.5)scale(1.33333)"/>
    <path d="m195-221.426 9 4.5-9 4.5z" clip-path="url(#f)"
          style="fill:#000;fill-opacity:1;fill-rule:nonzero;stroke:#000;stroke-width:.9;stroke-linecap:butt;stroke-linejoin:miter;stroke-miterlimit:4;stroke-dasharray:none;stroke-opacity:1"
          transform="rotate(90 -.25 -63.75)scale(1.33333)"/>
    <path d="m234.668 233.551 5.508 4.722c5.504 4.727 16.515 14.176 22.086 23.688 5.566 9.516 5.691 19.09 5.754 23.875l.062 4.789"
          style="fill:none;stroke:#000;stroke-width:1.5;stroke-linecap:butt;stroke-linejoin:miter;stroke-miterlimit:4;stroke-dasharray:none;stroke-opacity:1"
          transform="translate(-64 -63.5)scale(1.33333)"/>
    <g clip-path="url(#g)" transform="translate(-64 -63.5)">
        <path d="m285.976-268.74 8.996 4.5-8.996 4.5z" clip-path="url(#h)"
              style="fill:#000;fill-opacity:1;fill-rule:nonzero;stroke:#000;stroke-width:.899923;stroke-linecap:butt;stroke-linejoin:miter;stroke-miterlimit:4;stroke-dasharray:none;stroke-opacity:1"
              transform="rotate(89.252)scale(1.33345)"/>
    </g>
    <path d="m193.258 233.551-7.344 4.722c-7.344 4.727-22.035 14.176-29.379 26.165-7.347 11.988-7.347 26.511-7.347 39.437s0 24.25 6.964 35.187c6.965 10.938 20.891 21.489 27.856 26.762l6.961 5.278"
          style="fill:none;stroke:#000;stroke-width:1.5;stroke-linecap:butt;stroke-linejoin:miter;stroke-miterlimit:4;stroke-dasharray:none;stroke-opacity:1"
          transform="translate(-64 -63.5)scale(1.33333)"/>
    <path d="m187.23 362.621 4.458 9.024-9.891-1.848z" clip-path="url(#i)"
          style="fill:#000;fill-opacity:1;fill-rule:nonzero;stroke:none"
          transform="translate(-64 -63.5)scale(1.33333)"/>
    <g clip-path="url(#j)" transform="translate(-64 -63.5)">
        <path d="m293.501 140.288 7.175 3.588-7.173 3.586z" clip-path="url(#k)"
              style="fill:none;stroke:#000;stroke-width:.717402;stroke-linecap:butt;stroke-linejoin:miter;stroke-miterlimit:4;stroke-dasharray:none;stroke-opacity:1"
              transform="rotate(37.145)scale(1.6727)"/>
    </g>
    <path d="m268.078 321.074-.062 3.063c-.063 3.062-.188 9.187-4.895 16.945s-14 17.145-18.644 21.84l-4.645 4.695"
          style="fill:none;stroke:#000;stroke-width:1.5;stroke-linecap:butt;stroke-linejoin:miter;stroke-miterlimit:4;stroke-dasharray:none;stroke-opacity:1"
          transform="translate(-64 -63.5)scale(1.33333)"/>
    <path d="m248.727 365.023-9.528 3.235 3.129-9.563z" clip-path="url(#l)"
          style="fill:#000;fill-opacity:1;fill-rule:nonzero;stroke:none"
          transform="translate(-64 -63.5)scale(1.33333)"/>
    <g clip-path="url(#m)" transform="translate(-64 -63.5)">
        <path d="m60.066-308.167 6.397 3.197-6.395 3.2z" clip-path="url(#n)"
              style="fill:none;stroke:#000;stroke-width:.639718;stroke-linecap:butt;stroke-linejoin:miter;stroke-miterlimit:4;stroke-dasharray:none;stroke-opacity:1"
              transform="rotate(134.7)scale(1.87583)"/>
    </g>
    <path d="m193.168 413.031-6.871 6.442c-6.871 6.441-20.613 19.32-31.051 30.488-10.437 11.164-17.566 20.613-21.129 25.34l-3.566 4.722"
          style="fill:none;stroke:#000;stroke-width:1.5;stroke-linecap:butt;stroke-linejoin:miter;stroke-miterlimit:4;stroke-dasharray:none;stroke-opacity:1"
          transform="translate(-64 -63.5)scale(1.33333)"/>
    <path d="m139.023 476.27-9.011 4.472 1.828-9.894z" clip-path="url(#o)"
          style="fill:#000;fill-opacity:1;fill-rule:nonzero;stroke:none"
          transform="translate(-64 -63.5)scale(1.33333)"/>
    <g clip-path="url(#p)" transform="translate(-64 -63.5)">
        <path d="m236.695-317.58 7.183 3.593-7.185 3.592z" clip-path="url(#q)"
              style="fill:none;stroke:#000;stroke-width:.718488;stroke-linecap:butt;stroke-linejoin:miter;stroke-miterlimit:4;stroke-dasharray:none;stroke-opacity:1"
              transform="rotate(127.03)scale(1.67017)"/>
    </g>
    <path d="m238.102 415.5 5.16 6.031c5.16 6.028 15.48 18.086 20.64 28.84s5.16 20.203 5.16 24.93v4.722"
          style="fill:none;stroke:#000;stroke-width:1.5;stroke-linecap:butt;stroke-linejoin:miter;stroke-miterlimit:4;stroke-dasharray:none;stroke-opacity:1"
          transform="translate(-64 -63.5)scale(1.33333)"/>
    <path d="m471.926-273.562 9 4.5-9 4.5z" clip-path="url(#r)"
          style="fill:#000;fill-opacity:1;fill-rule:nonzero;stroke:#000;stroke-width:.9;stroke-linecap:butt;stroke-linejoin:miter;stroke-miterlimit:4;stroke-dasharray:none;stroke-opacity:1"
          transform="rotate(90 -.25 -63.75)scale(1.33333)"/>
    <path d="M48 295.875h76.387v14.5H48Z" clip-path="url(#s)"
          style="fill:#fff;fill-opacity:1;fill-rule:nonzero;stroke:none"
          transform="translate(-64 -63.5)scale(1.33333)"/>
    <text xml:space="preserve" transform="translate(.002 346.333)scale(1.33333)"><tspan x="0" y="0" style="font-variant:normal;font-weight:400;font-size:12px;font-family:&quot;Trebuchet MS&quot;;writing-mode:lr-tb;fill:#000;fill-opacity:1;fill-rule:nonzero;stroke:none">Feat Succeeds</tspan></text>
    <path d="M190.953 165.148h51.949v14.5h-51.949z" clip-path="url(#t)"
          style="fill:#fff;fill-opacity:1;fill-rule:nonzero;stroke:none"
          transform="translate(-64 -63.5)scale(1.33333)"/>
    <text xml:space="preserve" transform="translate(190.602 172.033)scale(1.33333)"><tspan x="0" y="0" style="font-variant:normal;font-weight:400;font-size:12px;font-family:&quot;Trebuchet MS&quot;;writing-mode:lr-tb;fill:#000;fill-opacity:1;fill-rule:nonzero;stroke:none">Feat Fails</tspan></text>
    <path d="M259.203 252.301h17v14.5h-17z" clip-path="url(#u)"
          style="fill:#fff;fill-opacity:1;fill-rule:nonzero;stroke:none"
          transform="translate(-64 -63.5)scale(1.33333)"/>
    <text xml:space="preserve" transform="translate(281.606 288.233)scale(1.33333)"><tspan x="0" y="0" dx="0 -1.26" style="font-variant:normal;font-weight:400;font-size:12px;font-family:&quot;Trebuchet MS&quot;;writing-mode:lr-tb;fill:#000;fill-opacity:1;fill-rule:nonzero;stroke:none">Yes</tspan></text>
    <path d="M142.141 295.875h14.102v14.5h-14.102z" clip-path="url(#v)"
          style="fill:#fff;fill-opacity:1;fill-rule:nonzero;stroke:none"
          transform="translate(-64 -63.5)scale(1.33333)"/>
    <text xml:space="preserve" transform="translate(125.519 346.333)scale(1.33333)"><tspan x="0" y="0" style="font-variant:normal;font-weight:400;font-size:12px;font-family:&quot;Trebuchet MS&quot;;writing-mode:lr-tb;fill:#000;fill-opacity:1;fill-rule:nonzero;stroke:none">No</tspan></text>
    <path d="M101.195 442.074h101.488v14.5H101.195Z" clip-path="url(#w)"
          style="fill:#fff;fill-opacity:1;fill-rule:nonzero;stroke:none"
          transform="translate(-64 -63.5)scale(1.33333)"/>
    <text xml:space="preserve" transform="translate(70.927 541.267)scale(1.33333)"><tspan x="0" y="0" dx="0 -0.47999999" style="font-variant:normal;font-weight:400;font-size:12px;font-family:&quot;Trebuchet MS&quot;;writing-mode:lr-tb;fill:#000;fill-opacity:1;fill-rule:nonzero;stroke:none">Responses Succeed</tspan></text>
    <path d="M230.535 442.074h77.051v14.5h-77.051z" clip-path="url(#x)"
          style="fill:#fff;fill-opacity:1;fill-rule:nonzero;stroke:none"
          transform="translate(-64 -63.5)scale(1.33333)"/>
    <text xml:space="preserve" transform="translate(243.381 541.267)scale(1.33333)"><tspan x="0" y="0" dx="0 -0.47999999" style="font-variant:normal;font-weight:400;font-size:12px;font-family:&quot;Trebuchet MS&quot;;writing-mode:lr-tb;fill:#000;fill-opacity:1;fill-rule:nonzero;stroke:none">Responses Fail</tspan></text>
    <path d="M116.105 48h135.898v30.449H116.105Z"
          style="fill:#cde498;fill-opacity:1;fill-rule:nonzero;stroke:#13540c;stroke-width:.75;stroke-linecap:butt;stroke-linejoin:miter;stroke-miterlimit:4;stroke-dasharray:none;stroke-opacity:1"
          transform="translate(-64 -63.5)scale(1.33333)"/>
    <text xml:space="preserve" transform="translate(98.306 23.333)scale(1.33333)"><tspan x="0" y="0" style="font-variant:normal;font-weight:400;font-size:12px;font-family:&quot;Trebuchet MS&quot;;writing-mode:lr-tb;fill:#000;fill-opacity:1;fill-rule:nonzero;stroke:none">Feat Interaction Begins</tspan></text>
    <path d="M152.418 146.398h63.273l7.614-15.222-7.614-15.227h-63.273l-7.613 15.227z"
          style="fill:#cde498;fill-opacity:1;fill-rule:nonzero;stroke:#13540c;stroke-width:.75;stroke-linecap:butt;stroke-linejoin:miter;stroke-miterlimit:4;stroke-dasharray:none;stroke-opacity:1"
          transform="translate(-64 -63.5)scale(1.33333)"/>
    <text xml:space="preserve" transform="translate(146.723 113.933)scale(1.33333)"><tspan x="0" y="0" style="font-variant:normal;font-weight:400;font-size:12px;font-family:&quot;Trebuchet MS&quot;;writing-mode:lr-tb;fill:#000;fill-opacity:1;fill-rule:nonzero;stroke:none">Feat Save</tspan></text>
    <path d="M181.645 203.102h70.562a3.75 3.75 0 0 1 3.75 3.75v22.949c0 2.07-1.68 3.75-3.75 3.75h-70.562a3.75 3.75 0 0 1-3.75-3.75v-22.949a3.75 3.75 0 0 1 3.75-3.75z"
          style="fill:#cde498;fill-opacity:1;fill-rule:nonzero;stroke:#13540c;stroke-width:.75;stroke-linecap:butt;stroke-linejoin:miter;stroke-miterlimit:4;stroke-dasharray:none;stroke-opacity:1"
          transform="translate(-64 -63.5)scale(1.33333)"/>
    <text xml:space="preserve" transform="translate(180.694 230.133)scale(1.33333)"><tspan x="0" y="0" style="font-variant:normal;font-weight:400;font-size:12px;font-family:&quot;Trebuchet MS&quot;;writing-mode:lr-tb;fill:#000;fill-opacity:1;fill-rule:nonzero;stroke:none">Critical Fail?</tspan></text>
    <path d="M199.449 320.699h121.285l15.227-30.449H214.672Z"
          style="fill:#cde498;fill-opacity:1;fill-rule:nonzero;stroke:#13540c;stroke-width:.75;stroke-linecap:butt;stroke-linejoin:miter;stroke-miterlimit:4;stroke-dasharray:none;stroke-opacity:1"
          transform="translate(-64 -63.5)scale(1.33333)"/>
    <text xml:space="preserve" transform="translate(222.965 346.333)scale(1.33333)"><tspan x="0" y="0" style="font-variant:normal;font-weight:400;font-size:12px;font-family:&quot;Trebuchet MS&quot;;writing-mode:lr-tb;fill:#000;fill-opacity:1;fill-rule:nonzero;stroke:none">Effect Goes Critical</tspan></text>
    <path d="M249.488 390.762c0 17.984-14.578 32.562-32.562 32.562-17.985 0-32.563-14.578-32.563-32.562 0-17.985 14.578-32.563 32.563-32.563 17.984 0 32.562 14.578 32.562 32.563"
          style="fill:#cde498;fill-opacity:1;fill-rule:nonzero;stroke:none"
          transform="translate(-64 -63.5)scale(1.33333)"/>
    <path d="M249.488 390.762c0 17.984-14.578 32.562-32.562 32.562-17.985 0-32.563-14.578-32.563-32.562 0-17.985 14.578-32.563 32.563-32.563 17.984 0 32.562 14.578 32.562 32.563"
          style="fill:none;stroke:#13540c;stroke-width:.75;stroke-linecap:butt;stroke-linejoin:miter;stroke-miterlimit:4;stroke-dasharray:none;stroke-opacity:1"
          transform="translate(-64 -63.5)scale(1.33333)"/>
    <text xml:space="preserve" transform="translate(189.319 460.05)scale(1.33333)"><tspan x="0" y="0" dx="0 -0.47999999" style="font-variant:normal;font-weight:400;font-size:12px;font-family:&quot;Trebuchet MS&quot;;writing-mode:lr-tb;fill:#000;fill-opacity:1;fill-rule:nonzero;stroke:none">Responses</tspan></text>
    <path d="M88.742 480.023h60.649c8.406 0 15.226 6.825 15.226 15.227s-6.82 15.227-15.226 15.227H88.742c-8.402 0-15.226-6.825-15.226-15.227s6.824-15.227 15.226-15.227z"
          style="fill:#cde498;fill-opacity:1;fill-rule:nonzero;stroke:#13540c;stroke-width:.75;stroke-linecap:butt;stroke-linejoin:miter;stroke-miterlimit:4;stroke-dasharray:none;stroke-opacity:1"
          transform="translate(-64 -63.5)scale(1.33333)"/>
    <text xml:space="preserve" transform="translate(46.598 599.367)scale(1.33333)"><tspan x="0" y="0" style="font-variant:normal;font-weight:400;font-size:12px;font-family:&quot;Trebuchet MS&quot;;writing-mode:lr-tb;fill:#000;fill-opacity:1;fill-rule:nonzero;stroke:none">Effect Fizzles</tspan></text>
    <path d="M237.359 480.023h63.403c8.402 0 15.222 6.825 15.222 15.227s-6.82 15.227-15.222 15.227h-63.403c-8.402 0-15.222-6.825-15.222-15.227s6.82-15.227 15.222-15.227z"
          style="fill:#cde498;fill-opacity:1;fill-rule:nonzero;stroke:#13540c;stroke-width:.75;stroke-linecap:butt;stroke-linejoin:miter;stroke-miterlimit:4;stroke-dasharray:none;stroke-opacity:1"
          transform="translate(-64 -63.5)scale(1.33333)"/>
    <text xml:space="preserve" transform="translate(244.756 599.367)scale(1.33333)"><tspan x="0" y="0" style="font-variant:normal;font-weight:400;font-size:12px;font-family:&quot;Trebuchet MS&quot;;writing-mode:lr-tb;fill:#000;fill-opacity:1;fill-rule:nonzero;stroke:none">Effect Applies</tspan></text>
</svg>