<?xml version="1.0" encoding="UTF-8" standalone="no"?>
<!-- Created with Inkscape (http://www.inkscape.org/) -->

<svg
   version="1.1"
   id="svg1"
   width="384.75708"
   height="617.63599"
   viewBox="0 0 384.75706 617.63599"
   sodipodi:docname="feat-interaction.svg"
   inkscape:version="1.4.3 (0d15f75042, 2025-12-25)"
   xmlns:inkscape="http://www.inkscape.org/namespaces/inkscape"
   xmlns:sodipodi="http://sodipodi.sourceforge.net/DTD/sodipodi-0.dtd"
   xmlns="http://www.w3.org/2000/svg"
   xmlns:svg="http://www.w3.org/2000/svg">
  <defs
     id="defs1">
    <clipPath
       clipPathUnits="userSpaceOnUse"
       id="clipPath2">
      <path
         d="m 111.79585,-186.57765 8.99997,0.001 -0.001,8.99997 -8.99998,-10e-4 z"
         id="path2" />
    </clipPath>
    <clipPath
       clipPathUnits="userSpaceOnUse"
       id="clipPath4">
      <path
         d="M 238.66667,144 H 252 v 13.33333 h -13.33333 z"
         id="path4" />
    </clipPath>
    <clipPath
       clipPathUnits="userSpaceOnUse"
       id="clipPath6">
      <path
         d="m 106.297,470.84801 5.422,7.183 -7.184,5.422 -5.421998,-7.183 z"
         id="path6" />
    </clipPath>
    <clipPath
       clipPathUnits="userSpaceOnUse"
       id="clipPath8">
      <path
         d="m 351.18365,158.62716 7.1846,-0.002 0.002,7.18524 -7.1846,0.002 z"
         id="path8" />
    </clipPath>
    <clipPath
       clipPathUnits="userSpaceOnUse"
       id="clipPath10">
      <path
         d="m 132,626.66667 h 13.33333 v 16 H 132 Z"
         id="path10" />
    </clipPath>
    <clipPath
       clipPathUnits="userSpaceOnUse"
       id="clipPath13">
      <path
         d="m 195,-212.42601 v -9 h 9.00001 v 9 z"
         id="path13" />
    </clipPath>
    <clipPath
       clipPathUnits="userSpaceOnUse"
       id="clipPath15">
      <path
         d="m 285.9765,-268.74056 8.99999,4.7e-4 -4.6e-4,8.99999 -8.99999,-4.6e-4 z"
         id="path15" />
    </clipPath>
    <clipPath
       clipPathUnits="userSpaceOnUse"
       id="clipPath17">
      <path
         d="M 350.66667,376 H 364 v 13.33333 h -13.33333 z"
         id="path17" />
    </clipPath>
    <clipPath
       clipPathUnits="userSpaceOnUse"
       id="clipPath19">
      <path
         d="m 187.23,362.62101 7.176,5.434 -5.433,7.175 -7.176,-5.433 z"
         id="path19" />
    </clipPath>
    <clipPath
       clipPathUnits="userSpaceOnUse"
       id="clipPath21">
      <path
         d="m 293.50099,140.28784 7.17505,-10e-4 10e-4,7.17393 -7.17457,0.002 z"
         id="path21" />
    </clipPath>
    <clipPath
       clipPathUnits="userSpaceOnUse"
       id="clipPath23">
      <path
         d="m 241.33333,482.66667 h 16 v 14.66666 h -16 z"
         id="path23" />
    </clipPath>
    <clipPath
       clipPathUnits="userSpaceOnUse"
       id="clipPath25">
      <path
         d="m 248.72701,365.02301 -6.332,6.399 -6.399,-6.332 6.332,-6.399 z"
         id="path25" />
    </clipPath>
    <clipPath
       clipPathUnits="userSpaceOnUse"
       id="clipPath27">
      <path
         d="m 60.065382,-308.16687 6.39882,-1.8e-4 1.82e-4,6.39882 -6.398819,1.8e-4 z"
         id="path27" />
    </clipPath>
    <clipPath
       clipPathUnits="userSpaceOnUse"
       id="clipPath29">
      <path
         d="M 317.33333,477.33333 H 332 v 16 h -14.66667 z"
         id="path29" />
    </clipPath>
    <clipPath
       clipPathUnits="userSpaceOnUse"
       id="clipPath31">
      <path
         d="m 139.023,476.27001 -5.421,7.183 -7.184,-5.422 5.422,-7.183 z"
         id="path31" />
    </clipPath>
    <clipPath
       clipPathUnits="userSpaceOnUse"
       id="clipPath33">
      <path
         d="m 236.69548,-317.58016 7.18412,10e-4 -0.002,7.18524 -7.1846,-0.002 z"
         id="path33" />
    </clipPath>
    <clipPath
       clipPathUnits="userSpaceOnUse"
       id="clipPath35">
      <path
         d="m 172,626.66667 h 14.66667 v 16 H 172 Z"
         id="path35" />
    </clipPath>
    <clipPath
       clipPathUnits="userSpaceOnUse"
       id="clipPath38">
      <path
         d="m 471.92601,-264.56201 v -9 h 9 v 9 z"
         id="path38" />
    </clipPath>
    <clipPath
       clipPathUnits="userSpaceOnUse"
       id="clipPath40">
      <path
         d="M 48.000001,295.87501 H 124.398 v 15.125 H 48.000001 Z"
         id="path40" />
    </clipPath>
    <clipPath
       clipPathUnits="userSpaceOnUse"
       id="clipPath42">
      <path
         d="m 190.953,165.148 h 51.94901 V 180 H 190.953 Z"
         id="path42" />
    </clipPath>
    <clipPath
       clipPathUnits="userSpaceOnUse"
       id="clipPath44">
      <path
         d="m 259.20301,252.30101 h 17.012 v 14.699 h -17.012 z"
         id="path44" />
    </clipPath>
    <clipPath
       clipPathUnits="userSpaceOnUse"
       id="clipPath46">
      <path
         d="m 142.141,295.87501 h 14.113 v 15.125 h -14.113 z"
         id="path46" />
    </clipPath>
    <clipPath
       clipPathUnits="userSpaceOnUse"
       id="clipPath48">
      <path
         d="m 101.195,442.07401 h 101.48801 v 14.926 H 101.195 Z"
         id="path48" />
    </clipPath>
    <clipPath
       clipPathUnits="userSpaceOnUse"
       id="clipPath50">
      <path
         d="m 230.53501,442.07401 h 77.062 v 14.926 h -77.062 z"
         id="path50" />
    </clipPath>
  </defs>
  <sodipodi:namedview
     id="namedview1"
     pagecolor="#ffffff"
     bordercolor="#111111"
     borderopacity="1"
     inkscape:showpageshadow="0"
     inkscape:pageopacity="0"
     inkscape:pagecheckerboard="1"
     inkscape:deskcolor="#d1d1d1"
     inkscape:zoom="0.80352645"
     inkscape:cx="498.4279"
     inkscape:cy="730.52978"
     inkscape:window-width="1019"
     inkscape:window-height="735"
     inkscape:window-x="35"
     inkscape:window-y="32"
     inkscape:window-maximized="0"
     inkscape:current-layer="g1">
    <inkscape:page
       x="0"
       y="0"
       inkscape:label="1"
       id="page1"
       width="384.75705"
       height="617.63599"
       margin="0"
       bleed="0" />
  </sodipodi:namedview>
  <g
     id="g1"
     inkscape:groupmode="layer"
     inkscape:label="1"
     transform="translate(-63.999999,-63.5)">
    <path
       id="path1"
       d="m 184.055,78.449 v 3.125 c 0,3.125 0,9.375 0.062,15.688 0.063,6.312 0.188,12.687 0.25,15.875 l 0.063,3.187"
       style="fill:none;stroke:#000000;stroke-width:1.5;stroke-linecap:butt;stroke-linejoin:miter;stroke-miterlimit:4;stroke-dasharray:none;stroke-opacity:1"
       transform="scale(1.3333333)" />
    <g
       id="g3"
       clip-path="url(#clipPath4)">
      <path
         d="m 111.796,-186.577 9.001,4.497 -8.998,4.499 z"
         style="fill:#000000;fill-opacity:1;fill-rule:nonzero;stroke:#000000;stroke-width:0.899827;stroke-linecap:butt;stroke-linejoin:miter;stroke-miterlimit:4;stroke-dasharray:none;stroke-opacity:1"
         transform="matrix(0.02614707,1.3333333,-1.3333333,0.02614707,0,0)"
         clip-path="url(#clipPath2)"
         id="path3" />
    </g>
    <path
       id="path5"
       d="m 152.328,145.844 -11.023,4.82 c -11.024,4.816 -33.067,14.449 -44.086,26.531 -11.024,12.078 -11.024,26.606 -11.024,41.129 0,14.528 0,29.051 0,43.574 0,14.528 0,29.051 0,41.977 0,12.926 0,24.25 0,38.465 0,14.215 0,31.32 0,50.023 0,18.703 0,39.008 3.563,53.883 3.566,14.879 10.695,24.328 14.258,29.055 l 3.566,4.722"
       style="fill:none;stroke:#000000;stroke-width:1.5;stroke-linecap:butt;stroke-linejoin:miter;stroke-miterlimit:4;stroke-dasharray:none;stroke-opacity:1"
       transform="scale(1.3333333)" />
    <g
       id="g7">
      <path
         d="m 106.297,470.848 1.828,9.894 -9.016,-4.472 z"
         style="fill:#000000;fill-opacity:1;fill-rule:nonzero;stroke:none"
         transform="scale(1.3333333)"
         clip-path="url(#clipPath6)"
         id="path7" />
    </g>
    <g
       id="g9"
       clip-path="url(#clipPath10)">
      <path
         d="m 351.183,158.627 7.185,3.592 -7.185,3.596 z"
         style="fill:none;stroke:#000000;stroke-width:0.718488;stroke-linecap:butt;stroke-linejoin:miter;stroke-miterlimit:4;stroke-dasharray:none;stroke-opacity:1"
         transform="matrix(1.0058333,1.3333333,-1.3333333,1.0058333,0,0)"
         clip-path="url(#clipPath8)"
         id="path9" />
    </g>
    <path
       id="path11"
       d="m 195.914,146.773 3.504,4.665 c 3.5,4.664 10.504,13.988 14.008,23.374 3.5,9.387 3.5,18.836 3.5,23.563 v 4.727"
       style="fill:none;stroke:#000000;stroke-width:1.5;stroke-linecap:butt;stroke-linejoin:miter;stroke-miterlimit:4;stroke-dasharray:none;stroke-opacity:1"
       transform="scale(1.3333333)" />
    <path
       id="path12"
       d="m 195,-221.426 9,4.5 -9,4.5 z"
       style="fill:#000000;fill-opacity:1;fill-rule:nonzero;stroke:#000000;stroke-width:0.9;stroke-linecap:butt;stroke-linejoin:miter;stroke-miterlimit:4;stroke-dasharray:none;stroke-opacity:1"
       transform="matrix(0,1.3333333,-1.3333333,0,0,0)"
       clip-path="url(#clipPath13)" />
    <path
       id="path14"
       d="m 234.668,233.551 5.508,4.722 c 5.504,4.727 16.515,14.176 22.086,23.688 5.566,9.516 5.691,19.09 5.754,23.875 l 0.062,4.789"
       style="fill:none;stroke:#000000;stroke-width:1.5;stroke-linecap:butt;stroke-linejoin:miter;stroke-miterlimit:4;stroke-dasharray:none;stroke-opacity:1"
       transform="scale(1.3333333)" />
    <g
       id="g16"
       clip-path="url(#clipPath17)">
      <path
         d="m 285.976,-268.74 8.996,4.5 -8.996,4.5 z"
         style="fill:#000000;fill-opacity:1;fill-rule:nonzero;stroke:#000000;stroke-width:0.899923;stroke-linecap:butt;stroke-linejoin:miter;stroke-miterlimit:4;stroke-dasharray:none;stroke-opacity:1"
         transform="matrix(0.01740213,1.3333333,-1.3333333,0.01740213,0,0)"
         clip-path="url(#clipPath15)"
         id="path16" />
    </g>
    <path
       id="path18"
       d="m 193.258,233.551 -7.344,4.722 c -7.344,4.727 -22.035,14.176 -29.379,26.165 -7.347,11.988 -7.347,26.511 -7.347,39.437 0,12.926 0,24.25 6.964,35.187 6.965,10.938 20.891,21.489 27.856,26.762 l 6.961,5.278"
       style="fill:none;stroke:#000000;stroke-width:1.5;stroke-linecap:butt;stroke-linejoin:miter;stroke-miterlimit:4;stroke-dasharray:none;stroke-opacity:1"
       transform="scale(1.3333333)" />
    <g
       id="g20">
      <path
         d="m 187.23,362.621 4.458,9.024 -9.891,-1.848 z"
         style="fill:#000000;fill-opacity:1;fill-rule:nonzero;stroke:none"
         transform="scale(1.3333333)"
         clip-path="url(#clipPath19)"
         id="path20" />
    </g>
    <g
       id="g22"
       clip-path="url(#clipPath23)">
      <path
         d="m 293.501,140.288 7.175,3.588 -7.173,3.586 z"
         style="fill:none;stroke:#000000;stroke-width:0.717402;stroke-linecap:butt;stroke-linejoin:miter;stroke-miterlimit:4;stroke-dasharray:none;stroke-opacity:1"
         transform="matrix(1.3333333,1.010028,-1.010028,1.3333333,0,0)"
         clip-path="url(#clipPath21)"
         id="path22" />
    </g>
    <path
       id="path24"
       d="m 268.078,321.074 -0.062,3.063 c -0.063,3.062 -0.188,9.187 -4.895,16.945 -4.707,7.758 -14,17.145 -18.644,21.84 l -4.645,4.695"
       style="fill:none;stroke:#000000;stroke-width:1.5;stroke-linecap:butt;stroke-linejoin:miter;stroke-miterlimit:4;stroke-dasharray:none;stroke-opacity:1"
       transform="scale(1.3333333)" />
    <g
       id="g26">
      <path
         d="m 248.727,365.023 -9.528,3.235 3.129,-9.563 z"
         style="fill:#000000;fill-opacity:1;fill-rule:nonzero;stroke:none"
         transform="scale(1.3333333)"
         clip-path="url(#clipPath25)"
         id="path26" />
    </g>
    <g
       id="g28"
       clip-path="url(#clipPath29)">
      <path
         d="m 60.066,-308.167 6.397,3.197 -6.395,3.2 z"
         style="fill:none;stroke:#000000;stroke-width:0.639718;stroke-linecap:butt;stroke-linejoin:miter;stroke-miterlimit:4;stroke-dasharray:none;stroke-opacity:1"
         transform="matrix(-1.319448,1.3333333,-1.3333333,-1.319448,0,0)"
         clip-path="url(#clipPath27)"
         id="path28" />
    </g>
    <path
       id="path30"
       d="m 193.168,413.031 -6.871,6.442 c -6.871,6.441 -20.613,19.32 -31.051,30.488 -10.437,11.164 -17.566,20.613 -21.129,25.34 l -3.566,4.722"
       style="fill:none;stroke:#000000;stroke-width:1.5;stroke-linecap:butt;stroke-linejoin:miter;stroke-miterlimit:4;stroke-dasharray:none;stroke-opacity:1"
       transform="scale(1.3333333)" />
    <g
       id="g32">
      <path
         d="m 139.023,476.27 -9.011,4.472 1.828,-9.894 z"
         style="fill:#000000;fill-opacity:1;fill-rule:nonzero;stroke:none"
         transform="scale(1.3333333)"
         clip-path="url(#clipPath31)"
         id="path32" />
    </g>
    <g
       id="g34"
       clip-path="url(#clipPath35)">
      <path
         d="m 236.695,-317.58 7.183,3.593 -7.185,3.592 z"
         style="fill:none;stroke:#000000;stroke-width:0.718488;stroke-linecap:butt;stroke-linejoin:miter;stroke-miterlimit:4;stroke-dasharray:none;stroke-opacity:1"
         transform="matrix(-1.0058333,1.3333333,-1.3333333,-1.0058333,0,0)"
         clip-path="url(#clipPath33)"
         id="path34" />
    </g>
    <path
       id="path36"
       d="m 238.102,415.5 5.16,6.031 c 5.16,6.028 15.48,18.086 20.64,28.84 5.16,10.754 5.16,20.203 5.16,24.93 v 4.722"
       style="fill:none;stroke:#000000;stroke-width:1.5;stroke-linecap:butt;stroke-linejoin:miter;stroke-miterlimit:4;stroke-dasharray:none;stroke-opacity:1"
       transform="scale(1.3333333)" />
    <path
       id="path37"
       d="m 471.926,-273.562 9,4.5 -9,4.5 z"
       style="fill:#000000;fill-opacity:1;fill-rule:nonzero;stroke:#000000;stroke-width:0.9;stroke-linecap:butt;stroke-linejoin:miter;stroke-miterlimit:4;stroke-dasharray:none;stroke-opacity:1"
       transform="matrix(0,1.3333333,-1.3333333,0,0,0)"
       clip-path="url(#clipPath38)" />
    <path
       id="path39"
       d="m 48,295.875 h 76.387 v 14.5 H 48 Z"
       style="fill:#ffffff;fill-opacity:1;fill-rule:nonzero;stroke:none"
       transform="scale(1.3333333)"
       clip-path="url(#clipPath40)" />
    <text
       id="text40"
       xml:space="preserve"
       transform="matrix(1.3333333,0,0,1.3333333,64.002091,409.83337)"><tspan
         id="tspan40"
         style="font-variant:normal;font-weight:normal;font-size:12px;font-family:'Trebuchet MS';writing-mode:lr-tb;fill:#000000;fill-opacity:1;fill-rule:nonzero;stroke:none"
         x="0"
         y="0">Feat Succeeds</tspan></text>
    <path
       id="path41"
       d="m 190.953,165.148 h 51.949 v 14.5 h -51.949 z"
       style="fill:#ffffff;fill-opacity:1;fill-rule:nonzero;stroke:none"
       transform="scale(1.3333333)"
       clip-path="url(#clipPath42)" />
    <text
       id="text42"
       xml:space="preserve"
       transform="matrix(1.3333333,0,0,1.3333333,254.60209,235.53335)"><tspan
         id="tspan42"
         style="font-variant:normal;font-weight:normal;font-size:12px;font-family:'Trebuchet MS';writing-mode:lr-tb;fill:#000000;fill-opacity:1;fill-rule:nonzero;stroke:none"
         x="0"
         y="0">Feat Fails</tspan></text>
    <path
       id="path43"
       d="m 259.203,252.301 h 17 v 14.5 h -17 z"
       style="fill:#ffffff;fill-opacity:1;fill-rule:nonzero;stroke:none"
       transform="scale(1.3333333)"
       clip-path="url(#clipPath44)" />
    <text
       id="text44"
       xml:space="preserve"
       transform="matrix(1.3333333,0,0,1.3333333,345.60624,351.73336)"><tspan
         id="tspan44"
         style="font-variant:normal;font-weight:normal;font-size:12px;font-family:'Trebuchet MS';writing-mode:lr-tb;fill:#000000;fill-opacity:1;fill-rule:nonzero;stroke:none"
         x="0"
         dx="0 -1.26"
         y="0">Yes</tspan></text>
    <path
       id="path45"
       d="m 142.141,295.875 h 14.102 v 14.5 h -14.102 z"
       style="fill:#ffffff;fill-opacity:1;fill-rule:nonzero;stroke:none"
       transform="scale(1.3333333)"
       clip-path="url(#clipPath46)" />
    <text
       id="text46"
       xml:space="preserve"
       transform="matrix(1.3333333,0,0,1.3333333,189.51876,409.83337)"><tspan
         id="tspan46"
         style="font-variant:normal;font-weight:normal;font-size:12px;font-family:'Trebuchet MS';writing-mode:lr-tb;fill:#000000;fill-opacity:1;fill-rule:nonzero;stroke:none"
         x="0"
         y="0">No</tspan></text>
    <path
       id="path47"
       d="m 101.195,442.074 h 101.488 v 14.5 H 101.195 Z"
       style="fill:#ffffff;fill-opacity:1;fill-rule:nonzero;stroke:none"
       transform="scale(1.3333333)"
       clip-path="url(#clipPath48)" />
    <text
       id="text48"
       xml:space="preserve"
       transform="matrix(1.3333333,0,0,1.3333333,134.92709,604.76672)"><tspan
         id="tspan48"
         style="font-variant:normal;font-weight:normal;font-size:12px;font-family:'Trebuchet MS';writing-mode:lr-tb;fill:#000000;fill-opacity:1;fill-rule:nonzero;stroke:none"
         x="0"
         dx="0 -0.47999999"
         y="0">Responses Succeed</tspan></text>
    <path
       id="path49"
       d="m 230.535,442.074 h 77.051 v 14.5 h -77.051 z"
       style="fill:#ffffff;fill-opacity:1;fill-rule:nonzero;stroke:none"
       transform="scale(1.3333333)"
       clip-path="url(#clipPath50)" />
    <text
       id="text50"
       xml:space="preserve"
       transform="matrix(1.3333333,0,0,1.3333333,307.38127,604.76672)"><tspan
         id="tspan50"
         style="font-variant:normal;font-weight:normal;font-size:12px;font-family:'Trebuchet MS';writing-mode:lr-tb;fill:#000000;fill-opacity:1;fill-rule:nonzero;stroke:none"
         x="0"
         dx="0 -0.47999999"
         y="0">Responses Fail</tspan></text>
    <path
       id="path51"
       d="M 116.105,48 H 252.003 V 78.449 H 116.105 Z"
       style="fill:#cde498;fill-opacity:1;fill-rule:nonzero;stroke:#13540c;stroke-width:0.75;stroke-linecap:butt;stroke-linejoin:miter;stroke-miterlimit:4;stroke-dasharray:none;stroke-opacity:1"
       transform="scale(1.3333333)" />
    <text
       id="text51"
       xml:space="preserve"
       transform="matrix(1.3333333,0,0,1.3333333,162.30627,86.833333)"><tspan
         id="tspan51"
         style="font-variant:normal;font-weight:normal;font-size:12px;font-family:'Trebuchet MS';writing-mode:lr-tb;fill:#000000;fill-opacity:1;fill-rule:nonzero;stroke:none"
         x="0"
         y="0">Feat Interaction Begins</tspan></text>
    <path
       id="path52"
       d="m 152.418,146.398 h 63.273 l 7.614,-15.222 -7.614,-15.227 h -63.273 l -7.613,15.227 z"
       style="fill:#cde498;fill-opacity:1;fill-rule:nonzero;stroke:#13540c;stroke-width:0.75;stroke-linecap:butt;stroke-linejoin:miter;stroke-miterlimit:4;stroke-dasharray:none;stroke-opacity:1"
       transform="scale(1.3333333)" />
    <text
       id="text52"
       xml:space="preserve"
       transform="matrix(1.3333333,0,0,1.3333333,210.72294,177.43333)"><tspan
         id="tspan52"
         style="font-variant:normal;font-weight:normal;font-size:12px;font-family:'Trebuchet MS';writing-mode:lr-tb;fill:#000000;fill-opacity:1;fill-rule:nonzero;stroke:none"
         x="0"
         y="0">Feat Save</tspan></text>
    <path
       id="path53"
       d="m 181.645,203.102 h 70.562 c 2.07,0 3.75,1.679 3.75,3.75 v 22.949 c 0,2.07 -1.68,3.75 -3.75,3.75 h -70.562 c -2.071,0 -3.75,-1.68 -3.75,-3.75 v -22.949 c 0,-2.071 1.679,-3.75 3.75,-3.75 z"
       style="fill:#cde498;fill-opacity:1;fill-rule:nonzero;stroke:#13540c;stroke-width:0.75;stroke-linecap:butt;stroke-linejoin:miter;stroke-miterlimit:4;stroke-dasharray:none;stroke-opacity:1"
       transform="scale(1.3333333)" />
    <text
       id="text53"
       xml:space="preserve"
       transform="matrix(1.3333333,0,0,1.3333333,244.69377,293.63334)"><tspan
         id="tspan53"
         style="font-variant:normal;font-weight:normal;font-size:12px;font-family:'Trebuchet MS';writing-mode:lr-tb;fill:#000000;fill-opacity:1;fill-rule:nonzero;stroke:none"
         x="0"
         y="0">Critical Fail?</tspan></text>
    <path
       id="path54"
       d="M 199.449,320.699 H 320.734 L 335.961,290.25 H 214.672 Z"
       style="fill:#cde498;fill-opacity:1;fill-rule:nonzero;stroke:#13540c;stroke-width:0.75;stroke-linecap:butt;stroke-linejoin:miter;stroke-miterlimit:4;stroke-dasharray:none;stroke-opacity:1"
       transform="scale(1.3333333)" />
    <text
       id="text54"
       xml:space="preserve"
       transform="matrix(1.3333333,0,0,1.3333333,286.96458,409.83337)"><tspan
         id="tspan54"
         style="font-variant:normal;font-weight:normal;font-size:12px;font-family:'Trebuchet MS';writing-mode:lr-tb;fill:#000000;fill-opacity:1;fill-rule:nonzero;stroke:none"
         x="0"
         y="0">Effect Goes Critical</tspan></text>
    <path
       id="path55"
       d="m 249.488,390.762 c 0,17.984 -14.578,32.562 -32.562,32.562 -17.985,0 -32.563,-14.578 -32.563,-32.562 0,-17.985 14.578,-32.563 32.563,-32.563 17.984,0 32.562,14.578 32.562,32.563 z"
       style="fill:#cde498;fill-opacity:1;fill-rule:nonzero;stroke:none"
       transform="scale(1.3333333)" />
    <path
       id="path56"
       d="m 249.488,390.762 c 0,17.984 -14.578,32.562 -32.562,32.562 -17.985,0 -32.563,-14.578 -32.563,-32.562 0,-17.985 14.578,-32.563 32.563,-32.563 17.984,0 32.562,14.578 32.562,32.563"
       style="fill:none;stroke:#13540c;stroke-width:0.75;stroke-linecap:butt;stroke-linejoin:miter;stroke-miterlimit:4;stroke-dasharray:none;stroke-opacity:1"
       transform="scale(1.3333333)" />
    <text
       id="text56"
       xml:space="preserve"
       transform="matrix(1.3333333,0,0,1.3333333,253.31877,523.55001)"><tspan
         id="tspan56"
         style="font-variant:normal;font-weight:normal;font-size:12px;font-family:'Trebuchet MS';writing-mode:lr-tb;fill:#000000;fill-opacity:1;fill-rule:nonzero;stroke:none"
         x="0"
         dx="0 -0.47999999"
         y="0">Responses</tspan></text>
    <path
       id="path57"
       d="m 88.742,480.023 h 60.649 c 8.406,0 15.226,6.825 15.226,15.227 0,8.402 -6.82,15.227 -15.226,15.227 H 88.742 c -8.402,0 -15.226,-6.825 -15.226,-15.227 0,-8.402 6.824,-15.227 15.226,-15.227 z"
       style="fill:#cde498;fill-opacity:1;fill-rule:nonzero;stroke:#13540c;stroke-width:0.75;stroke-linecap:butt;stroke-linejoin:miter;stroke-miterlimit:4;stroke-dasharray:none;stroke-opacity:1"
       transform="scale(1.3333333)" />
    <text
       id="text57"
       xml:space="preserve"
       transform="matrix(1.3333333,0,0,1.3333333,110.59793,662.8667)"><tspan
         id="tspan57"
         style="font-variant:normal;font-weight:normal;font-size:12px;font-family:'Trebuchet MS';writing-mode:lr-tb;fill:#000000;fill-opacity:1;fill-rule:nonzero;stroke:none"
         x="0"
         y="0">Effect Fizzles</tspan></text>
    <path
       id="path58"
       d="m 237.359,480.023 h 63.403 c 8.402,0 15.222,6.825 15.222,15.227 0,8.402 -6.82,15.227 -15.222,15.227 h -63.403 c -8.402,0 -15.222,-6.825 -15.222,-15.227 0,-8.402 6.82,-15.227 15.222,-15.227 z"
       style="fill:#cde498;fill-opacity:1;fill-rule:nonzero;stroke:#13540c;stroke-width:0.75;stroke-linecap:butt;stroke-linejoin:miter;stroke-miterlimit:4;stroke-dasharray:none;stroke-opacity:1"
       transform="scale(1.3333333)" />
    <text
       id="text58"
       xml:space="preserve"
       transform="matrix(1.3333333,0,0,1.3333333,308.75627,662.8667)"><tspan
         id="tspan58"
         style="font-variant:normal;font-weight:normal;font-size:12px;font-family:'Trebuchet MS';writing-mode:lr-tb;fill:#000000;fill-opacity:1;fill-rule:nonzero;stroke:none"
         x="0"
         y="0">Effect Applies</tspan></text>
  </g>
</svg>
