<svg xmlns="http://www.w3.org/2000/svg" width="349.355" height="294.636">
    <defs>
        <clipPath id="a" clipPathUnits="userSpaceOnUse">
            <path d="M107.852-180.617v-9h9v9z"/>
        </clipPath>
        <clipPath id="b" clipPathUnits="userSpaceOnUse">
            <path d="M229.676-111.363v-9h9v9z"/>
        </clipPath>
        <clipPath id="c" clipPathUnits="userSpaceOnUse">
            <path d="M229.676-249.867v-9h9v9z"/>
        </clipPath>
        <clipPath id="d" clipPathUnits="userSpaceOnUse">
            <path d="M48 199.824h135.727V215H48Z"/>
        </clipPath>
        <clipPath id="e" clipPathUnits="userSpaceOnUse">
            <path d="M198.727 199.824h111.289V215H198.727Z"/>
        </clipPath>
    </defs>
    <path d="M185.117 78.449v37.5"
          style="fill:none;stroke:#000;stroke-width:1.5;stroke-linecap:butt;stroke-linejoin:miter;stroke-miterlimit:4;stroke-dasharray:none;stroke-opacity:1"
          transform="translate(-64 -63.5)scale(1.33333)"/>
    <path d="m107.852-189.617 9 4.5-9 4.5z" clip-path="url(#a)"
          style="fill:#000;fill-opacity:1;fill-rule:nonzero;stroke:#000;stroke-width:.9;stroke-linecap:butt;stroke-linejoin:miter;stroke-miterlimit:4;stroke-dasharray:none;stroke-opacity:1"
          transform="rotate(90 -.25 -63.75)scale(1.33333)"/>
    <path d="m160.664 170.02-7.465 6.566c-7.469 6.566-22.402 19.703-29.871 30.996-7.465 11.293-7.465 20.742-7.465 25.469v4.722"
          style="fill:none;stroke:#000;stroke-width:1.5;stroke-linecap:butt;stroke-linejoin:miter;stroke-miterlimit:4;stroke-dasharray:none;stroke-opacity:1"
          transform="translate(-64 -63.5)scale(1.33333)"/>
    <path d="m229.676-120.363 9 4.5-9 4.5z" clip-path="url(#b)"
          style="fill:#000;fill-opacity:1;fill-rule:nonzero;stroke:#000;stroke-width:.9;stroke-linecap:butt;stroke-linejoin:miter;stroke-miterlimit:4;stroke-dasharray:none;stroke-opacity:1"
          transform="rotate(90 -.25 -63.75)scale(1.33333)"/>
    <path d="m209.566 170.02 7.465 6.566c7.469 6.566 22.403 19.703 29.871 30.996 7.465 11.293 7.465 20.742 7.465 25.469v4.722"
          style="fill:none;stroke:#000;stroke-width:1.5;stroke-linecap:butt;stroke-linejoin:miter;stroke-miterlimit:4;stroke-dasharray:none;stroke-opacity:1"
          transform="translate(-64 -63.5)scale(1.33333)"/>
    <path d="m229.676-258.867 9 4.5-9 4.5z" clip-path="url(#c)"
          style="fill:#000;fill-opacity:1;fill-rule:nonzero;stroke:#000;stroke-width:.9;stroke-linecap:butt;stroke-linejoin:miter;stroke-miterlimit:4;stroke-dasharray:none;stroke-opacity:1"
          transform="rotate(90 -.25 -63.75)scale(1.33333)"/>
    <path d="M48 199.824h135.727v14.5H48Z" clip-path="url(#d)"
          style="fill:#fff;fill-opacity:1;fill-rule:nonzero;stroke:none"
          transform="translate(-64 -63.5)scale(1.33333)"/>
    <text xml:space="preserve" transform="translate(0 218.267)scale(1.33333)"><tspan x="0" y="0" dx="0 0 0 0 0 0 0 -0.46799996" style="font-variant:normal;font-weight:400;font-size:12px;font-family:&quot;Trebuchet MS&quot;;writing-mode:lr-tb;fill:#000;fill-opacity:1;fill-rule:nonzero;stroke:none">Other Responses Succeed</tspan></text>
    <path d="M198.727 199.824h111.289v14.5H198.727Z" clip-path="url(#e)"
          style="fill:#fff;fill-opacity:1;fill-rule:nonzero;stroke:none"
          transform="translate(-64 -63.5)scale(1.33333)"/>
    <text xml:space="preserve" transform="translate(200.967 218.267)scale(1.33333)"><tspan x="0" y="0" dx="0 0 0 0 0 0 0 -0.46799996" style="font-variant:normal;font-weight:400;font-size:12px;font-family:&quot;Trebuchet MS&quot;;writing-mode:lr-tb;fill:#000;fill-opacity:1;fill-rule:nonzero;stroke:none">Other Responses Fail</tspan></text>
    <path d="M106.414 48h157.398v30.449H106.414Z"
          style="fill:#cde498;fill-opacity:1;fill-rule:nonzero;stroke:#13540c;stroke-width:.75;stroke-linecap:butt;stroke-linejoin:miter;stroke-miterlimit:4;stroke-dasharray:none;stroke-opacity:1"
          transform="translate(-64 -63.5)scale(1.33333)"/>
    <text xml:space="preserve" transform="translate(85.388 23.333)scale(1.33333)"><tspan x="0" y="0" style="font-variant:normal;font-weight:400;font-size:12px;font-family:&quot;Trebuchet MS&quot;;writing-mode:lr-tb;fill:#000;fill-opacity:1;fill-rule:nonzero;stroke:none">Manifest Interaction Begins</tspan></text>
    <path d="M217.68 148.512c0 17.984-14.582 32.562-32.563 32.562-17.984 0-32.562-14.578-32.562-32.562 0-17.985 14.578-32.563 32.562-32.563 17.981 0 32.563 14.578 32.563 32.563"
          style="fill:#cde498;fill-opacity:1;fill-rule:nonzero;stroke:none"
          transform="translate(-64 -63.5)scale(1.33333)"/>
    <path d="M217.68 148.512c0 17.984-14.582 32.562-32.563 32.562-17.984 0-32.562-14.578-32.562-32.562 0-17.985 14.578-32.563 32.562-32.563 17.981 0 32.563 14.578 32.563 32.563"
          style="fill:none;stroke:#13540c;stroke-width:.75;stroke-linecap:butt;stroke-linejoin:miter;stroke-miterlimit:4;stroke-dasharray:none;stroke-opacity:1"
          transform="translate(-64 -63.5)scale(1.33333)"/>
    <text xml:space="preserve" transform="translate(146.904 137.05)scale(1.33333)"><tspan x="0" y="0" dx="0 -0.47999996" style="font-variant:normal;font-weight:400;font-size:12px;font-family:&quot;Trebuchet MS&quot;;writing-mode:lr-tb;fill:#000;fill-opacity:1;fill-rule:nonzero;stroke:none">Responses</tspan></text>
    <path d="M222.668 237.773h63.402c8.403 0 15.223 6.825 15.223 15.227s-6.82 15.227-15.223 15.227h-63.402c-8.402 0-15.223-6.825-15.223-15.227s6.821-15.227 15.223-15.227z"
          style="fill:#cde498;fill-opacity:1;fill-rule:nonzero;stroke:#13540c;stroke-width:.75;stroke-linecap:butt;stroke-linejoin:miter;stroke-miterlimit:4;stroke-dasharray:none;stroke-opacity:1"
          transform="translate(-64 -63.5)scale(1.33333)"/>
    <text xml:space="preserve" transform="translate(225.167 276.367)scale(1.33333)"><tspan x="0" y="0" style="font-variant:normal;font-weight:400;font-size:12px;font-family:&quot;Trebuchet MS&quot;;writing-mode:lr-tb;fill:#000;fill-opacity:1;fill-rule:nonzero;stroke:none">Effect Applies</tspan></text>
    <path d="M85.539 237.773h60.649c8.402 0 15.226 6.825 15.226 15.227s-6.824 15.227-15.226 15.227H85.539c-8.406 0-15.227-6.825-15.227-15.227s6.821-15.227 15.227-15.227z"
          style="fill:#cde498;fill-opacity:1;fill-rule:nonzero;stroke:#13540c;stroke-width:.75;stroke-linecap:butt;stroke-linejoin:miter;stroke-miterlimit:4;stroke-dasharray:none;stroke-opacity:1"
          transform="translate(-64 -63.5)scale(1.33333)"/>
    <text xml:space="preserve" transform="translate(42.325 276.367)scale(1.33333)"><tspan x="0" y="0" style="font-variant:normal;font-weight:400;font-size:12px;font-family:&quot;Trebuchet MS&quot;;writing-mode:lr-tb;fill:#000;fill-opacity:1;fill-rule:nonzero;stroke:none">Effect Fizzles</tspan></text>
</svg>