<?xml version="1.0" encoding="UTF-8" standalone="no"?>
<!-- Created with Inkscape (http://www.inkscape.org/) -->

<svg
   version="1.1"
   id="svg1"
   width="349.35464"
   height="294.63599"
   viewBox="0 0 349.35464 294.63599"
   sodipodi:docname="manifest-interaction.svg"
   inkscape:export-filename="manifest-interaction.webp"
   inkscape:export-xdpi="300"
   inkscape:export-ydpi="300"
   inkscape:version="1.4.3 (0d15f75042, 2025-12-25)"
   xmlns:inkscape="http://www.inkscape.org/namespaces/inkscape"
   xmlns:sodipodi="http://sodipodi.sourceforge.net/DTD/sodipodi-0.dtd"
   xmlns="http://www.w3.org/2000/svg"
   xmlns:svg="http://www.w3.org/2000/svg">
  <defs
     id="defs1">
    <clipPath
       clipPathUnits="userSpaceOnUse"
       id="clipPath3">
      <path
         d="m 107.852,-180.617 v -9 h 9 v 9 z"
         id="path3" />
    </clipPath>
    <clipPath
       clipPathUnits="userSpaceOnUse"
       id="clipPath6">
      <path
         d="m 229.67601,-111.363 v -9 h 9 v 9 z"
         id="path6" />
    </clipPath>
    <clipPath
       clipPathUnits="userSpaceOnUse"
       id="clipPath9">
      <path
         d="m 229.67601,-249.86701 v -9 h 9 v 9 z"
         id="path9" />
    </clipPath>
    <clipPath
       clipPathUnits="userSpaceOnUse"
       id="clipPath11">
      <path
         d="M 48.000001,199.824 H 183.727 v 15.17601 H 48.000001 Z"
         id="path11" />
    </clipPath>
    <clipPath
       clipPathUnits="userSpaceOnUse"
       id="clipPath13">
      <path
         d="m 198.727,199.824 h 111.28901 v 15.17601 H 198.727 Z"
         id="path13" />
    </clipPath>
  </defs>
  <sodipodi:namedview
     id="namedview1"
     pagecolor="#ffffff"
     bordercolor="#111111"
     borderopacity="1"
     inkscape:showpageshadow="0"
     inkscape:pageopacity="0"
     inkscape:pagecheckerboard="1"
     inkscape:deskcolor="#d1d1d1"
     inkscape:zoom="1.1082287"
     inkscape:cx="211.14775"
     inkscape:cy="243.63202"
     inkscape:window-width="1268"
     inkscape:window-height="711"
     inkscape:window-x="35"
     inkscape:window-y="32"
     inkscape:window-maximized="0"
     inkscape:current-layer="g1">
    <inkscape:page
       x="0"
       y="0"
       inkscape:label="1"
       id="page1"
       width="349.35464"
       height="294.63599"
       margin="0"
       bleed="0" />
  </sodipodi:namedview>
  <g
     id="g1"
     inkscape:groupmode="layer"
     inkscape:label="1"
     transform="translate(-64,-63.5)">
    <path
       id="path1"
       d="m 185.117,78.449 v 3.125 c 0,3.125 0,9.375 0,15.625 0,6.25 0,12.5 0,15.625 v 3.125"
       style="fill:none;stroke:#000000;stroke-width:1.5;stroke-linecap:butt;stroke-linejoin:miter;stroke-miterlimit:4;stroke-dasharray:none;stroke-opacity:1"
       transform="scale(1.3333333)" />
    <path
       id="path2"
       d="m 107.852,-189.617 9,4.5 -9,4.5 z"
       style="fill:#000000;fill-opacity:1;fill-rule:nonzero;stroke:#000000;stroke-width:0.9;stroke-linecap:butt;stroke-linejoin:miter;stroke-miterlimit:4;stroke-dasharray:none;stroke-opacity:1"
       transform="matrix(0,1.3333333,-1.3333333,0,0,0)"
       clip-path="url(#clipPath3)" />
    <path
       id="path4"
       d="m 160.664,170.02 -7.465,6.566 c -7.469,6.566 -22.402,19.703 -29.871,30.996 -7.465,11.293 -7.465,20.742 -7.465,25.469 v 4.722"
       style="fill:none;stroke:#000000;stroke-width:1.5;stroke-linecap:butt;stroke-linejoin:miter;stroke-miterlimit:4;stroke-dasharray:none;stroke-opacity:1"
       transform="scale(1.3333333)" />
    <path
       id="path5"
       d="m 229.676,-120.363 9,4.5 -9,4.5 z"
       style="fill:#000000;fill-opacity:1;fill-rule:nonzero;stroke:#000000;stroke-width:0.9;stroke-linecap:butt;stroke-linejoin:miter;stroke-miterlimit:4;stroke-dasharray:none;stroke-opacity:1"
       transform="matrix(0,1.3333333,-1.3333333,0,0,0)"
       clip-path="url(#clipPath6)" />
    <path
       id="path7"
       d="m 209.566,170.02 7.465,6.566 c 7.469,6.566 22.403,19.703 29.871,30.996 7.465,11.293 7.465,20.742 7.465,25.469 v 4.722"
       style="fill:none;stroke:#000000;stroke-width:1.5;stroke-linecap:butt;stroke-linejoin:miter;stroke-miterlimit:4;stroke-dasharray:none;stroke-opacity:1"
       transform="scale(1.3333333)" />
    <path
       id="path8"
       d="m 229.676,-258.867 9,4.5 -9,4.5 z"
       style="fill:#000000;fill-opacity:1;fill-rule:nonzero;stroke:#000000;stroke-width:0.9;stroke-linecap:butt;stroke-linejoin:miter;stroke-miterlimit:4;stroke-dasharray:none;stroke-opacity:1"
       transform="matrix(0,1.3333333,-1.3333333,0,0,0)"
       clip-path="url(#clipPath9)" />
    <path
       id="path10"
       d="m 48,199.824 h 135.727 v 14.5 H 48 Z"
       style="fill:#ffffff;fill-opacity:1;fill-rule:nonzero;stroke:none"
       transform="scale(1.3333333)"
       clip-path="url(#clipPath11)" />
    <text
       id="text11"
       xml:space="preserve"
       transform="matrix(1.3333333,0,0,1.3333333,64.000031,281.76664)"><tspan
         id="tspan11"
         style="font-variant:normal;font-weight:normal;font-size:12px;font-family:'Trebuchet MS';writing-mode:lr-tb;fill:#000000;fill-opacity:1;fill-rule:nonzero;stroke:none"
         x="0"
         dx="0 0 0 0 0 0 0 -0.46799996"
         y="0">Other Responses Succeed</tspan></text>
    <path
       id="path12"
       d="m 198.727,199.824 h 111.289 v 14.5 H 198.727 Z"
       style="fill:#ffffff;fill-opacity:1;fill-rule:nonzero;stroke:none"
       transform="scale(1.3333333)"
       clip-path="url(#clipPath13)" />
    <text
       id="text13"
       xml:space="preserve"
       transform="matrix(1.3333333,0,0,1.3333333,264.96667,281.76664)"><tspan
         id="tspan13"
         style="font-variant:normal;font-weight:normal;font-size:12px;font-family:'Trebuchet MS';writing-mode:lr-tb;fill:#000000;fill-opacity:1;fill-rule:nonzero;stroke:none"
         x="0"
         dx="0 0 0 0 0 0 0 -0.46799996"
         y="0">Other Responses Fail</tspan></text>
    <path
       id="path14"
       d="M 106.414,48 H 263.812 V 78.449 H 106.414 Z"
       style="fill:#cde498;fill-opacity:1;fill-rule:nonzero;stroke:#13540c;stroke-width:0.75;stroke-linecap:butt;stroke-linejoin:miter;stroke-miterlimit:4;stroke-dasharray:none;stroke-opacity:1"
       transform="scale(1.3333333)" />
    <text
       id="text14"
       xml:space="preserve"
       transform="matrix(1.3333333,0,0,1.3333333,149.38752,86.833327)"><tspan
         id="tspan14"
         style="font-variant:normal;font-weight:normal;font-size:12px;font-family:'Trebuchet MS';writing-mode:lr-tb;fill:#000000;fill-opacity:1;fill-rule:nonzero;stroke:none"
         x="0"
         y="0">Manifest Interaction Begins</tspan></text>
    <path
       id="path15"
       d="m 217.68,148.512 c 0,17.984 -14.582,32.562 -32.563,32.562 -17.984,0 -32.562,-14.578 -32.562,-32.562 0,-17.985 14.578,-32.563 32.562,-32.563 17.981,0 32.563,14.578 32.563,32.563 z"
       style="fill:#cde498;fill-opacity:1;fill-rule:nonzero;stroke:none"
       transform="scale(1.3333333)" />
    <path
       id="path16"
       d="m 217.68,148.512 c 0,17.984 -14.582,32.562 -32.563,32.562 -17.984,0 -32.562,-14.578 -32.562,-32.562 0,-17.985 14.578,-32.563 32.562,-32.563 17.981,0 32.563,14.578 32.563,32.563"
       style="fill:none;stroke:#13540c;stroke-width:0.75;stroke-linecap:butt;stroke-linejoin:miter;stroke-miterlimit:4;stroke-dasharray:none;stroke-opacity:1"
       transform="scale(1.3333333)" />
    <text
       id="text16"
       xml:space="preserve"
       transform="matrix(1.3333333,0,0,1.3333333,210.90417,200.54997)"><tspan
         id="tspan16"
         style="font-variant:normal;font-weight:normal;font-size:12px;font-family:'Trebuchet MS';writing-mode:lr-tb;fill:#000000;fill-opacity:1;fill-rule:nonzero;stroke:none"
         x="0"
         dx="0 -0.47999996"
         y="0">Responses</tspan></text>
    <path
       id="path17"
       d="m 222.668,237.773 h 63.402 c 8.403,0 15.223,6.825 15.223,15.227 0,8.402 -6.82,15.227 -15.223,15.227 h -63.402 c -8.402,0 -15.223,-6.825 -15.223,-15.227 0,-8.402 6.821,-15.227 15.223,-15.227 z"
       style="fill:#cde498;fill-opacity:1;fill-rule:nonzero;stroke:#13540c;stroke-width:0.75;stroke-linecap:butt;stroke-linejoin:miter;stroke-miterlimit:4;stroke-dasharray:none;stroke-opacity:1"
       transform="scale(1.3333333)" />
    <text
       id="text17"
       xml:space="preserve"
       transform="matrix(1.3333333,0,0,1.3333333,289.16667,339.86662)"><tspan
         id="tspan17"
         style="font-variant:normal;font-weight:normal;font-size:12px;font-family:'Trebuchet MS';writing-mode:lr-tb;fill:#000000;fill-opacity:1;fill-rule:nonzero;stroke:none"
         x="0"
         y="0">Effect Applies</tspan></text>
    <path
       id="path18"
       d="m 85.539,237.773 h 60.649 c 8.402,0 15.226,6.825 15.226,15.227 0,8.402 -6.824,15.227 -15.226,15.227 H 85.539 c -8.406,0 -15.227,-6.825 -15.227,-15.227 0,-8.402 6.821,-15.227 15.227,-15.227 z"
       style="fill:#cde498;fill-opacity:1;fill-rule:nonzero;stroke:#13540c;stroke-width:0.75;stroke-linecap:butt;stroke-linejoin:miter;stroke-miterlimit:4;stroke-dasharray:none;stroke-opacity:1"
       transform="scale(1.3333333)" />
    <text
       id="text18"
       xml:space="preserve"
       transform="matrix(1.3333333,0,0,1.3333333,106.32501,339.86662)"><tspan
         id="tspan18"
         style="font-variant:normal;font-weight:normal;font-size:12px;font-family:'Trebuchet MS';writing-mode:lr-tb;fill:#000000;fill-opacity:1;fill-rule:nonzero;stroke:none"
         x="0"
         y="0">Effect Fizzles</tspan></text>
  </g>
</svg>
