<?xml version="1.0" encoding="UTF-8" standalone="no"?>
<svg
   style="height: 512px; width: 512px;"
   viewBox="0 0 512 512"
   version="1.1"
   id="svg1"
   sodipodi:docname="jitte.svg"
   inkscape:version="1.4.2 (ebf0e940d0, 2025-05-08)"
   xmlns:inkscape="http://www.inkscape.org/namespaces/inkscape"
   xmlns:sodipodi="http://sodipodi.sourceforge.net/DTD/sodipodi-0.dtd"
   xmlns="http://www.w3.org/2000/svg"
   xmlns:svg="http://www.w3.org/2000/svg">
  <defs
     id="defs1" />
  <sodipodi:namedview
     id="namedview1"
     pagecolor="#505050"
     bordercolor="#ffffff"
     borderopacity="1"
     inkscape:showpageshadow="0"
     inkscape:pageopacity="0"
     inkscape:pagecheckerboard="1"
     inkscape:deskcolor="#505050"
     inkscape:zoom="1.1972093"
     inkscape:cx="60.557498"
     inkscape:cy="491.14219"
     inkscape:window-width="2560"
     inkscape:window-height="1531"
     inkscape:window-x="0"
     inkscape:window-y="0"
     inkscape:window-maximized="1"
     inkscape:current-layer="svg1" />
  <g
     class=""
     style=""
     transform="translate(0,0)"
     id="g1">
    <path
       d="M 476.953,34.873 C 470.795,28.715 237.497,251.72 162.997,326.2 l 22.628,22.628 C 261.473,273.082 483.11,41.03 476.953,34.873 Z M 145.21891,334.02002 119.187,360.172 l 32.53,32.53 13.443,-13.507 43.84,43.842 c 3.51496,3.51422 9.21304,3.51422 12.728,0 28.048,-32.29 129.91,-138.957 123.743,-144.957 L 215.363,403.944 Z M 113.305,379.746 l -2.346,21.12 21.12,-2.346 z m 14.072,37.406 -18.455,2.05 -2.062,18.564 z M 94.63,384.844 74.666,404.9 92.621,402.904 Z m -4.045,36.396 -32.575,3.62 28.955,28.958 z m -45.765,12.992 -9.9,9.9 33.122,33.12 9.902,-9.896 z"
       fill="#ffffff"
       fill-opacity="1"
       id="path1"
       sodipodi:nodetypes="sccscccccccccccccccccccccccccccccc" />
  </g>
</svg>
