<?xml version="1.0" encoding="UTF-8" standalone="no"?>
<svg
        xmlns:inkscape="http://www.inkscape.org/namespaces/inkscape"
        xmlns:sodipodi="http://sodipodi.sourceforge.net/DTD/sodipodi-0.dtd"
        style="height: 512px; width: 512px;"
        viewBox="0 0 512 512"
        version="1.1"
        id="svg1"
        sodipodi:docname="anosmatic.svg"
        inkscape:version="1.4.2 (ebf0e940d0, 2025-05-08)"
        xmlns="http://www.w3.org/2000/svg"
>
    <defs
            id="defs1"/>
    <sodipodi:namedview
            id="namedview1"
            pagecolor="#ffffff"
            bordercolor="#000000"
            borderopacity="0.25"
            inkscape:showpageshadow="2"
            inkscape:pageopacity="0.0"
            inkscape:pagecheckerboard="0"
            inkscape:deskcolor="#d1d1d1"
            inkscape:zoom="0.64841139"
            inkscape:cx="328.49515"
            inkscape:cy="309.98838"
            inkscape:window-width="1251"
            inkscape:window-height="1015"
            inkscape:window-x="35"
            inkscape:window-y="32"
            inkscape:window-maximized="0"
            inkscape:current-layer="svg1"/>
    <path
            id="path1"
            d="M 21.306641 21.306641 L 21.306641 441.94141 L 124.45117 338.79688 C 123.54875 334.31846 123.06104 329.61353 123.00781 324.68555 C 122.84082 309.31902 126.57668 291.75224 134.07422 270.24414 L 151.07227 276.16992 C 144.4053 295.29341 141.26282 310.33122 141.01758 322.23047 L 299.37891 163.86914 C 268.86873 119.05939 240.59679 71.149946 221.31641 21.308594 L 21.306641 21.306641 z M 340.05469 220.68359 L 181.5625 379.16602 C 193.59382 386.39681 208.26563 394.03014 225.36523 402.86719 L 217.10156 418.85938 C 198.3612 409.17378 181.96431 400.98765 168.25195 392.47461 L 70.027344 490.69336 L 224.13672 490.69336 C 219.96272 468.85336 222.1442 448.03494 230.7832 430.21094 C 244.7902 401.31294 275.51434 381.88723 317.15234 378.99023 L 317.34375 378.97852 L 317.53711 378.97461 C 331.12711 378.51861 362.1607 367.01725 379.2207 347.78125 C 387.7507 338.16425 393.14691 327.14025 393.50391 314.15625 C 393.86091 301.17225 389.17531 285.52297 374.82031 266.66797 C 363.57782 251.90058 351.8675 236.55095 340.05469 220.68359 z M 288.4375 330.12891 L 288.43945 330.13086 C 307.99945 329.89086 321.81013 335.83395 324.45312 345.62695 C 326.18313 352.09895 322.86991 359.69281 315.12891 367.00781 C 309.79891 351.76081 288.00205 345.17331 266.12305 352.19531 C 245.14805 358.95031 231.37644 375.91505 234.52344 391.12305 C 221.25044 389.26705 212.50827 383.91014 210.44727 376.36914 C 206.45727 361.57914 228.74852 342.70675 260.22852 334.21875 C 269.77852 331.64275 279.4775 330.23691 288.4375 330.12891 z "
            style="fill:#ffffff;fill-opacity:1"/>
    <g
            class=""
            id="g2"
            transform="translate(-400,-9.1125386e-5)">
        <path
                d="M 853.395,34.029 877.977,58.611 458.605,477.983 434.023,453.4 Z"
                fill="#ffffff"
                fill-opacity="1"
                id="path1-3"
                sodipodi:nodetypes="ccccc"/>
    </g>
</svg>
